<?xml version="1.0" encoding="utf-8"?>
<!-- Generator: Adobe Adobe Illustrator 24.2.0, SVG Export Plug-In . SVG Version: 6.00 Build 0)  -->
<svg version="1.1" id="Layer_1" xmlns="http://www.w3.org/2000/svg" xmlns:xlink="http://www.w3.org/1999/xlink" x="0px" y="0px"
	 width="560px" height="288px" viewBox="0 0 560 288" style="enable-background:new 0 0 560 288;" xml:space="preserve">
<style type="text/css">
	.st0{fill:#FFFFFF;stroke:#000000;stroke-miterlimit:10;}
</style>
<path class="st0" d="M89.16,68.3c-4.15-7.06-14.64-8.23-21.75-4.16S56.14,75.99,53.68,83.8c-1.02,3.24-0.9,8.04,2.45,8.57
	c1.34,0.21,2.64-0.47,3.83-1.12c8.81-4.83,20.95-8.99,27.85-1.68c3.09,3.28,4.04,8.07,3.89,12.57
	c-0.42,12.99-9.58,25.24-21.91,29.33c-6.98,2.31-15.64,1.71-20.41-3.89c-4.77-5.6-2.14-16.45,5.17-17.18
	c11.91-1.2,13.69,20.31,25.38,22.87c5.27,1.15,10.67-2.4,13.4-7.05c2.73-4.66,3.38-10.2,3.98-15.56c1.03,5.87,3.08,11.57,6.03,16.75
	c0.84,1.47,2.07,3.08,3.77,3.01c1.29-0.06,2.29-1.09,3.09-2.1c4.63-5.92,6.76-13.72,5.8-21.17c-0.07,4.38-0.1,8.91,1.65,12.92
	c1.75,4.01,5.82,7.36,10.17,6.83c5.17-0.63,8.23-6.07,9.81-11.04c2.21-6.98,1.15-17.28-6.12-18.15c0.67,8.28,9.87,13.41,18.18,13.72
	c4.31,0.16,8.92-0.7,12.02-3.7s3.88-8.58,0.75-11.54c-3.29-3.11-9.12-1.72-11.94,1.82c-2.82,3.54-3.29,8.4-3.03,12.93
	c0.15,2.6,0.61,5.43,2.54,7.18c3.23,2.93,8.85,0.92,11.05-2.85c2.2-3.76,1.94-8.43,1.44-12.76c-1.96,6.57-2.28,13.61-0.93,20.33
	c0.41,2.02,1.19,4.29,3.11,5.05c1.7,0.67,3.64-0.13,5.09-1.25c5.13-3.93,6.51-11,7.06-17.44c1.38-16.01-0.03-32.27-4.16-47.8
	c-0.37,36.39,0.09,72.78,1.37,109.15c0.78-19.29,1.56-38.58,2.33-57.87c0.32-7.91,2.55-18.07,10.4-19.1
	c2.16-0.29,4.37,0.28,6.28,1.33c5.72,3.16,8.25,11.03,5.44,16.93c-2.81,5.9-10.51,8.9-16.57,6.45c-1.14-0.46-2.28-1.15-2.81-2.27
	c-1.65-3.48,3.47-6.11,7.29-6.6c8.45-1.1,16.9-2.2,25.35-3.29c1.1,5.8,2.2,11.6,3.31,17.4c-1.24-10.65,3.33-21.79,11.68-28.52
	c6.85,5.41,6.69,15.57,7.03,24.28c0.07,1.87,0.28,3.92,1.62,5.22c1.76,1.7,4.69,1.33,6.87,0.21c9.86-5.1,9.15-19.2,7.02-30.09
	c-1.86,6.18-3.72,12.89-1.52,18.96s10.39,10.24,15.35,6.11c2.79-2.32,3.54-6.24,4.06-9.83c2.93-19.96,4.53-40.11,4.8-60.28
	c-10.86,1.56-14.34,16.18-11.19,26.69s10.21,19.96,10.83,30.91c0.2,3.5-0.26,7.15,1.04,10.41c2.02,5.06,8.55,7.74,13.54,5.55
	c4.99-2.18,7.45-8.8,5.11-13.72"/>
</svg>
