<svg xmlns="http://www.w3.org/2000/svg" xmlns:xlink="http://www.w3.org/1999/xlink" viewBox="11.437721252441406 33.35900115966797 291.92529296875 155.06698608398438" width="376.5150795033097" height="200"><path d="M 57.004,56.547 C 54.351,56.976 54.430,57.199 51.855,57.852" stroke-width="5.580" stroke="black" fill="none" stroke-linecap="round"></path><path d="M 51.855,57.852 C 49.543,58.835 49.497,58.679 47.297,59.953" stroke-width="5.423" stroke="black" fill="none" stroke-linecap="round"></path><path d="M 47.297,59.953 C 44.984,61.151 44.967,61.113 42.703,62.406" stroke-width="5.375" stroke="black" fill="none" stroke-linecap="round"></path><path d="M 42.703,62.406 C 40.004,63.740 40.078,63.850 37.484,65.352" stroke-width="5.287" stroke="black" fill="none" stroke-linecap="round"></path><path d="M 37.484,65.352 C 35.329,66.734 35.344,66.721 33.383,68.367" stroke-width="5.245" stroke="black" fill="none" stroke-linecap="round"></path><path d="M 33.383,68.367 C 31.359,70.031 31.395,70.035 29.617,71.953" stroke-width="5.345" stroke="black" fill="none" stroke-linecap="round"></path><path d="M 29.617,71.953 C 27.637,74.127 27.662,74.111 25.988,76.527" stroke-width="5.330" stroke="black" fill="none" stroke-linecap="round"></path><path d="M 25.988,76.527 C 24.486,78.739 24.490,78.709 23.324,81.117" stroke-width="5.297" stroke="black" fill="none" stroke-linecap="round"></path><path d="M 23.324,81.117 C 22.034,83.627 22.103,83.616 21.223,86.281" stroke-width="5.349" stroke="black" fill="none" stroke-linecap="round"></path><path d="M 21.223,86.281 C 20.659,88.722 20.495,88.662 20.246,91.188" stroke-width="5.355" stroke="black" fill="none" stroke-linecap="round"></path><path d="M 20.246,91.188 C 18.393,95.030 19.804,93.829 19.512,96.496" stroke-width="5.344" stroke="black" fill="none" stroke-linecap="round"></path><path d="M 19.512,96.496 C 22.135,97.245 20.584,97.901 24.629,96.930" stroke-width="5.490" stroke="black" fill="none" stroke-linecap="round"></path><path d="M 24.629,96.930 C 27.129,95.867 27.244,96.599 29.730,95.203" stroke-width="5.415" stroke="black" fill="none" stroke-linecap="round"></path><path d="M 29.730,95.203 C 32.418,94.590 32.385,94.526 35.141,94.246" stroke-width="5.450" stroke="black" fill="none" stroke-linecap="round"></path><path d="M 35.141,94.246 C 38.078,93.859 38.065,93.877 41.023,93.777" stroke-width="5.381" stroke="black" fill="none" stroke-linecap="round"></path><path d="M 41.023,93.777 C 43.775,93.716 43.760,93.701 46.504,93.930" stroke-width="5.253" stroke="black" fill="none" stroke-linecap="round"></path><path d="M 46.504,93.930 C 49.370,93.587 49.079,94.132 51.633,94.609" stroke-width="5.285" stroke="black" fill="none" stroke-linecap="round"></path><path d="M 51.633,94.609 C 54.030,96.096 54.019,95.687 55.801,98.129" stroke-width="5.391" stroke="black" fill="none" stroke-linecap="round"></path><path d="M 55.801,98.129 C 57.662,100.255 57.565,100.155 58.703,102.727" stroke-width="5.409" stroke="black" fill="none" stroke-linecap="round"></path><path d="M 58.703,102.727 C 59.888,105.351 59.750,105.210 59.977,108.039" stroke-width="5.435" stroke="black" fill="none" stroke-linecap="round"></path><path d="M 59.977,108.039 C 59.721,111.622 60.093,111.558 59.113,115.141" stroke-width="5.222" stroke="black" fill="none" stroke-linecap="round"></path><path d="M 59.113,115.141 C 58.637,117.812 58.655,117.796 57.844,120.387" stroke-width="5.120" stroke="black" fill="none" stroke-linecap="round"></path><path d="M 57.844,120.387 C 57.103,123.610 56.895,123.464 55.629,126.445" stroke-width="5.158" stroke="black" fill="none" stroke-linecap="round"></path><path d="M 55.629,126.445 C 54.101,128.941 54.303,128.995 52.242,131.156" stroke-width="5.230" stroke="black" fill="none" stroke-linecap="round"></path><path d="M 52.242,131.156 C 50.558,133.076 50.615,133.096 48.656,134.754" stroke-width="4.976" stroke="black" fill="none" stroke-linecap="round"></path><path d="M 48.656,134.754 C 46.142,137.017 46.138,136.976 43.402,138.957" stroke-width="4.971" stroke="black" fill="none" stroke-linecap="round"></path><path d="M 43.402,138.957 C 41.109,140.727 41.087,140.597 38.547,141.914" stroke-width="5.115" stroke="black" fill="none" stroke-linecap="round"></path><path d="M 38.547,141.914 C 36.066,143.078 36.134,143.032 33.453,143.566" stroke-width="5.232" stroke="black" fill="none" stroke-linecap="round"></path><path d="M 33.453,143.566 C 30.389,144.126 30.472,144.123 27.359,144.004" stroke-width="5.240" stroke="black" fill="none" stroke-linecap="round"></path><path d="M 27.359,144.004 C 24.615,143.990 24.755,143.899 22.184,143.113" stroke-width="5.387" stroke="black" fill="none" stroke-linecap="round"></path><path d="M 22.184,143.113 C 19.119,142.464 19.822,142.261 17.773,140.547" stroke-width="5.328" stroke="black" fill="none" stroke-linecap="round"></path><path d="M 17.773,140.547 C 16.720,137.813 16.273,138.409 16.492,135.004" stroke-width="5.324" stroke="black" fill="none" stroke-linecap="round"></path><path d="M 16.492,135.004 C 16.622,131.702 16.228,131.741 16.789,128.402" stroke-width="5.175" stroke="black" fill="none" stroke-linecap="round"></path><path d="M 16.789,128.402 C 16.526,125.789 16.917,125.880 17.082,123.359" stroke-width="5.214" stroke="black" fill="none" stroke-linecap="round"></path><path d="M 17.082,123.359 C 17.202,119.163 17.663,120.822 19.063,118.469" stroke-width="5.366" stroke="black" fill="none" stroke-linecap="round"></path><path d="M 19.063,118.469 C 22.923,118.470 21.419,117.589 25.516,120.211" stroke-width="5.454" stroke="black" fill="none" stroke-linecap="round"></path><path d="M 25.516,120.211 C 27.045,122.473 27.632,121.632 28.480,124.793" stroke-width="4.604" stroke="black" fill="none" stroke-linecap="round"></path><path d="M 28.480,124.793 C 30.197,127.304 30.071,127.363 31.566,129.992" stroke-width="4.723" stroke="black" fill="none" stroke-linecap="round"></path><path d="M 31.566,129.992 C 32.821,132.826 32.970,132.747 34.027,135.680" stroke-width="5.030" stroke="black" fill="none" stroke-linecap="round"></path><path d="M 34.027,135.680 C 34.912,138.233 35.074,138.156 36.074,140.652" stroke-width="5.153" stroke="black" fill="none" stroke-linecap="round"></path><path d="M 36.074,140.652 C 36.759,143.517 37.193,142.983 38.590,145.180" stroke-width="5.313" stroke="black" fill="none" stroke-linecap="round"></path><path d="M 38.590,145.180 C 41.154,147.011 40.720,147.115 43.996,147.848" stroke-width="5.362" stroke="black" fill="none" stroke-linecap="round"></path><path d="M 43.996,147.848 C 46.561,148.183 46.428,148.564 49.137,148.285" stroke-width="5.315" stroke="black" fill="none" stroke-linecap="round"></path><path d="M 49.137,148.285 C 52.089,148.338 52.083,148.402 55.039,148.285" stroke-width="5.208" stroke="black" fill="none" stroke-linecap="round"></path><path d="M 55.039,148.285 C 57.795,148.353 57.780,148.236 60.520,148.082" stroke-width="5.202" stroke="black" fill="none" stroke-linecap="round"></path><path d="M 60.520,148.082 C 63.932,147.948 63.846,147.751 67.141,147.082" stroke-width="5.039" stroke="black" fill="none" stroke-linecap="round"></path><path d="M 67.141,147.082 C 70.170,146.483 69.911,146.334 72.477,144.855" stroke-width="5.131" stroke="black" fill="none" stroke-linecap="round"></path><path d="M 72.477,144.855 C 74.842,142.947 74.815,143.206 76.430,140.527" stroke-width="5.160" stroke="black" fill="none" stroke-linecap="round"></path><path d="M 76.430,140.527 C 77.873,137.934 78.021,138.103 78.836,135.168" stroke-width="5.063" stroke="black" fill="none" stroke-linecap="round"></path><path d="M 78.836,135.168 C 80.116,131.335 80.156,131.378 80.996,127.414" stroke-width="4.918" stroke="black" fill="none" stroke-linecap="round"></path><path d="M 80.996,127.414 C 81.721,123.951 81.768,123.978 82.141,120.453" stroke-width="4.992" stroke="black" fill="none" stroke-linecap="round"></path><path d="M 82.141,120.453 C 82.942,115.052 82.461,117.781 82.477,115.074" stroke-width="4.881" stroke="black" fill="none" stroke-linecap="round"></path><path d="M 82.477,115.074 C 80.788,117.677 81.964,115.099 80.184,120.547" stroke-width="5.314" stroke="black" fill="none" stroke-linecap="round"></path><path d="M 80.184,120.547 C 79.591,125.134 79.245,125.007 79.391,129.734" stroke-width="5.454" stroke="black" fill="none" stroke-linecap="round"></path><path d="M 79.391,129.734 C 78.961,133.064 79.250,132.968 79.500,136.215" stroke-width="5.113" stroke="black" fill="none" stroke-linecap="round"></path><path d="M 79.500,136.215 C 79.725,139.435 79.961,138.915 81.391,141.438" stroke-width="5.310" stroke="black" fill="none" stroke-linecap="round"></path><path d="M 81.391,141.438 C 83.531,143.503 82.985,143.355 86.020,144.055" stroke-width="5.332" stroke="black" fill="none" stroke-linecap="round"></path><path d="M 86.020,144.055 C 89.016,144.504 88.656,144.639 91.641,143.711" stroke-width="5.231" stroke="black" fill="none" stroke-linecap="round"></path><path d="M 91.641,143.711 C 94.376,142.586 94.324,142.900 96.637,140.848" stroke-width="4.914" stroke="black" fill="none" stroke-linecap="round"></path><path d="M 96.637,140.848 C 99.085,139.177 98.813,139.174 100.516,136.887" stroke-width="4.845" stroke="black" fill="none" stroke-linecap="round"></path><path d="M 100.516,136.887 C 101.746,134.562 101.817,134.802 102.102,132.098" stroke-width="5.033" stroke="black" fill="none" stroke-linecap="round"></path><path d="M 102.102,132.098 C 102.175,129.021 102.535,129.094 102.094,125.949" stroke-width="5.016" stroke="black" fill="none" stroke-linecap="round"></path><path d="M 102.094,125.949 C 102.149,120.143 102.026,123.402 101.805,120.859" stroke-width="5.078" stroke="black" fill="none" stroke-linecap="round"></path><path d="M 101.805,120.859 C 100.623,125.391 101.178,122.164 100.152,129.992" stroke-width="5.347" stroke="black" fill="none" stroke-linecap="round"></path><path d="M 100.152,129.992 C 99.974,134.253 99.720,134.217 100.000,138.512" stroke-width="4.762" stroke="black" fill="none" stroke-linecap="round"></path><path d="M 100.000,138.512 C 100.038,141.510 100.019,141.505 100.242,144.496" stroke-width="5.027" stroke="black" fill="none" stroke-linecap="round"></path><path d="M 100.242,144.496 C 99.436,147.886 100.423,147.133 100.770,149.758" stroke-width="5.160" stroke="black" fill="none" stroke-linecap="round"></path><path d="M 100.770,149.758 C 103.064,151.818 102.112,151.642 105.594,152.008" stroke-width="5.360" stroke="black" fill="none" stroke-linecap="round"></path><path d="M 105.594,152.008 C 109.303,151.747 109.053,152.267 112.746,150.656" stroke-width="5.028" stroke="black" fill="none" stroke-linecap="round"></path><path d="M 112.746,150.656 C 115.897,149.305 115.985,149.630 118.957,147.773" stroke-width="4.763" stroke="black" fill="none" stroke-linecap="round"></path><path d="M 118.957,147.773 C 121.540,146.639 121.452,146.525 123.855,145.098" stroke-width="4.811" stroke="black" fill="none" stroke-linecap="round"></path><path d="M 123.855,145.098 C 126.763,143.628 126.378,143.418 128.633,141.332" stroke-width="4.952" stroke="black" fill="none" stroke-linecap="round"></path><path d="M 128.633,141.332 C 130.422,138.986 130.326,139.253 130.980,136.348" stroke-width="5.032" stroke="black" fill="none" stroke-linecap="round"></path><path d="M 130.980,136.348 C 131.108,132.866 131.686,133.011 131.160,129.383" stroke-width="4.965" stroke="black" fill="none" stroke-linecap="round"></path><path d="M 131.160,129.383 C 131.310,126.865 131.198,126.874 131.160,124.363" stroke-width="4.907" stroke="black" fill="none" stroke-linecap="round"></path><path d="M 131.160,124.363 C 131.097,121.065 130.966,121.113 130.473,117.879" stroke-width="4.955" stroke="black" fill="none" stroke-linecap="round"></path><path d="M 130.473,117.879 C 129.838,114.939 129.902,114.967 128.770,112.168" stroke-width="5.004" stroke="black" fill="none" stroke-linecap="round"></path><path d="M 128.770,112.168 C 128.310,108.847 127.811,109.681 126.418,107.363" stroke-width="5.236" stroke="black" fill="none" stroke-linecap="round"></path><path d="M 126.418,107.363 C 123.857,106.403 124.550,105.898 121.250,106.270" stroke-width="5.275" stroke="black" fill="none" stroke-linecap="round"></path><path d="M 121.250,106.270 C 117.042,105.199 118.461,106.127 115.625,106.813" stroke-width="5.111" stroke="black" fill="none" stroke-linecap="round"></path><path d="M 115.625,106.813 C 114.543,110.192 114.050,108.607 115.266,113.086" stroke-width="5.335" stroke="black" fill="none" stroke-linecap="round"></path><path d="M 115.266,113.086 C 116.414,115.856 115.914,115.684 118.367,117.797" stroke-width="5.293" stroke="black" fill="none" stroke-linecap="round"></path><path d="M 118.367,117.797 C 120.330,119.675 120.127,119.545 122.691,120.465" stroke-width="5.240" stroke="black" fill="none" stroke-linecap="round"></path><path d="M 122.691,120.465 C 125.990,121.405 125.799,121.505 129.305,121.457" stroke-width="5.156" stroke="black" fill="none" stroke-linecap="round"></path><path d="M 129.305,121.457 C 132.868,121.525 132.738,121.511 136.188,120.676" stroke-width="5.003" stroke="black" fill="none" stroke-linecap="round"></path><path d="M 136.188,120.676 C 139.313,119.908 139.141,119.920 141.852,118.246" stroke-width="5.014" stroke="black" fill="none" stroke-linecap="round"></path><path d="M 141.852,118.246 C 144.675,116.543 144.354,116.609 146.270,114.078" stroke-width="5.109" stroke="black" fill="none" stroke-linecap="round"></path><path d="M 146.270,114.078 C 146.994,111.566 147.642,111.957 147.785,109.074" stroke-width="5.236" stroke="black" fill="none" stroke-linecap="round"></path><path d="M 147.785,109.074 C 147.747,105.010 148.567,106.613 149.414,104.172" stroke-width="5.314" stroke="black" fill="none" stroke-linecap="round"></path><path d="M 149.414,104.172 C 153.296,103.841 151.152,103.298 154.594,105.648" stroke-width="5.441" stroke="black" fill="none" stroke-linecap="round"></path><path d="M 154.594,105.648 C 156.323,110.969 156.181,107.860 155.184,112.211" stroke-width="5.111" stroke="black" fill="none" stroke-linecap="round"></path><path d="M 155.184,112.211 C 152.984,110.632 154.300,113.174 150.547,110.059" stroke-width="5.408" stroke="black" fill="none" stroke-linecap="round"></path><path d="M 150.547,110.059 C 147.942,109.612 148.105,109.484 145.426,109.914" stroke-width="5.210" stroke="black" fill="none" stroke-linecap="round"></path><path d="M 145.426,109.914 C 142.632,110.073 142.868,110.221 140.398,111.277" stroke-width="5.023" stroke="black" fill="none" stroke-linecap="round"></path><path d="M 140.398,111.277 C 137.559,112.543 138.126,112.503 136.414,114.773" stroke-width="5.242" stroke="black" fill="none" stroke-linecap="round"></path><path d="M 136.414,114.773 C 135.578,118.100 134.942,117.643 135.164,121.477" stroke-width="5.211" stroke="black" fill="none" stroke-linecap="round"></path><path d="M 135.164,121.477 C 134.980,124.503 134.796,124.479 134.852,127.531" stroke-width="5.081" stroke="black" fill="none" stroke-linecap="round"></path><path d="M 134.852,127.531 C 133.399,131.113 134.736,130.249 134.676,132.969" stroke-width="5.166" stroke="black" fill="none" stroke-linecap="round"></path><path d="M 134.676,132.969 C 137.363,134.827 136.109,135.052 140.273,135.410" stroke-width="5.358" stroke="black" fill="none" stroke-linecap="round"></path><path d="M 140.273,135.410 C 142.861,135.648 142.665,135.889 145.281,135.094" stroke-width="5.266" stroke="black" fill="none" stroke-linecap="round"></path><path d="M 145.281,135.094 C 148.537,134.548 148.285,134.406 151.121,132.926" stroke-width="5.177" stroke="black" fill="none" stroke-linecap="round"></path><path d="M 151.121,132.926 C 153.957,131.061 153.791,131.250 155.789,128.496" stroke-width="5.145" stroke="black" fill="none" stroke-linecap="round"></path><path d="M 155.789,128.496 C 157.404,125.956 157.430,126.198 158.066,123.199" stroke-width="5.165" stroke="black" fill="none" stroke-linecap="round"></path><path d="M 158.066,123.199 C 158.385,120.648 158.652,120.765 158.285,118.113" stroke-width="5.295" stroke="black" fill="none" stroke-linecap="round"></path><path d="M 158.285,118.113 C 157.880,112.406 158.184,115.566 157.664,113.035" stroke-width="5.379" stroke="black" fill="none" stroke-linecap="round"></path><path d="M 157.664,113.035 C 157.224,117.237 157.308,114.072 157.141,121.445" stroke-width="5.392" stroke="black" fill="none" stroke-linecap="round"></path><path d="M 157.141,121.445 C 157.144,125.858 157.054,125.850 157.324,130.262" stroke-width="4.950" stroke="black" fill="none" stroke-linecap="round"></path><path d="M 157.324,130.262 C 157.274,133.057 157.437,133.020 157.727,135.770" stroke-width="5.030" stroke="black" fill="none" stroke-linecap="round"></path><path d="M 157.727,135.770 C 157.331,140.053 158.202,138.616 159.180,141.379" stroke-width="5.190" stroke="black" fill="none" stroke-linecap="round"></path><path d="M 159.180,141.379 C 162.809,142.583 161.161,142.799 165.387,141.262" stroke-width="5.350" stroke="black" fill="none" stroke-linecap="round"></path><path d="M 165.387,141.262 C 168.912,138.180 169.254,139.280 172.070,134.773" stroke-width="4.660" stroke="black" fill="none" stroke-linecap="round"></path><path d="M 172.070,134.773 C 173.795,132.899 173.777,132.932 175.117,130.766" stroke-width="4.386" stroke="black" fill="none" stroke-linecap="round"></path><path d="M 175.117,130.766 C 177.537,127.421 177.226,127.364 178.934,123.703" stroke-width="4.500" stroke="black" fill="none" stroke-linecap="round"></path><path d="M 178.934,123.703 C 179.893,120.307 180.152,120.460 180.348,116.844" stroke-width="4.597" stroke="black" fill="none" stroke-linecap="round"></path><path d="M 180.348,116.844 C 180.572,112.989 180.849,113.024 180.844,109.137" stroke-width="4.588" stroke="black" fill="none" stroke-linecap="round"></path><path d="M 180.844,109.137 C 181.230,105.036 181.134,105.030 181.473,100.926" stroke-width="4.527" stroke="black" fill="none" stroke-linecap="round"></path><path d="M 181.473,100.926 C 181.729,96.257 181.748,96.260 181.879,91.586" stroke-width="4.425" stroke="black" fill="none" stroke-linecap="round"></path><path d="M 181.879,91.586 C 181.950,88.649 181.973,88.650 181.961,85.711" stroke-width="4.251" stroke="black" fill="none" stroke-linecap="round"></path><path d="M 181.961,85.711 C 182.249,81.564 181.976,81.592 181.930,77.473" stroke-width="4.423" stroke="black" fill="none" stroke-linecap="round"></path><path d="M 181.930,77.473 C 181.547,74.493 181.698,74.501 180.859,71.586" stroke-width="4.655" stroke="black" fill="none" stroke-linecap="round"></path><path d="M 180.859,71.586 C 180.189,68.874 180.219,68.880 179.273,66.246" stroke-width="4.778" stroke="black" fill="none" stroke-linecap="round"></path><path d="M 179.273,66.246 C 178.316,63.498 178.320,63.508 177.121,60.855" stroke-width="4.782" stroke="black" fill="none" stroke-linecap="round"></path><path d="M 177.121,60.855 C 174.577,53.086 175.636,57.570 173.914,54.391" stroke-width="4.875" stroke="black" fill="none" stroke-linecap="round"></path><path d="M 173.914,54.391 C 173.250,61.506 172.605,56.967 173.176,68.617" stroke-width="5.124" stroke="black" fill="none" stroke-linecap="round"></path><path d="M 173.176,68.617 C 173.434,72.316 173.137,72.319 173.688,76.016" stroke-width="4.809" stroke="black" fill="none" stroke-linecap="round"></path><path d="M 173.688,76.016 C 173.825,78.644 173.867,78.640 174.043,81.266" stroke-width="4.519" stroke="black" fill="none" stroke-linecap="round"></path><path d="M 174.043,81.266 C 174.377,84.726 174.331,84.730 174.699,88.188" stroke-width="4.186" stroke="black" fill="none" stroke-linecap="round"></path><path d="M 174.699,88.188 C 175.364,94.492 175.286,94.497 175.859,100.809" stroke-width="4.100" stroke="black" fill="none" stroke-linecap="round"></path><path d="M 175.859,100.809 C 176.062,104.539 176.151,104.533 176.273,108.270" stroke-width="3.963" stroke="black" fill="none" stroke-linecap="round"></path><path d="M 176.273,108.270 C 176.440,111.652 176.465,111.651 176.664,115.031" stroke-width="3.955" stroke="black" fill="none" stroke-linecap="round"></path><path d="M 176.664,115.031 C 177.041,119.121 176.936,119.127 177.266,123.219" stroke-width="4.341" stroke="black" fill="none" stroke-linecap="round"></path><path d="M 177.266,123.219 C 177.286,125.867 177.410,125.861 177.402,128.512" stroke-width="4.260" stroke="black" fill="none" stroke-linecap="round"></path><path d="M 177.402,128.512 C 177.512,131.802 177.546,131.797 177.785,135.078" stroke-width="4.115" stroke="black" fill="none" stroke-linecap="round"></path><path d="M 177.785,135.078 C 178.165,138.621 178.081,138.628 178.539,142.164" stroke-width="4.460" stroke="black" fill="none" stroke-linecap="round"></path><path d="M 178.539,142.164 C 178.958,145.606 178.903,145.611 179.262,149.059" stroke-width="4.786" stroke="black" fill="none" stroke-linecap="round"></path><path d="M 179.262,149.059 C 179.403,151.600 179.485,151.593 179.594,154.137" stroke-width="4.860" stroke="black" fill="none" stroke-linecap="round"></path><path d="M 179.594,154.137 C 179.877,156.728 179.789,156.734 180.035,159.328" stroke-width="5.022" stroke="black" fill="none" stroke-linecap="round"></path><path d="M 180.035,159.328 C 180.139,162.388 180.221,162.383 180.281,165.445" stroke-width="5.014" stroke="black" fill="none" stroke-linecap="round"></path><path d="M 180.281,165.445 C 180.472,168.227 180.411,168.229 180.578,171.012" stroke-width="5.306" stroke="black" fill="none" stroke-linecap="round"></path><path d="M 180.578,171.012 C 180.673,173.718 180.681,173.717 180.699,176.426" stroke-width="5.291" stroke="black" fill="none" stroke-linecap="round"></path><path d="M 180.699,176.426 C 180.699,183.151 180.733,179.925 180.699,183.426" stroke-width="5.146" stroke="black" fill="none" stroke-linecap="round"></path><path d="M 180.699,183.426 C 180.699,180.436 180.699,183.661 180.699,177.445" stroke-width="5.363" stroke="black" fill="none" stroke-linecap="round"></path><path d="M 180.699,177.445 C 180.699,173.963 180.699,173.963 180.699,170.480" stroke-width="4.263" stroke="black" fill="none" stroke-linecap="round"></path><path d="M 180.699,170.480 C 180.699,167.043 180.699,167.043 180.699,163.605" stroke-width="4.079" stroke="black" fill="none" stroke-linecap="round"></path><path d="M 180.699,163.605 C 180.699,160.924 180.699,160.924 180.699,158.242" stroke-width="4.172" stroke="black" fill="none" stroke-linecap="round"></path><path d="M 180.699,158.242 C 180.699,155.416 180.699,155.416 180.699,152.590" stroke-width="4.206" stroke="black" fill="none" stroke-linecap="round"></path><path d="M 180.699,152.590 C 180.753,148.097 180.699,148.098 180.699,143.605" stroke-width="4.374" stroke="black" fill="none" stroke-linecap="round"></path><path d="M 180.699,143.605 C 180.556,139.930 180.655,139.929 180.504,136.254" stroke-width="4.530" stroke="black" fill="none" stroke-linecap="round"></path><path d="M 180.504,136.254 C 180.496,133.004 180.458,133.005 180.504,129.754" stroke-width="4.834" stroke="black" fill="none" stroke-linecap="round"></path><path d="M 180.504,129.754 C 180.219,126.857 180.511,126.893 180.535,124.031" stroke-width="5.069" stroke="black" fill="none" stroke-linecap="round"></path><path d="M 180.535,124.031 C 180.856,121.406 180.823,121.463 181.711,118.965" stroke-width="5.198" stroke="black" fill="none" stroke-linecap="round"></path><path d="M 181.711,118.965 C 182.448,115.934 182.672,116.221 184.168,113.660" stroke-width="5.283" stroke="black" fill="none" stroke-linecap="round"></path><path d="M 184.168,113.660 C 186.016,111.512 185.761,111.554 188.336,110.203" stroke-width="5.322" stroke="black" fill="none" stroke-linecap="round"></path><path d="M 188.336,110.203 C 190.768,109.033 190.598,108.926 193.332,108.488" stroke-width="5.301" stroke="black" fill="none" stroke-linecap="round"></path><path d="M 193.332,108.488 C 196.245,107.202 195.815,107.961 198.430,108.059" stroke-width="5.363" stroke="black" fill="none" stroke-linecap="round"></path><path d="M 198.430,108.059 C 201.425,109.771 201.124,109.115 203.090,112.313" stroke-width="5.345" stroke="black" fill="none" stroke-linecap="round"></path><path d="M 203.090,112.313 C 204.095,114.847 204.509,114.480 204.598,117.477" stroke-width="5.182" stroke="black" fill="none" stroke-linecap="round"></path><path d="M 204.598,117.477 C 205.094,120.125 205.095,120.077 205.090,122.773" stroke-width="4.969" stroke="black" fill="none" stroke-linecap="round"></path><path d="M 205.090,122.773 C 205.870,126.109 205.086,125.531 204.582,128.289" stroke-width="5.244" stroke="black" fill="none" stroke-linecap="round"></path><path d="M 204.582,128.289 C 202.315,130.522 203.144,130.722 199.637,132.000" stroke-width="5.311" stroke="black" fill="none" stroke-linecap="round"></path><path d="M 199.637,132.000 C 197.018,133.373 197.137,133.379 194.227,134.004" stroke-width="5.218" stroke="black" fill="none" stroke-linecap="round"></path><path d="M 194.227,134.004 C 191.103,134.558 191.186,134.691 187.973,134.637" stroke-width="5.160" stroke="black" fill="none" stroke-linecap="round"></path><path d="M 187.973,134.637 C 183.420,135.561 185.430,134.701 182.879,134.289" stroke-width="5.319" stroke="black" fill="none" stroke-linecap="round"></path><path d="M 182.879,134.289 C 183.692,131.158 182.264,132.845 185.660,129.203" stroke-width="5.421" stroke="black" fill="none" stroke-linecap="round"></path><path d="M 185.660,129.203 C 187.975,127.316 187.555,127.320 190.605,126.613" stroke-width="5.315" stroke="black" fill="none" stroke-linecap="round"></path><path d="M 190.605,126.613 C 193.396,126.248 193.225,125.914 196.160,126.398" stroke-width="5.353" stroke="black" fill="none" stroke-linecap="round"></path><path d="M 196.160,126.398 C 199.146,126.343 199.008,126.553 201.828,127.223" stroke-width="5.330" stroke="black" fill="none" stroke-linecap="round"></path><path d="M 201.828,127.223 C 204.552,128.441 204.607,128.134 207.082,129.980" stroke-width="5.274" stroke="black" fill="none" stroke-linecap="round"></path><path d="M 207.082,129.980 C 209.740,133.442 209.888,131.689 212.500,133.719" stroke-width="5.166" stroke="black" fill="none" stroke-linecap="round"></path><path d="M 212.500,133.719 C 215.555,132.949 214.732,133.942 217.066,130.980" stroke-width="5.429" stroke="black" fill="none" stroke-linecap="round"></path><path d="M 217.066,130.980 C 217.834,128.355 218.619,128.958 218.629,125.738" stroke-width="5.060" stroke="black" fill="none" stroke-linecap="round"></path><path d="M 218.629,125.738 C 219.351,123.279 219.373,123.287 220.145,120.844" stroke-width="4.976" stroke="black" fill="none" stroke-linecap="round"></path><path d="M 220.145,120.844 C 220.846,118.019 221.037,118.106 222.000,115.391" stroke-width="5.030" stroke="black" fill="none" stroke-linecap="round"></path><path d="M 222.000,115.391 C 223.216,112.538 223.227,112.595 224.906,109.996" stroke-width="5.017" stroke="black" fill="none" stroke-linecap="round"></path><path d="M 224.906,109.996 C 226.742,105.292 226.862,107.055 229.293,104.426" stroke-width="5.060" stroke="black" fill="none" stroke-linecap="round"></path><path d="M 229.293,104.426 C 232.709,105.027 231.124,103.804 233.672,107.020" stroke-width="5.381" stroke="black" fill="none" stroke-linecap="round"></path><path d="M 233.672,107.020 C 233.815,110.233 234.885,109.529 233.645,113.430" stroke-width="5.106" stroke="black" fill="none" stroke-linecap="round"></path><path d="M 233.645,113.430 C 233.324,116.372 233.487,116.382 233.016,119.316" stroke-width="5.246" stroke="black" fill="none" stroke-linecap="round"></path><path d="M 233.016,119.316 C 232.722,122.012 232.733,122.013 232.461,124.711" stroke-width="5.272" stroke="black" fill="none" stroke-linecap="round"></path><path d="M 232.461,124.711 C 231.709,130.130 232.209,127.317 231.988,129.926" stroke-width="5.291" stroke="black" fill="none" stroke-linecap="round"></path><path d="M 231.988,129.926 C 232.976,126.898 232.327,129.678 233.695,123.809" stroke-width="5.434" stroke="black" fill="none" stroke-linecap="round"></path><path d="M 233.695,123.809 C 234.062,121.289 234.271,121.335 234.578,118.801" stroke-width="5.094" stroke="black" fill="none" stroke-linecap="round"></path><path d="M 234.578,118.801 C 235.102,115.543 235.243,115.596 236.059,112.422" stroke-width="5.066" stroke="black" fill="none" stroke-linecap="round"></path><path d="M 236.059,112.422 C 236.824,109.764 236.854,109.825 238.082,107.363" stroke-width="5.096" stroke="black" fill="none" stroke-linecap="round"></path><path d="M 238.082,107.363 C 239.369,104.828 239.369,104.908 241.148,102.711" stroke-width="5.064" stroke="black" fill="none" stroke-linecap="round"></path><path d="M 241.148,102.711 C 243.266,98.982 242.768,100.785 244.879,99.277" stroke-width="5.246" stroke="black" fill="none" stroke-linecap="round"></path><path d="M 244.879,99.277 C 247.010,101.401 246.653,99.603 247.922,103.953" stroke-width="5.417" stroke="black" fill="none" stroke-linecap="round"></path><path d="M 247.922,103.953 C 248.223,106.596 248.791,106.386 248.441,109.246" stroke-width="5.180" stroke="black" fill="none" stroke-linecap="round"></path><path d="M 248.441,109.246 C 248.709,111.907 248.661,111.907 248.797,114.574" stroke-width="5.253" stroke="black" fill="none" stroke-linecap="round"></path><path d="M 248.797,114.574 C 248.822,117.812 248.904,117.809 248.832,121.051" stroke-width="5.166" stroke="black" fill="none" stroke-linecap="round"></path><path d="M 248.832,121.051 C 248.757,123.586 248.840,123.584 248.832,126.117" stroke-width="5.125" stroke="black" fill="none" stroke-linecap="round"></path><path d="M 248.832,126.117 C 247.739,129.838 248.907,128.637 249.133,131.152" stroke-width="5.364" stroke="black" fill="none" stroke-linecap="round"></path><path d="M 249.133,131.152 C 252.044,132.120 250.686,132.617 254.727,131.676" stroke-width="5.388" stroke="black" fill="none" stroke-linecap="round"></path><path d="M 254.727,131.676 C 257.881,131.129 257.495,131.218 260.035,129.348" stroke-width="5.140" stroke="black" fill="none" stroke-linecap="round"></path><path d="M 260.035,129.348 C 262.602,127.110 262.348,127.435 263.660,124.289" stroke-width="5.043" stroke="black" fill="none" stroke-linecap="round"></path><path d="M 263.660,124.289 C 264.234,120.948 264.807,121.229 264.445,117.586" stroke-width="4.982" stroke="black" fill="none" stroke-linecap="round"></path><path d="M 264.445,117.586 C 264.485,114.677 264.627,114.688 264.445,111.770" stroke-width="4.840" stroke="black" fill="none" stroke-linecap="round"></path><path d="M 264.445,111.770 C 264.334,109.252 264.411,109.251 264.297,106.734" stroke-width="4.868" stroke="black" fill="none" stroke-linecap="round"></path><path d="M 264.297,106.734 C 264.379,104.228 264.260,104.231 264.297,101.727" stroke-width="4.928" stroke="black" fill="none" stroke-linecap="round"></path><path d="M 264.297,101.727 C 264.141,98.662 264.196,98.662 263.930,95.602" stroke-width="5.007" stroke="black" fill="none" stroke-linecap="round"></path><path d="M 263.930,95.602 C 263.592,89.687 263.739,92.848 263.492,90.098" stroke-width="5.199" stroke="black" fill="none" stroke-linecap="round"></path><path d="M 263.492,90.098 C 263.470,93.812 263.358,90.650 263.461,97.527" stroke-width="5.353" stroke="black" fill="none" stroke-linecap="round"></path><path d="M 263.461,97.527 C 263.413,100.038 263.455,100.037 263.461,102.547" stroke-width="4.647" stroke="black" fill="none" stroke-linecap="round"></path><path d="M 263.461,102.547 C 263.587,106.730 263.540,106.731 263.715,110.914" stroke-width="4.588" stroke="black" fill="none" stroke-linecap="round"></path><path d="M 263.715,110.914 C 263.739,114.305 263.818,114.301 263.922,117.688" stroke-width="4.348" stroke="black" fill="none" stroke-linecap="round"></path><path d="M 263.922,117.688 C 264.160,120.303 264.063,120.309 264.363,122.922" stroke-width="4.848" stroke="black" fill="none" stroke-linecap="round"></path><path d="M 264.363,122.922 C 264.482,125.709 264.578,125.700 264.758,128.480" stroke-width="4.988" stroke="black" fill="none" stroke-linecap="round"></path><path d="M 264.758,128.480 C 263.951,132.313 265.035,131.264 265.469,134.031" stroke-width="5.185" stroke="black" fill="none" stroke-linecap="round"></path><path d="M 265.469,134.031 C 268.296,135.821 266.925,135.680 270.707,135.215" stroke-width="5.382" stroke="black" fill="none" stroke-linecap="round"></path><path d="M 270.707,135.215 C 274.280,133.522 274.176,134.343 277.230,131.074" stroke-width="5.082" stroke="black" fill="none" stroke-linecap="round"></path><path d="M 277.230,131.074 C 280.291,128.354 280.317,128.514 282.781,125.199" stroke-width="4.674" stroke="black" fill="none" stroke-linecap="round"></path><path d="M 282.781,125.199 C 284.679,122.935 284.536,122.977 285.719,120.320" stroke-width="4.774" stroke="black" fill="none" stroke-linecap="round"></path><path d="M 285.719,120.320 C 286.731,117.257 286.884,117.392 287.191,114.113" stroke-width="4.732" stroke="black" fill="none" stroke-linecap="round"></path><path d="M 287.191,114.113 C 287.347,110.981 287.644,111.023 287.543,107.852" stroke-width="4.712" stroke="black" fill="none" stroke-linecap="round"></path><path d="M 287.543,107.852 C 287.783,105.220 287.708,105.216 287.914,102.582" stroke-width="4.820" stroke="black" fill="none" stroke-linecap="round"></path><path d="M 287.914,102.582 C 287.920,99.614 288.061,99.622 288.098,96.656" stroke-width="4.784" stroke="black" fill="none" stroke-linecap="round"></path><path d="M 288.098,96.656 C 288.408,93.485 288.289,93.477 288.652,90.309" stroke-width="4.751" stroke="black" fill="none" stroke-linecap="round"></path><path d="M 288.652,90.309 C 288.930,87.484 288.869,87.483 289.020,84.652" stroke-width="4.800" stroke="black" fill="none" stroke-linecap="round"></path><path d="M 289.020,84.652 C 289.053,80.953 289.137,80.956 289.066,77.254" stroke-width="4.861" stroke="black" fill="none" stroke-linecap="round"></path><path d="M 289.066,77.254 C 289.091,74.594 289.076,74.594 289.066,71.934" stroke-width="4.863" stroke="black" fill="none" stroke-linecap="round"></path><path d="M 289.066,71.934 C 289.044,68.564 289.035,68.564 288.953,65.195" stroke-width="4.928" stroke="black" fill="none" stroke-linecap="round"></path><path d="M 288.953,65.195 C 288.950,61.864 288.864,61.872 288.707,58.551" stroke-width="4.946" stroke="black" fill="none" stroke-linecap="round"></path><path d="M 288.707,58.551 C 288.848,55.535 288.495,55.661 288.043,52.789" stroke-width="5.019" stroke="black" fill="none" stroke-linecap="round"></path><path d="M 288.043,52.789 C 286.967,49.760 287.164,49.791 285.340,47.063" stroke-width="5.102" stroke="black" fill="none" stroke-linecap="round"></path><path d="M 285.340,47.063 C 283.614,44.316 283.692,44.330 281.492,41.930" stroke-width="5.119" stroke="black" fill="none" stroke-linecap="round"></path><path d="M 281.492,41.930 C 278.563,37.379 279.745,39.965 277.602,38.359" stroke-width="5.301" stroke="black" fill="none" stroke-linecap="round"></path><path d="M 277.602,38.359 C 276.690,42.768 275.973,40.021 276.313,47.215" stroke-width="5.296" stroke="black" fill="none" stroke-linecap="round"></path><path d="M 276.313,47.215 C 276.259,50.382 276.045,50.362 276.313,53.547" stroke-width="4.493" stroke="black" fill="none" stroke-linecap="round"></path><path d="M 276.313,53.547 C 276.360,56.069 276.355,56.067 276.504,58.586" stroke-width="4.340" stroke="black" fill="none" stroke-linecap="round"></path><path d="M 276.504,58.586 C 276.535,61.843 276.688,61.819 276.969,65.047" stroke-width="4.311" stroke="black" fill="none" stroke-linecap="round"></path><path d="M 276.969,65.047 C 277.526,68.548 277.443,68.546 278.320,71.992" stroke-width="4.068" stroke="black" fill="none" stroke-linecap="round"></path><path d="M 278.320,71.992 C 279.015,74.500 278.905,74.526 279.727,77.004" stroke-width="4.603" stroke="black" fill="none" stroke-linecap="round"></path><path d="M 279.727,77.004 C 280.439,79.646 280.474,79.635 281.238,82.262" stroke-width="4.307" stroke="black" fill="none" stroke-linecap="round"></path><path d="M 281.238,82.262 C 282.006,84.953 282.054,84.933 282.957,87.578" stroke-width="4.661" stroke="black" fill="none" stroke-linecap="round"></path><path d="M 282.957,87.578 C 284.165,90.746 284.111,90.763 285.449,93.883" stroke-width="4.862" stroke="black" fill="none" stroke-linecap="round"></path><path d="M 285.449,93.883 C 286.793,97.173 286.795,97.170 288.219,100.426" stroke-width="4.897" stroke="black" fill="none" stroke-linecap="round"></path><path d="M 288.219,100.426 C 289.356,102.868 289.300,102.893 290.465,105.324" stroke-width="4.868" stroke="black" fill="none" stroke-linecap="round"></path><path d="M 290.465,105.324 C 291.823,108.355 291.831,108.351 293.168,111.391" stroke-width="4.936" stroke="black" fill="none" stroke-linecap="round"></path><path d="M 293.168,111.391 C 294.467,114.354 294.479,114.349 295.777,117.313" stroke-width="4.967" stroke="black" fill="none" stroke-linecap="round"></path><path d="M 295.777,117.313 C 297.036,120.231 297.064,120.217 298.363,123.117" stroke-width="5.085" stroke="black" fill="none" stroke-linecap="round"></path></svg>