<?xml version="1.0" encoding="utf-8"?>
<!-- Generator: Adobe Adobe Illustrator 24.2.0, SVG Export Plug-In . SVG Version: 6.00 Build 0)  -->
<svg version="1.1" id="Layer_1" xmlns="http://www.w3.org/2000/svg" xmlns:xlink="http://www.w3.org/1999/xlink" x="0px" y="0px"
	 width="560px" height="288px" viewBox="0 0 560 288" style="enable-background:new 0 0 560 288;" xml:space="preserve">

		<path d="M88.13,81.07c-1.33-3.44-3.5-6.4-6.86-8.07c-1.7-0.85-3.74-1.51-5.66-1.57c-2.03-0.06-3.95,0.68-5.7,1.64
			c-3.31,1.82-6.71,3.93-9.29,6.71c-1.57,1.69-2.87,3.6-4.22,5.46c-1.33,1.85-2.85,3.54-4.21,5.36c-2.53,3.41-4.64,7.75-4.77,12.07
			c-0.11,3.59,2.12,5.92,5.71,6.02c4.99,0.14,9.51-2.48,13.89-4.52c4.55-2.12,9.59-3.84,14.68-3.11c1.84,0.26,3.49,0.88,4.63,2.41
			c0.98,1.32,1.41,2.97,1.64,4.57c0.58,4,0.29,8.23-0.73,12.12c-1.17,4.47-3.38,8.21-6.48,11.6c-0.71,0.78-1.39,1.6-2.11,2.37
			c-0.36,0.39-0.72,0.77-1.11,1.13c-0.19,0.18-0.39,0.36-0.59,0.52c-0.36,0.3-1.07,0.55-0.13,0.27c-1.25,0.39-2.51,1.25-3.7,1.81
			c-1.27,0.59-2.55,1.16-3.84,1.71c-8.14,3.46-17.11,5.31-25.89,3.26c-2.9-0.68-6.14-2.2-6.44-5.54c-0.34-3.71,2.44-7.48,5-9.87
			c0.31-0.29,0.63-0.57,0.96-0.83c0.16-0.12,0.32-0.25,0.48-0.36c1.1-0.8-0.09,0.1-0.28,0.12c0.6-0.06,1.41-0.7,1.96-0.95
			c0.67-0.3,1.34-0.58,2.03-0.85c2.31-0.9,4.7-1.6,7.12-2.14c2.44-0.55,4.92-0.97,7.4-1.26c2.56-0.3,5.14-0.18,7.71-0.42
			c2.65-0.25,5.18-1.15,7.78-1.67c2.63-0.53,5.28-0.95,7.85-1.72c3.91-1.17,7.86-2.15,11.36-4.31c1.73-1.07,2.88-2.82,4.59-3.92
			c-0.61,0.35-1.22,0.7-1.84,1.06c-3.9,6.62-6.39,13.86-8.96,21.07c-0.79,2.21-1.71,4.36-2.36,6.62c-0.65,2.26-1.33,5.04-0.41,7.32
			c1.79,4.45,6.64,1.75,9.33-0.08c3.45-2.35,6.32-5.94,8.46-9.49c2-3.32,3.79-6.91,4.87-10.64c0.46-1.59,0.75-3.16,0.78-4.81
			c0.02-1.15,0-2.66,1.1-3.36c-0.61,0.35-1.23,0.71-1.84,1.06c0.68-0.31,0.81-0.17,0.93,0.55c0.08,0.5,0.06,1.02,0.02,1.52
			c-0.11,1.26-0.43,2.49-0.75,3.7c-0.74,2.85-1.46,5.69-2.23,8.54c-1.19,4.37-2.33,11.49,2.95,13.78c3.84,1.67,8.44-1.08,11.46-3.38
			c4.13-3.14,6.72-8,8.18-12.89c0.81-2.71,1.33-5.57,1.59-8.38c0.13-1.44,0.12-2.88-0.08-4.31c-0.17-1.22-0.19-2.56-0.44-3.76
			c-0.47-2.29-3.62-2.43-5.45-1.88c-1.6,0.48-3.37,1.55-4.62,2.66c-3.62,3.2-4.1,8.32-1.73,12.39c1.02,1.74,2.64,3.4,4.74,3.62
			c2.06,0.22,4.03-1.1,5.74-2.09c4.84-2.81,8.25-7.18,12.65-10.53c0.28-0.21,0.57-0.42,0.86-0.63c0.28-0.2,0.56-0.38,0.85-0.56
			c-0.19,0.11-0.38,0.22-0.57,0.33c0.57-0.5,1.71-0.82,2.45-1.05c1.22-0.38,2.46-0.44,3.56,0.3c2.46,1.65,2.03,5.02,4.17,6.82
			c0.05,0.04,1.86-1.02,1.85-1.07c-0.37-2.16-0.96-4.6-2.49-6.25c-1.64-1.76-3.74-1.34-5.63-0.27c-2.21,1.26-3.9,2.77-5.39,4.85
			c-1.62,2.26-2.94,4.74-4.19,7.23c-1.56,3.11-3.01,6.53-3.08,10.06c-0.05,2.54,0.74,5.6,3.17,6.87c2.02,1.05,4.07,0.31,5.9-0.74
			c2.45-1.4,4.2-3.2,5.71-5.6c4.07-6.45,4.83-14.25,7.13-21.38c-0.62,0.36-1.25,0.72-1.87,1.08c0.17,3.89-1.71,7.54-2.86,11.17
			c-1.15,3.62-2.08,7.33-2.76,11.06c-0.28,1.53-0.46,3.19,0.14,4.68c0.57,1.42,2.04,2.91,3.66,2.95c1.11,0.03,2.09-0.63,3.01-1.16
			c1.1-0.63,2.11-1.32,3.11-2.11c2.57-2.01,4.8-4.35,6.53-7.12c1.89-3.02,3.13-6.36,4.31-9.71c1.33-3.78,2.5-7.63,3.15-11.59
			c0.68-4.12,0.67-8.34,1.06-12.49c0.37-3.91,0.75-7.86,0.41-11.78c-0.07-0.82-0.18-1.64-0.39-2.44c-0.11-0.44-0.49-2.02-0.96-2.14
			c-0.46-0.12-1.26,0.56-1.6,0.76c-1.22,0.71-1.73,1.48-2.17,2.83c-0.61,1.89-0.9,3.89-1.14,5.85c-0.51,4.11-0.73,8.27-0.81,12.41
			c-0.12,6.62,1.33,13.26,0.26,19.84c-0.65,4.01-1.99,7.87-2.9,11.82c-0.94,4.1-1.67,8.24-2.35,12.39
			c-1.33,8.21-2.4,16.47-4.24,24.58c-0.45,2-0.96,3.99-1.52,5.96c0.13-0.47,1.6-0.62,1.87-1.08c2.62-4.43,3.01-9.74,3.86-14.7
			c1.02-6.02,2.04-12.04,3.05-18.05c1.55-9.24,2.15-19.18,6.03-27.82c1.71-3.8,4.47-8.15,9.19-7.9c4.24,0.23,7.21,4.29,8.04,8.12
			c0.88,4.07,0.14,8.45-1.64,12.18c-1.01,2.12-2.33,4.11-3.99,5.78c-0.34,0.35-0.7,0.68-1.08,0.99c-0.23,0.19-0.46,0.38-0.7,0.55
			c-0.41,0.3-1.11,1.06-0.11,0.14c-0.75,0.69-2.13,1.11-3.07,1.49c-2.04,0.81-3.6,0.67-5.41-0.65c-0.7-0.51-1.55-1.26-1.7-2.17
			c-0.15-0.89,0.46-1.72,0.98-2.38c1.54-1.96,3.53-3.71,5.4-5.33c2.41-2.1,4.97-4.01,7.6-5.82c-0.53,0.31-1.06,0.62-1.59,0.93
			c2.52-1.43,5.29-2.92,7.25-5.1c2.07-2.3,4.09-4.58,6.46-6.59c0.25-0.21,0.5-0.42,0.76-0.61c0.1-0.08,0.48-0.44,0.59-0.42
			c0.11,0.01-1.22,0.42-0.78,0.52c0.38,0.08,0.31-0.3,0.52,0.09c0.15,0.28-0.01,1.07-0.02,1.39c-0.1,1.81-0.43,3.61-0.85,5.37
			c-0.81,3.47-1.99,6.84-2.75,10.31c-0.94,4.3-1.91,8.69-2.1,13.1c0.02-0.39,1.75-0.66,1.87-1.08c2.47-8.54,7.66-15.93,12.81-23.04
			c1.23-1.7,2.44-3.42,3.69-5.1c0.09-0.12,1.51-1.87,1.58-1.79c-0.17,0.09-0.33,0.19-0.5,0.28c-0.58,0.27-0.68,0.35-0.28,0.22
			c0.1,0.03,0.33-0.02,0.43-0.01c0.33,0.05,0.62,0.25,0.85,0.48c2.64,2.55,1.38,7.83,0.77,10.92c-0.38,1.9-0.8,3.79-1,5.72
			c-0.25,2.42-0.25,4.86-0.25,7.29c0,1.86-0.16,3.78,0.01,5.64c0.09,1.05,0.4,2.19,1.64,2.22c1.31,0.04,2.66-0.84,3.76-1.47
			c1.11-0.64,2.23-1.27,3.22-2.09c2.3-1.92,3.83-4.56,4.91-7.33c2.54-6.5,2.76-13.79,5.94-20.05c-0.62,0.36-1.25,0.72-1.87,1.08
			c-1.43,4.36-2.49,8.69-3.34,13.19c-0.7,3.69-1.61,8.46,0.61,11.82c0.95,1.44,2.52,2.55,4.3,2.6c1.32,0.04,2.43-0.65,3.53-1.29
			c2.7-1.56,4.52-3.88,6.05-6.57c4.2-7.41,4.92-16.12,6.95-24.25c1.14-4.58,2.55-9.09,3.38-13.74c0.47-2.66,0.58-5.35,0.94-8.02
			c0.63-4.7,1.41-9.52,1.11-14.28c-0.08-1.34-0.18-3.7-1.52-4.49c-1.31-0.76-3.52,0.83-4.48,1.63c-1.88,1.56-2.5,4.48-2.93,6.76
			c-0.46,2.41-0.63,4.87-0.89,7.31c-1.05,10.07-1.08,20.15-1.08,30.26c0,5.05,0.15,10.1,0.87,15.1c0.29,2.02,0.41,4.14,1.22,6.04
			c0.68,1.59,1.88,3.22,3.16,4.39c1.31,1.2,2.81,1.61,4.46,0.85c1-0.46,2.05-1.06,2.93-1.73c2.94-2.25,3.94-6.4,4.3-9.87
			c0.11-1.03,0.16-2.04,0.43-3.04c0.15-0.54,0.35-1.08,0.46-1.63c0.03-0.14,0.13-0.47,0.08-0.61c-0.12-0.35-0.39-0.28-0.82-0.35
			c-0.55-0.1-1.34,1.17-1.87,1.08c0.66,0.12,0.89,0.04,0.77,0.76c-0.08,0.49-0.23,0.95-0.37,1.43c-0.31,1.08-0.42,2.12-0.54,3.23
			c-0.19,1.85-0.49,3.68-1.16,5.42c-0.57,1.46-1.34,2.91-2.45,4.03c-0.06,0.06-0.67,0.67-0.72,0.64c-0.16-0.13,1.19-0.34,0.21-0.2
			c-0.16,0.02-0.31,0.09-0.47,0.12c-0.82,0.16-1.58,0.01-2.31-0.4c-1.4-0.78-2.4-2.21-3.28-3.51c-1.09-1.61-1.57-3.34-1.84-5.25
			c-0.64-4.46-1.07-8.91-1.16-13.42c-0.1-4.57,0.02-9.14,0.02-13.71c0.01-4.7,0.08-9.37,0.42-14.06c0.24-3.32,0.58-6.63,0.92-9.94
			c0.25-2.45,0.59-4.93,1.39-7.27c0.37-1.07,0.84-2.15,1.59-3.01c0.13-0.15,0.32-0.28,0.43-0.44c0.45-0.61-0.79,0.66-0.89,0.47
			c0,0,0.25-0.09,0.27-0.09c0.37-0.03,0.67-0.16,1.04-0.07c1.32,0.33,1.63,2.21,1.79,3.33c0.62,4.42-0.12,9.09-0.69,13.48
			c-0.19,1.42-0.44,2.85-0.54,4.28c-0.31,4.23-1.09,8.3-2.16,12.4c-1.07,4.1-2.2,8.17-3.06,12.33c-0.81,3.95-1.55,7.92-2.72,11.79
			c-1.01,3.3-2.37,6.5-4.33,9.36c-0.22,0.32-3.11,3.74-3.22,3.57c-0.08-0.13,0.95-0.29,0.44-0.24c-0.12,0.01-0.29,0.11-0.41,0.15
			c-0.32,0.1-0.64,0.17-0.97,0.19c-0.81,0.06-1.64-0.13-2.37-0.48c-3.39-1.63-3.86-5.75-3.64-9.07c0.26-3.96,1.13-8.1,2.12-11.93
			c0.53-2.07,1.22-4.09,1.89-6.11c-0.17,0.5-1.62,0.58-1.87,1.08c-2.81,5.53-3.29,11.92-5.14,17.78c-0.89,2.82-2.08,5.61-4,7.89
			c-0.46,0.54-0.96,1.05-1.49,1.52c-0.25,0.22-0.52,0.43-0.79,0.63c-0.22,0.17-0.49,0.3-0.69,0.48c-0.25,0.16-0.16,0.11,0.25-0.14
			c0.55-0.31,0.5-0.3-0.14,0.03c-1.03,0.47-2.65,1.1-3.38-0.15c-0.63-1.1-0.4-2.75-0.38-3.95c0.04-2.31-0.01-4.63,0.05-6.94
			c0.12-4.21,1.18-8.14,1.73-12.28c0.24-1.83,0.38-3.76-0.1-5.56c-0.35-1.31-1.26-3.33-2.92-2.65c-2.77,1.12-4.26,3.51-5.94,5.83
			c-5.75,7.96-11.9,16.04-14.66,25.61c0.62-0.36,1.25-0.72,1.87-1.08c0.33-8.04,3.02-15.65,4.84-23.41
			c0.43-1.83,0.77-3.69,0.86-5.57c0.01-0.12,0.14-1.29,0.01-1.38c-0.1-0.07-0.53,0.11-0.63,0.15c-0.41,0.15-0.79,0.39-1.17,0.61
			c-2.2,1.25-4,2.85-5.83,4.59c-1.47,1.4-2.66,3.1-4.12,4.49c-1.25,1.18-2.9,2.37-4.15,3.08c-3.03,1.74-5.84,4.01-8.48,6.29
			c-1.33,1.15-2.59,2.38-3.84,3.61c-0.94,0.93-2.09,1.97-2.57,3.23c-0.87,2.25,2.77,4.47,4.68,4.45c2.31-0.02,4.82-1.76,6.77-2.88
			c2.57-1.48,4.69-3.23,6.4-5.7c3.43-4.95,5.2-12.03,2.68-17.76c-1.16-2.65-3.62-5.13-6.57-5.61c-2.76-0.45-5.24,1.01-7.49,2.4
			c-5.62,3.47-7.65,10.66-9,16.72c-1.6,7.2-2.46,14.59-3.68,21.86c-0.74,4.39-1.48,8.78-2.22,13.18c-0.64,3.77-1.06,7.64-2.07,11.34
			c-0.48,1.78-1.14,3.48-2.08,5.06c0.62-0.36,1.25-0.72,1.87-1.08c4.52-16.02,5.24-32.8,9.63-48.86c1.1-4.03,1.85-7.98,1.76-12.18
			c-0.09-3.99-0.65-7.95-0.66-11.94c-0.01-3.55,0.17-7.11,0.47-10.64c0.2-2.41,0.46-4.82,0.96-7.19c0.2-0.94,0.43-1.88,0.79-2.77
			c0.13-0.31,0.27-0.63,0.45-0.91c0.42-0.66,1.27-1.05-0.66,0.05c-0.16,0.09-0.31,0.17-0.47,0.26c1.55-0.73,1.88,5.44,1.9,6.29
			c0.11,3.65-0.26,7.29-0.6,10.92c-0.34,3.61-0.33,7.26-0.87,10.84c-0.52,3.51-1.46,6.94-2.58,10.3c-1.95,5.88-4.15,11.76-8.6,16.24
			c-1.01,1.02-2.11,1.94-3.25,2.81c-0.31,0.24-0.62,0.49-0.95,0.71c0.72-0.5,0.06-0.05-0.23,0.03c-0.59,0.16-1.2,0.15-1.78-0.05
			c-3.08-1.09-3.4-4.54-2.93-7.27c0.64-3.72,1.59-7.43,2.73-11.02c1.16-3.7,3.1-7.43,2.93-11.39c0.01,0.33-1.75,0.71-1.87,1.08
			c-1.82,5.61-2.66,11.53-4.91,17.01c-1.1,2.68-2.56,5.27-4.52,7.42c-0.45,0.49-0.93,0.95-1.47,1.35c0.16-0.12,0.63-0.22,0.07-0.08
			c-0.26,0.07-0.51,0.18-0.78,0.24c-0.94,0.22-1.93,0.2-2.84-0.13c-2.1-0.76-3.19-2.89-3.57-4.97c-0.54-2.98,0.29-6.04,1.38-8.8
			c0.96-2.43,2.18-4.75,3.46-7.02c1.27-2.25,2.68-4.54,4.56-6.33c0.15-0.15,0.31-0.29,0.47-0.43c0.16-0.13,0.32-0.26,0.48-0.39
			c0.73-0.5,0.61-0.43-0.37,0.2c0.53-0.01,1.09-0.35,1.66-0.36c1.08-0.01,2.02,0.48,2.75,1.26c1.54,1.65,2.12,4.1,2.49,6.25
			c0.62-0.36,1.23-0.71,1.85-1.07c-1.37-1.15-1.59-3.11-2.33-4.65c-0.75-1.55-2.2-2.87-4.01-2.76c-1.56,0.1-3.1,0.92-4.44,1.67
			c-1.31,0.73-2.61,1.48-3.82,2.36c-3.18,2.33-5.77,5.34-8.78,7.87c-0.76,0.64-1.56,1.23-2.38,1.8c-0.6,0.43-0.19,0.13-0.04,0.05
			c-0.3,0.16-0.62,0.31-0.94,0.45c-0.5,0.22-1.01,0.43-1.56,0.54c-1.48,0.29-2.93-0.18-4.1-1.11c-2.4-1.93-3.84-5.5-3.55-8.56
			c0.17-1.73,0.87-3.42,1.9-4.82c0.5-0.68,1.12-1.4,1.83-1.87c-0.47,0.31,0.49-0.12,0.68-0.17c0.47-0.12,0.94-0.18,1.42-0.18
			c1.53-0.01,3.38,0.45,3.72,2.14c0.14,0.71,0.09,1.46,0.18,2.19c0.13,1.12,0.37,2.21,0.42,3.34c0.15,4.15-0.82,8.67-2.21,12.57
			c-1.29,3.61-3.21,7.08-5.96,9.78c-0.61,0.6-1.27,1.16-1.96,1.66c-0.18,0.13-1.04,0.67-0.51,0.37c0.53-0.3-0.39,0.17-0.59,0.26
			c-0.49,0.21-0.99,0.4-1.51,0.55c-1.58,0.44-3.31,0.5-4.84-0.16c-3.26-1.41-4.17-5.21-3.95-8.45c0.17-2.5,0.87-4.92,1.57-7.31
			c0.6-2.07,1.05-4.16,1.59-6.24c0.44-1.68,1.01-3.5,0.84-5.26c-0.02-0.19-0.06-0.94-0.24-1.04c-0.14-0.08-0.63,0.17-0.75,0.23
			c-0.56,0.26-1.11,0.61-1.64,0.94c-1.13,0.71-1.28,1.86-1.32,3.12c-0.06,1.87-0.31,3.6-0.85,5.4c-1.95,6.54-5.74,13.04-10.69,17.8
			c-0.54,0.52-1.1,1.02-1.69,1.48c-0.28,0.22-0.56,0.42-0.85,0.62c-0.21,0.14-0.96,0.6,0.05,0c1.02-0.6,0.16-0.12-0.15,0
			c-1.07,0.43-2.28,0.61-3.38,0.17c-2.96-1.2-2.77-4.96-2.24-7.54c0.65-3.21,2-6.21,3.09-9.28c1.66-4.69,3.3-9.4,5.37-13.94
			c1.01-2.22,2.13-4.38,3.36-6.48c-0.25,0.42-1.41,0.78-1.84,1.06c-0.8,0.52-1.48,1.14-2.15,1.82c-0.35,0.35-0.69,0.7-1.05,1.03
			c-0.18,0.17-0.37,0.33-0.56,0.49c-0.2,0.15-0.19,0.16,0.03,0.01c-0.13,0.05-0.25,0.11-0.38,0.16c-2.3,0.82-4.61,1.52-6.94,2.23
			c-2.61,0.79-5.24,1.36-7.92,1.87c-2.62,0.51-5.19,1.39-7.82,1.77c-2.54,0.36-5.12,0.23-7.67,0.43c-2.51,0.2-5.03,0.63-7.49,1.14
			c-4.55,0.94-9.05,2.39-13.11,4.68c-2.99,1.68-5.45,3.81-7.24,6.78c-1.7,2.81-2.79,6.73,0.02,9.22c2.34,2.08,5.91,2.51,8.9,2.76
			c4.6,0.38,9.14,0.14,13.62-1.01c4.94-1.27,9.68-3.46,14.24-5.71c1.45-0.72,2.93-1.46,4.26-2.37c1.81-1.24,3.17-2.99,4.62-4.6
			c3.13-3.47,5.4-7.17,6.59-11.73c1-3.85,1.27-8.01,0.74-11.96c-0.49-3.66-2.2-6.5-6.05-7.11c-5.08-0.81-10.12,0.86-14.68,2.96
			c-4.45,2.06-9.02,4.76-14.09,4.61c-3.59-0.1-5.82-2.43-5.71-6.02c0.13-4.39,2.3-8.78,4.89-12.23c1.37-1.82,2.87-3.51,4.2-5.36
			c1.3-1.81,2.58-3.66,4.1-5.3c1.52-1.64,3.34-2.95,5.18-4.21c0.32-0.22,0.65-0.43,0.97-0.65c0.22-0.15,0.79-0.35-0.07,0.03
			c0.59-0.26,1.15-0.56,1.77-0.78c1.1-0.39,2.25-0.62,3.42-0.59c3.62,0.1,7.42,2.01,9.74,4.76c1.22,1.44,2.1,3.13,2.78,4.88
			C86.23,82.06,88.18,81.18,88.13,81.07L88.13,81.07z

			M305.06,80.25c-0.31,6.02-1.72,11.88-2.31,17.87c-0.29,2.95-0.34,5.92-0.72,8.86c-0.38,2.96-0.92,5.89-1.51,8.81
			c-1.17,5.82-2.45,11.61-3.51,17.45c-0.76,4.2-2.02,8.2-3.13,12.31c-0.17,0.64-0.36,1.29-0.62,1.9c-0.21,0.48-0.72,0.94-0.89,1.39
			c0.45-0.26,0.91-0.51,1.36-0.77c-0.07,0.03-0.14,0.04-0.21,0.05c-0.11-0.02-0.26,0.02-0.38,0c-0.24-0.03-0.47-0.14-0.69-0.26
			c-0.8-0.44-1.49-1.25-1.92-2.05c-1-1.88-1.77-4.37-2-6.47c-0.27-2.53,0.69-4.76,1.88-6.93c2.69-4.9,6-9.42,9.19-14
			c3.3-4.74,6.23-9.68,9.14-14.67c1.7-2.9,3.35-5.81,4.87-8.81c0.75-1.47,1.39-3.02,2.22-4.44c0.84-1.46,1.81-2.86,2.71-4.28
			c0.79-1.24,1.59-2.45,2.2-3.79c0.58-1.28,1.09-2.59,1.63-3.89c1.03-2.47,2.22-4.87,4.18-6.74c-0.62,0.36-1.25,0.72-1.87,1.08
			c-3.33,4.46-4.66,9.8-6.81,14.83c-2.18,5.1-5.15,10.1-8.3,14.66c-1.49,2.16-3.22,4.23-4.48,6.54c-0.87,1.59-1.56,3.34-2.79,4.7
			c-0.14,0.16-0.38,0.31-0.49,0.48c-0.03,0.03-0.07,0.06-0.1,0.09c1.11-0.54,1.37-0.7,0.78-0.48c0.04,0.27-0.31-0.25-0.26-0.15
			c-0.04-0.07,0.01-0.35,0.02-0.45c0.1-0.93,0.58-1.82,1.07-2.59c0.52-0.84,1.14-1.62,1.8-2.34c0.31-0.34,0.64-0.66,0.98-0.97
			c0.17-0.15,0.36-0.29,0.52-0.45c0.6-0.57-1.22,0.32-0.29,0.18c1.75-0.27,2.88,0.38,3.86,1.87c0.88,1.35,1.42,2.94,1.76,4.5
			c1.16,5.25,1.11,10.68,1.82,15.99c0.68,5.09,2.18,10.07,5.28,14.23c1.31,1.76,3.03,3.44,5.23,3.97c1.98,0.47,3.86-0.16,5.58-1.13
			c3.92-2.2,6.84-5.24,9.11-9.14c1.36-2.33,2.42-4.83,3.43-7.33c1-2.47,2.08-4.92,2.96-7.43c0.83-2.36,1.47-4.96,0.87-7.45
			c-0.08-0.31-0.31-1.52-0.64-1.72c-0.2-0.12-0.75,0.05-0.94,0.11c-0.58,0.18-1.11,0.55-1.63,0.85c-2.92,1.69-4.55,4.55-5.98,7.54
			c-1.92,4.04-3.24,8.37-3.52,12.86c-0.15,2.32-0.44,5.13,0.24,7.38c0.69,2.3,2.99,4.16,5.37,4.44c3.74,0.44,7.59-2.75,10.25-5
			c4-3.39,7.75-7.08,11.05-11.15c3.2-3.95,5.99-8.25,8.06-12.9c0.53-1.19,0.96-2.41,1.46-3.6c0.47-1.13,0.8-2.27-0.16-3.27
			c-1.25-1.31-2.86-0.34-4.1,0.39c-1.56,0.91-2.47,2.06-3.08,3.79c-0.72,2.01-0.99,4.25-0.85,6.38c0.24,3.64,2.41,6.42,4.68,9.1
			c2.22,2.62,4.45,5.42,4.27,9.05c-0.1,2.03-0.78,4.07-2.28,5.49c-0.14,0.14-0.32,0.26-0.46,0.4c-0.55,0.58,0.36-0.17,0.55-0.23
			c-0.6,0.2-1.15,0.52-1.76,0.71c-0.96,0.3-1.96,0.49-2.96,0.58c-3.83,0.33-8.65-0.36-11.37-3.34c-2.66-2.92-5.17-7.9-2.64-11.59
			c0.29-0.43,0.64-0.82,1.02-1.17c0.62-0.56-0.02-0.28-0.05-0.05c0.01-0.04,0.65-0.21,0.62-0.2c1.11-0.3,2.28-0.24,3.38,0.08
			c2.33,0.68,4.47,2.21,6.11,3.97c1.72,1.85,2.27,4.32,3.93,6.19c1.57,1.77,3.39,3.4,5.36,4.72c2.08,1.39,4.59,2.21,7.01,1.18
			c2.1-0.9,4.05-2.27,5.47-4.07c3.64-4.63,5.26-10.84,6.76-16.43c0.61-2.27,1.13-4.56,1.82-6.8c1.52-4.96,3.08-9.85,4.08-14.95
			c1.03-5.26,1.68-10.65,1.71-16.01c0.02-3.92-0.22-8.09-1.68-11.77c-0.37-0.94-1.43-3.68-2.7-3.36c-0.92,0.23-1.96,0.92-2.7,1.5
			c-1.92,1.5-2.34,4.77-2.67,6.99c-0.91,6.07-0.74,12.41-0.84,18.53c-0.19,11.95-0.83,24-3.72,35.65c-0.5,2.03-1,4.05-1.23,6.14
			c-0.21,1.89-0.34,4,0.44,5.79c-0.04-0.08,1.77-0.89,1.87-1.08c1.25-2.46,1.94-5.15,3.14-7.63c1.18-2.41,2.52-4.75,3.69-7.16
			c2.02-4.16,4.31-7.97,7.55-11.28c0.69-0.71,1.41-1.39,2.19-2c0.16-0.13,0.35-0.25,0.5-0.39c0.61-0.54-0.35,0,0.01-0.03
			c0.42-0.03,0.87-0.32,1.31-0.37c1.48-0.15,2.83,0.69,3.48,2c1.28,2.59,0.55,5.94,0.1,8.65c-0.45,2.7-0.81,5.41-1.46,8.07
			c-0.52,2.12-1.49,4.22-0.36,6.31c1.82,3.37,5.42,1.87,8,0.39c3.23-1.86,5.77-4.17,7.46-7.56c2.13-4.28,2.79-9.18,5.36-13.26
			c0.71-1.13,1.58-2.13,2.46-3.12c0.48-0.53,0.97-1.05,1.5-1.53c0.19-0.17,0.4-0.33,0.59-0.51c0.61-0.56-0.36-0.01,0.39-0.26
			c1.56-0.5,4.27-1.05,5.8-0.23c1.41,0.76,1.91,3.13,2.21,4.54c0.35,1.64,0.77,3.93-0.09,5.48c0.62-0.36,1.25-0.72,1.87-1.08
			c-0.01-3.49,1.13-11.38-3.94-11.97c-2.35-0.27-4.66,1.14-6.52,2.42c-2.42,1.67-4.1,4.3-5.38,6.89c-2.29,4.66-3.73,9.81-2.58,14.97
			c0.43,1.95,1.25,4.84,3.36,5.61c1,0.37,1.99,0.02,2.88-0.46c0.97-0.53,2.01-1.06,2.81-1.83c2.41-2.3,3.43-5.93,4.32-9.03
			c1.29-4.5,1.72-9.25,3.29-13.67c-0.62,0.36-1.25,0.72-1.87,1.08c-1.66,4.76-1.94,9.76-2.46,14.74c-0.31,2.92-1.85,7.71,0.77,10.01
			c2.52,2.22,5.42,0.78,7.83-0.69c2.73-1.67,4.54-4.58,5.9-7.4c1.77-3.66,3.19-7.61,4.02-11.59c0.44-2.09,0.7-4.24,0.57-6.38
			c-0.07-1.21-0.17-3.98-1.71-4.35c-0.86-0.21-2.08,0.77-2.74,1.21c-1.24,0.84-1.81,2.36-2.12,3.77c-0.7,3.14-0.16,7.53,3.22,8.91
			c1.79,0.73,3.39-0.1,4.92-0.98c1.62-0.94,2.98-2.04,4.28-3.4c1.51-1.59,2.82-3.31,3.67-5.35c0.94-2.27,1.05-4.82,2.18-7
			c-0.62,0.36-1.25,0.72-1.87,1.08c0.11,3.04-0.94,5.86-1.57,8.79c-0.64,2.98-0.99,6-1.55,8.99c-0.71,3.86-3.38,9.13-0.71,12.76
			c2.61,3.54,8.11,1.29,11.16-0.48c1.5-0.87,2.78-1.81,3.76-3.28c1.39-2.1,2.3-4.58,3.14-6.94c2.08-5.89,3.27-12.04,4.57-18.14
			c-0.1,0.47-1.69,0.6-1.87,1.08c-1.83,4.96-3.67,9.93-4.94,15.06c-0.5,2.02-0.91,4.06-1.31,6.1c-0.35,1.83-0.66,3.79-0.24,5.63
			c0.39,1.73,1.6,3.36,3.39,3.79c1.49,0.35,2.98-0.23,4.27-0.94c2.75-1.5,5.07-3.36,7.28-5.58c2.37-2.39,5.89-6.55,2.01-9.26
			c-0.26-0.18-1.63,1.25-1.87,1.08c3.02,2.11,1.51,5.21-0.41,7.53c-0.91,1.1-1.94,2.1-2.98,3.08c-0.54,0.51-1.09,1-1.66,1.47
			c-0.35,0.29-0.7,0.57-1.07,0.83c-0.15,0.11-1.02,0.56-0.21,0.19c0.88-0.4-0.38,0.15-0.53,0.2c-3.28,1.27-6.11-0.95-6.49-4.29
			c-0.2-1.72,0.1-3.47,0.44-5.16c0.37-1.85,0.74-3.7,1.18-5.53c1.27-5.22,3.14-10.26,5-15.3c-0.62,0.36-1.25,0.72-1.87,1.08
			c-1.05,4.92-2.03,9.85-3.46,14.68c-0.7,2.36-1.5,4.7-2.49,6.96c-0.83,1.88-1.73,3.83-3.29,5.22c-0.18,0.16-0.38,0.31-0.57,0.46
			c0.14-0.11,0.7-0.28,0.06-0.06c-0.4,0.14-0.8,0.31-1.2,0.44c-1.01,0.32-2.06,0.59-3.11,0.72c-2.13,0.28-4.1-0.35-5.19-2.32
			c-2-3.62,0.3-8.25,1.01-11.92c0.58-3.01,0.92-6.05,1.55-9.05c0.63-3.01,1.73-5.91,1.62-9.02c0.01,0.3-1.7,0.76-1.87,1.08
			c-0.89,1.71-1.07,3.65-1.63,5.48c-0.47,1.52-1.14,2.96-2.04,4.28c-0.98,1.41-2.18,2.7-3.44,3.86c-0.27,0.25-0.55,0.5-0.84,0.73
			c-0.14,0.12-0.29,0.23-0.44,0.34c0.56-0.42,0.23-0.12-0.01-0.06c-0.81,0.19-1.53,0.34-2.37,0.13c-3.05-0.79-4.12-4.27-4.01-7.07
			c0.06-1.4,0.35-2.84,0.97-4.1c0.16-0.33,0.35-0.64,0.57-0.93c0.08-0.1,0.2-0.2,0.26-0.31c0.48-0.81-0.82,0.77-0.96,0.5
			c-0.01-0.02,0.49-0.01,0.54,0c0.26,0.06,0.48,0.24,0.66,0.43c1.04,1.13,1.06,3.26,1.08,4.69c0.03,1.81-0.2,3.63-0.56,5.4
			c-0.73,3.63-2.01,7.13-3.48,10.52c-1.11,2.55-2.5,5.09-4.47,7.07c-0.26,0.26-0.52,0.5-0.8,0.74c-0.1,0.08-0.29,0.18-0.36,0.28
			c-0.19,0.29,0.08-0.09,0.24-0.12c-0.65,0.15-1.22,0.4-1.9,0.41c-1.39,0.02-2.91-0.58-3.78-1.69c-0.93-1.19-0.99-2.79-0.9-4.24
			c0.12-1.84,0.46-3.66,0.65-5.49c0.51-4.9,0.8-9.82,2.44-14.5c-0.18,0.51-1.68,0.55-1.87,1.08c-1.36,3.81-1.71,7.85-2.75,11.74
			c-0.68,2.52-1.38,5.08-2.5,7.45c-0.58,1.23-1.29,2.46-2.26,3.42c-0.14,0.14-0.53,0.36-0.6,0.53c0.06-0.14,1.04-0.38,0.65-0.39
			c-0.13,0-0.31,0.11-0.45,0.14c-0.46,0.11-0.93,0.13-1.39,0.02c-1.95-0.48-2.85-2.87-3.35-4.58c-1.29-4.44-0.62-8.62,0.94-12.9
			c0.96-2.62,2.21-5.2,3.95-7.4c0.39-0.5,0.81-0.97,1.26-1.41c0.48-0.47,1.26-0.86,1.67-1.37c-0.6,0.74-0.94,0.47-0.45,0.33
			c0.12-0.04,0.24-0.09,0.36-0.13c0.28-0.1,0.57-0.18,0.86-0.24c0.6-0.12,1.24-0.18,1.85-0.11c5.07,0.58,3.94,8.49,3.94,11.97
			c0-0.31,1.69-0.75,1.87-1.08c0.78-1.4,0.47-3.39,0.21-4.89c-0.27-1.55-0.7-3.58-1.85-4.75c-1.14-1.17-3.59-0.72-5.02-0.47
			c-1.61,0.28-3.05,1.16-4.42,2.03c-4.11,2.63-6.59,7.21-8.12,11.69c-1.51,4.42-2.79,9.04-6.37,12.29
			c-0.67,0.61-1.55,1.06-2.18,1.68c0.7-0.7,0.68-0.37,0.15-0.13c-0.2,0.09-0.41,0.18-0.62,0.25c-0.44,0.16-0.89,0.3-1.35,0.37
			c-1.76,0.27-3.26-0.46-4.11-2.04c-1.17-2.16-0.11-4.35,0.41-6.54c0.64-2.67,1-5.4,1.45-8.1c0.46-2.72,1.27-6.51-0.47-8.95
			c-2.08-2.92-5.65-0.64-7.84,0.85c-4.05,2.76-7.17,7.17-9.39,11.45c-1.42,2.76-2.67,5.6-4.2,8.3c-1.62,2.85-2.39,6.05-3.87,8.97
			c0.62-0.36,1.25-0.72,1.87-1.08c-0.9-2.04-0.64-4.53-0.33-6.67c0.36-2.57,1.11-5.05,1.65-7.58c1.38-6.51,2.35-13.28,2.8-19.92
			c0.61-9.04,0.19-18.12,0.75-27.16c0.2-3.23,0.44-6.78,1.76-9.78c0.23-0.52,0.5-1.04,0.87-1.48c0.08-0.09,0.52-0.44,0.52-0.51
			c0,0.2-1.63,0.66-1.16,0.7c0.14,0.01,0.3-0.11,0.45-0.09c0.66,0.07,1.3,1.27,1.61,1.81c0.56,0.97,0.95,2.02,1.26,3.09
			c1.22,4.17,1.3,8.67,1.1,12.97c-0.31,6.47-1.34,12.89-2.96,19.15c-1.03,4-2.46,7.87-3.51,11.86c-0.8,3.06-1.57,6.12-2.53,9.13
			c-1.01,3.21-2.19,6.42-3.91,9.32c-0.73,1.23-1.58,2.42-2.62,3.41c-0.22,0.21-0.46,0.42-0.7,0.61c-0.09,0.07-0.2,0.14-0.29,0.22
			c-1.02,0.82,1.86-0.84,0.67-0.37c-0.56,0.22-1.1,0.42-1.7,0.5c-3.71,0.5-7.07-2.58-9.49-4.95c-0.89-0.87-1.82-1.79-2.44-2.88
			c-0.68-1.22-1.08-2.52-1.94-3.65c-1.64-2.18-4.04-4.03-6.63-4.9c-2.17-0.73-4.02-0.26-5.93,0.83c-1.81,1.04-3.44,2.28-4.03,4.41
			c-0.62,2.25,0.34,4.77,1.41,6.72c1.06,1.93,2.46,3.79,4.45,4.81c3.92,2.01,9.51,2.3,13.52,0.38c1.42-0.68,3.01-1.52,4.11-2.67
			c1.54-1.61,2.17-3.97,2.06-6.15c-0.19-3.91-3.11-6.7-5.43-9.56c-1.23-1.51-2.36-3.13-2.99-4.99c-0.69-2.04-0.68-4.27-0.35-6.38
			c0.32-2.09,1-4.69,2.84-5.97c-0.15,0.09-0.31,0.18-0.46,0.28c-1.37,0.8-0.44,0.33,0.08,0.31c0.34-0.01,0.69,0.04,1,0.18
			c0.77,0.34,1.33,1.22,1.32,2.06c-0.01,1.01-0.66,2.08-1.02,3c-0.39,1.02-0.82,2.03-1.28,3.02c-1.85,3.99-4.24,7.72-6.94,11.18
			c-2.73,3.48-5.79,6.7-9.05,9.68c-1.56,1.42-3.14,2.84-4.82,4.12c-0.26,0.19-0.53,0.37-0.79,0.56c-1.06,0.79,1.38-0.58,0.19-0.13
			c-0.45,0.17-0.87,0.37-1.33,0.5c-0.94,0.27-1.92,0.35-2.88,0.18c-1.99-0.35-3.95-1.84-4.77-3.69c-0.84-1.87-0.57-4.06-0.56-6.06
			c0.03-4.31,0.92-8.5,2.54-12.5c1.08-2.67,2.37-5.41,4.21-7.65c0.19-0.23,1.16-1.51,1.45-1.43c-0.16,0.09-0.31,0.18-0.47,0.27
			c-0.51,0.26-0.63,0.34-0.37,0.24c0.07,0.03,0.28-0.1,0.38-0.11c0.53-0.01,0.53-0.13,0.84,0.34c1.13,1.69,0.74,4.54,0.31,6.37
			c-0.5,2.15-1.39,4.18-2.22,6.22c-0.87,2.13-1.69,4.29-2.61,6.4c-1.72,3.93-3.89,7.73-7.05,10.69c-0.37,0.34-0.75,0.68-1.14,0.99
			c-0.24,0.19-0.5,0.36-0.74,0.54c-1.02,0.8,1.41-0.63,0.24-0.13c-0.94,0.4-1.88,0.71-2.91,0.75c-1.94,0.06-3.68-0.84-5.07-2.12
			c-2.94-2.71-4.87-6.78-5.94-10.57c-1.23-4.37-1.49-8.93-1.87-13.43c-0.32-3.74-0.52-7.8-2.07-11.28
			c-0.54-1.21-1.31-2.56-2.54-3.17c-1.19-0.59-2.31-0.13-3.38,0.48c-2.57,1.45-4.81,3.46-6.07,6.19c-0.22,0.47-0.63,1.32-0.49,1.85
			c0.1,0.41,0.08,0.3,0.49,0.19c0.25-0.07,0.5-0.25,0.72-0.37c1.08-0.61,2.09-1.15,2.88-2.13c1-1.25,1.65-2.74,2.39-4.14
			c0.99-1.86,2.32-3.55,3.54-5.26c2.79-3.91,5.29-8.09,7.53-12.34c2.15-4.09,3.43-8.49,5.27-12.72c0.92-2.1,2-4.1,3.37-5.94
			c-0.38,0.51-1.4,0.63-1.87,1.08c-3.74,3.58-4.54,8.94-7.23,13.19c-1.63,2.58-3.3,5.1-4.65,7.84c-1.37,2.77-2.79,5.52-4.34,8.19
			c-3.04,5.24-6.03,10.53-9.45,15.54c-3.32,4.86-6.88,9.58-9.81,14.69c-1.27,2.22-2.61,4.55-2.6,7.18c0.01,2.26,0.88,4.73,1.77,6.79
			c0.5,1.14,1.87,3.27,3.41,2.88c0.91-0.23,2.2-1.02,2.78-1.78c0.81-1.05,1.08-2.53,1.4-3.78c0.47-1.87,1.17-3.65,1.66-5.51
			c1.5-5.73,2.27-11.66,3.51-17.45c1.45-6.8,2.79-13.54,3.24-20.49c0.45-7.04,2.19-13.93,2.55-20.98
			C306.91,79.55,305.08,79.85,305.06,80.25L305.06,80.25z"/>

</svg>
