<?xml version="1.0" encoding="UTF-8"?>
<svg id="Layer_2" data-name="Layer 2" xmlns="http://www.w3.org/2000/svg" viewBox="0 0 261.8 253.23">
  <defs>
    <style>
      .cls-1 {
        fill-rule: evenodd;
        stroke-width: 0px;
      }
    </style>
  </defs>
  <g id="Layer_1-2" data-name="Layer 1">
    <path class="cls-1" d="m121.26,252.96c0,.15.13.27.29.27s.21-.12.12-.27c-.09-.15-.22-.27-.29-.27s-.12.12-.12.27m-58.62-29.5c-.34.43-.33.44.1.1.45-.35.59-.57.37-.57-.06,0-.27.21-.47.47m59.7-5.33c0,.15.12.27.27.27s.27-.12.27-.27-.12-.27-.27-.27-.27.12-.27.27m65.6-.53c-.48.51-.71.99-.6,1.26.11.29.06.37-.15.24-.17-.11-.05.26.28.82.33.56.63,1.18.66,1.39.09.62.9,1.36,4.15,3.78,5.08,3.8,7,6.22,8,10.07.93,3.59.04,9.6-2.22,15.03-.37.9-.74,1.79-1.11,2.69-.11.27,6.52.33,32.63.31,18.02-.02,32.52-.09,32.23-.15-2.74-.61-7.18-2.26-6.97-2.59.1-.16.04-.2-.12-.1-.33.21-1.68-.34-1.68-.68,0-.12-.3-.23-.66-.23s-.91-.27-1.21-.59c-.3-.32-.55-.51-.55-.41,0,.27-4.03-2.16-5.32-3.21-.62-.51-1.2-1.14-1.29-1.41-.22-.71-1.86-1.39-3.33-1.4-1.04,0-1.77-.28-3.97-1.51-2.35-1.31-7.55-3.89-7.85-3.89-.06,0-2.81-1.32-6.12-2.92-3.31-1.61-6.44-3.09-6.96-3.29s-1.02-.48-1.12-.62c-.09-.14-.46-.28-.82-.32-.88-.1-4.33-2.17-8.01-4.82-4.45-3.2-6.3-4.35-9.63-5.97-2.64-1.28-5.77-2.31-7.03-2.31-.24,0-.79.37-1.21.82m-110.55-.65c-3.55.7-7.98,1.8-8.12,2.02-.07.12-.33.14-.58.05-.33-.13-.4-.06-.27.28.1.25.05.45-.1.45s-.21.12-.12.26c.09.14-.28.72-.81,1.28-2.72,2.87-5.88,7.11-6.98,9.39-1.36,2.8-1.87,4.94-2.48,10.37-.24,2.14-.53,4.14-.64,4.45-.18.49-.25.43-.55-.48-.53-1.6-.22-8.07.53-10.96.53-2.06,2.29-6.4,2.73-6.75.32-.25,1.62-3.01,1.54-3.27-.05-.14-.87.48-1.84,1.39-3.17,2.96-3.23,3-4.97,2.79-.99-.12-1.49-.29-1.41-.49.29-.76-1.37-.32-5.09,1.34-.45.2-2.44.92-4.44,1.6-5.15,1.75-6.16,2.28-8.24,4.27-1.21,1.16-2.14,1.82-2.71,1.93-.53.1-1.26.58-1.86,1.24-.55.59-1.24,1.08-1.54,1.08-.7,0-1.7.52-3.81,1.99-1.97,1.37-3.86,2.34-7.64,3.94-1.49.63-3.82,1.69-5.19,2.35-1.37.66-2.56,1.19-2.65,1.16-.09-.02-.44.14-.78.36-1.04.68-5.04,1.8-7.18,2.01l-2.03.2-.08,1.01-.08,1.01h41.6c22.88,0,41.6-.05,41.6-.11s-.51-.94-1.12-1.96c-3.41-5.61-6.06-13.37-6.36-18.64-.14-2.4-.08-3,.46-4.68.34-1.06,1.18-2.86,1.87-4,1.39-2.29,1.59-2.72,1.92-4.09.28-1.16.02-3.26-.39-3.21-.17.02-1.15.2-2.19.41m19.75-21.89c-.43.37-.72.73-.66.79.18.18,1.84-.92,1.84-1.21,0-.43-.35-.31-1.18.42m-19.05-2.97c.01.31.08.38.16.16.08-.19.07-.43-.02-.52-.09-.09-.15.07-.14.35m85.48-3.59c.22.35-.77,1.31-1.19,1.15-.2-.08-.3-.03-.21.11.15.24-2.48,1.62-3.88,2.04-.36.11-1.27.55-2.03.98-.75.43-2.59,1.38-4.07,2.12-2.36,1.17-3.08,1.39-5.75,1.75-5.58.76-10.11.41-13.36-1.03-1.34-.59-1.93-.82-2.22-.84-.15-.01-.39-.09-.54-.18-.88-.52-5.89-1.63-9-2.01-.88-.11-1.12-.06-.97.19.14.23.06.28-.25.16-.29-.11-.45-.04-.45.2,0,.21-.15.43-.34.49-.25.09-.26.21-.03.49.17.21.27.59.23.85-.04.28.09.47.33.47s.35.16.26.4c-.08.22-.03.47.12.56.15.09,1.03,1.18,1.97,2.42,2.35,3.11,4.37,4.74,7.06,5.69,2.04.72,2.41.76,6.88.77,2.6,0,5.51-.07,6.48-.18,3.32-.36,7.7-1.04,9.37-1.46.92-.23,1.82-.33,2-.22.19.12.25.08.14-.09-.22-.36.77-.71,1.24-.44.19.11.26.1.15-.01-.23-.26.44-.96,2.95-3.1,1.07-.91,2.53-2.21,3.24-2.87.7-.67,1.44-1.15,1.62-1.08s.34-.05.34-.27.43-.83.95-1.36c.52-.52.87-1.08.77-1.25-.11-.17-.06-.22.11-.12.42.26.7-.32.77-1.65.04-.78-.04-1.1-.23-.98-.19.11-.23.02-.13-.25.12-.32.03-.4-.34-.33-.35.07-.46-.02-.36-.29.08-.21.01-.39-.15-.39s-.3-.18-.3-.4c0-.26-.23-.38-.66-.35-.36.03-.59.16-.51.28m-40.21-12.73c-1.27.72-1.52,2.93-.48,4.34.34.46.45.75.25.64-.21-.11-.14,0,.15.23.29.23.68.42.88.42s.44,0,.55,0c.11,0,.23-.32.26-.72.03-.4.16-.83.29-.96.13-.13.15-.87.05-1.65-.1-.78-.13-1.56-.06-1.75.07-.2-.09-.34-.39-.34-.28,0-.63-.11-.77-.25-.16-.16-.43-.15-.73.01m74.59-2.09c0,.22-.5.5-1.2.67-.66.17-1.28.43-1.37.58-.09.15-.3.19-.46.09-.17-.11-.22-.06-.1.13.11.17.07.31-.07.31-.62,0-3.34,2.94-4.4,4.75-.63,1.08-1.24,1.9-1.36,1.83s-.13.08-.03.34c.13.34.08.4-.18.24-.24-.15-.29-.12-.17.09.19.3-2.37,3.64-2.6,3.4-.07-.07-.56.06-1.1.29-.85.36-.96.36-.83.01.12-.31-.07-.39-.89-.37-.57.02-1.34.17-1.71.35-.37.17-.95.29-1.29.27-.34-.03-.68.06-.76.19-.08.13-.32.23-.54.23-.59,0-1.39.84-1.6,1.69-.1.41-.31.74-.46.74s-.2.18-.11.41c.09.22.03.4-.12.4s-.21.11-.12.25c.09.14.03.33-.12.42-.15.09-.21.29-.12.44.1.17.3.15.54-.05.32-.27.35-.17.21.59-.1.5-.29,1.13-.43,1.41-.29.57-.02,1.01.31.49.26-.42.3.1.31,3.84,0,2.65-.41,4.56-1.58,7.2-.6,1.34-2.78,4.96-3.13,5.19-.16.11-.18.2-.03.2.15,0,0,.28-.34.61-.33.33-1.19,1.23-1.9,2-2.08,2.23-3.09,2.79-4.97,2.79-1.33,0-1.69.1-2.12.61-.44.51-.49.53-.33.09.13-.36.08-.46-.13-.32-.17.11-.32.08-.32-.05s-.39-.66-.88-1.16c-.74-.77-1.06-.92-2.09-.92-.67,0-1.39.11-1.59.24-.28.18-.32.15-.16-.14.12-.21-.07-.13-.43.17-1.79,1.51-2.87,1.83-6.34,1.89-2.67.05-3.71.19-5.42.74-1.16.37-3.33.82-4.82.98-3.07.35-4.34.52-5.17.7-.32.07-2.14.2-4.05.29-1.91.09-3.67.27-3.91.4-.24.13-.51.16-.59.08-.09-.09-.54-.02-1.01.14-.56.19-1.01.21-1.3.04-.26-.15-.31-.26-.1-.27.19,0,.34-.13.34-.28s-.49-.25-1.08-.23c-.81.03-1.27-.12-1.8-.61-.39-.36-.63-.51-.53-.33.12.22-.2.38-1.01.5-1.45.22-2.17.02-3.41-.92-.52-.4-1.31-.9-1.75-1.12-.45-.22-.9-.52-1-.67-.11-.15-.29-.28-.4-.28-.55-.03-1.43-.45-1.43-.68,0-.14-.17-.25-.37-.25s-.74-.37-1.18-.83c-.62-.64-1.33-.95-3.07-1.38-1.24-.3-2.41-.58-2.59-.61s-.41-.14-.52-.24c-.1-.1-.36-.19-.57-.19s-.54-.15-.75-.34c-.2-.19-.86-.69-1.47-1.13-.6-.44-1.25-1.14-1.43-1.55-.18-.42-.41-.76-.51-.76s-.25-.3-.34-.67c-.09-.37-.34-.67-.54-.67s-.44-.19-.53-.42c-.09-.24-.05-.35.1-.26.15.09.19-.02.1-.26-.09-.23-.41-.42-.7-.42-.46,0-.49-.07-.2-.41.28-.34.25-.51-.14-.94-.4-.44-.42-.6-.13-.95.29-.35.26-.55-.21-1.18-.58-.78-.41-1.37.4-1.37.49,0,.44-1.06-.05-1.25-.6-.23-.49-.84.27-1.5.37-.32.67-.69.67-.81,0-.44-1.63-.21-2.15.31-.29.29-.71.47-.92.39-.21-.08-.48,0-.59.19-.14.23-.07.28.24.16.6-.23.57-.14-.23.78-.72.84-.84,1.19-.4,1.19.18,0,.17.2-.03.58-.6,1.12.08,5.72,1.11,7.58.14.26.26.65.26.88s.12.41.27.41.27.24.27.54.1.54.22.54.24.15.27.34c.11.85.26,1.48.55,2.18.17.42.31.86.31.99s.12.27.26.32c.14.05.3.39.34.76s.24.85.43,1.05c.2.21.3.6.23.88-.07.28-.03.44.09.36.12-.08.67,1.29,1.22,3.04.55,1.75,1.35,3.68,1.77,4.3,1.3,1.89,4.45,4.88,4.61,4.38.1-.31,3.19,2.79,3.19,3.2,0,.14.29.57.65.96.36.39.73.93.81,1.2.09.27.58.96,1.09,1.52.51.56,1,1.24,1.09,1.5.25.79,1.11,1.63,1.65,1.63.48,0,2.08.89,2,1.11-.12.3.37,1.05.69,1.05.2,0,.5.25.67.56.17.31.47.5.68.42.21-.08.46,0,.56.16.11.17.06.22-.11.12-.16-.1-.37-.06-.46.09-.15.25.2.39.75.3.11-.02.33.28.47.66.14.38.37.63.51.54.14-.08.18.09.1.39-.1.39.04.61.5.79.35.14.49.26.3.27-.23.01-.14.33.26.94.33.51.7.86.81.79.11-.07.21.02.21.2,0,.77.97,2.39,1.44,2.39.36,0,.45.14.32.53-.12.36,0,.61.39.82.3.16.55.47.55.69,0,.51-.25.5-.85-.05-.4-.36-.56-.38-.9-.1-.45.37-.57.95-.15.69.14-.09.5-.01.79.17.41.25.47.45.27.82-.25.47.65.49,22.36.49h22.62s1.78-1.83,1.78-1.83c.98-1.01,2.19-2.43,2.7-3.17.51-.74,1.26-1.78,1.67-2.31.41-.53.74-1.11.74-1.28s.1-.31.23-.31.76-.76,1.4-1.69c.65-.93,1.24-1.75,1.33-1.82.45-.39,1.9-2.41,1.9-2.65,0-.15.28-.5.62-.77.34-.27,1.08-1.43,1.65-2.57.56-1.14,1.17-2.13,1.34-2.18.41-.14.37-4.19-.05-4.97-.17-.31-.38-2.51-.47-4.87-.15-3.97-.13-4.38.38-5.36.55-1.07,2.42-3.03,2.14-2.25-.08.24-.04.6.09.81.15.23.24-1.62.25-4.7,0-6.88.22-8.13,2.29-13.15.95-2.3,2.11-5.22,2.59-6.48.48-1.26,1.03-2.66,1.21-3.1s.61-1.66.94-2.7c.33-1.04.78-2.24.99-2.66.22-.43.43-1.15.47-1.62.09-.97,1.44-3.95,1.79-3.95.13,0,.41-.35.64-.78.36-.7.36-.94,0-2.16-.4-1.35-.66-1.74-.66-1m-62.64.06c-1.26.54-2.16,1.43-2.17,2.11,0,.52-.06.51-.66-.18-.36-.41-.73-.74-.82-.74s-.35-.18-.57-.4c-1.06-1.06-2.6-.74-3.72.76-.46.62-.57,1.15-.57,2.79,0,1.99.02,2.04.99,2.93.54.5,1.46,1.04,2.04,1.19,1.75.47,10.79.42,20.44-.12,3.9-.22,6.13-1.09,6.75-2.62.22-.55.32-1.22.22-1.48-.2-.52-.89-1.31-.89-1.01,0,.1-.21-.08-.47-.4-.35-.43-.85-.61-1.95-.69-.82-.06-1.63.02-1.82.18-.2.17-.35.18-.35.03,0-.14-.43-.49-.94-.77-.52-.28-.95-.59-.95-.68,0-.39-1.71-.85-3.02-.82-1.5.03-2.37.47-3.4,1.7-.36.42-.76.77-.9.77s-.64-.44-1.12-.99c-1.59-1.81-4.08-2.44-6.13-1.55m63.18-6.98c0,.26.12.65.27.88.2.31.26.19.27-.47,0-.48-.12-.88-.27-.88s-.27.21-.27.47m0-1.28c0,.15.13.27.29.27s.21-.12.12-.27c-.09-.15-.22-.27-.29-.27s-.12.12-.12.27m-7.53-9.13c-.24.63-1.88,2.02-2.25,1.91-.11-.03-.12.12-.04.34.16.43-1.74,2.75-2.15,2.62-.13-.04-.16.04-.07.18.09.14.04.33-.12.43-.15.09-.27.41-.27.7s-.3,1.01-.68,1.6c-.37.59-.68,1.2-.68,1.36s-.15.21-.34.1c-.26-.15-.26-.11-.03.15.19.21.47.25.72.11.23-.13,1.08-.19,1.9-.14,1.28.08,1.5.17,1.59.67.1.57.11.57.33.04.13-.3.39-.64.59-.76.2-.12.36-.39.36-.61s.12-.39.27-.39.24-.09.21-.2c-.03-.11.22-.92.55-1.8.33-.88.54-1.76.47-1.97-.08-.2.04-.44.26-.53.22-.08.4-.27.4-.41s-.13-.17-.3-.07c-.21.13-.23-.01-.09-.46.6-1.83-.02-4.55-.66-2.89m-83.07-1.8c-.87.97-1.67,1.76-1.76,1.76-.22,0-2.96,2.79-3.91,3.97-.38.48-1.02,1.63-1.42,2.57-.68,1.59-.73,1.96-.72,5.61,0,3.9.01,3.93,1.15,7.22,1.19,3.44,2.76,6.74,3.77,7.9.41.47.81.95,1.21,1.43.43.53.77.7,1.09.58.26-.1.4-.3.31-.44-.09-.14.06-.44.34-.67.27-.22.32-.31.09-.2-.34.17-.35.14-.06-.22.19-.23.26-.63.17-.87-.11-.29-.05-.42.17-.37.19.04.42-.23.52-.6.09-.37.31-.67.47-.67s.39-.09.51-.2c.33-.33.7-.23.49.14-.14.25-.11.26.14.03.25-.23.64-.14,1.59.36.69.37,1.34.79,1.43.94.09.15.21.24.27.21.06-.03.54.07,1.07.21.59.16,1.54.18,2.42.04,3.05-.48,6.48-.33,10.68.46,2.22.42,7.61.41,10.87-.03,1.06-.14,1.51-.1,1.67.15.16.26.3.27.59.03.28-.23.46-.23.68-.02.18.18,1.99.35,4.57.43,4.19.13,4.34.12,8.19-.82,2.15-.53,5-1.16,6.32-1.4,1.32-.25,2.87-.68,3.44-.98.57-.29,1.04-.43,1.04-.32,0,.11.09.08.2-.07.34-.48,2.44-1.28,2.9-1.11.24.09.37.06.29-.07-.17-.27,1.42-.57,1.95-.36.2.08.28.34.18.64-.11.34-.03.51.25.51.22,0,.47.11.56.24.08.13-.06.22-.32.2-.3-.02-.5.19-.56.6-.05.36.02.57.17.48.14-.09.35.11.45.44l.19.6.22-.67c.22-.67.22-.67.25-.05.02.4.14.55.34.43.18-.11.24-.07.13.09-.28.45.09,1.13.52.97.21-.08.38-.02.38.14,0,.6.68,0,.71-.64.02-.41.64-1.29,1.61-2.3,2.08-2.17,2.43-2.73,3.22-5.21.72-2.26.89-5.19.4-6.96-.41-1.48-1.94-3.09-3.4-3.57-1.34-.44-4.91-.54-5.41-.15-.18.14-.61.12-1.03-.04-1.04-.4-1.15-.36-1.35.45-.24.96-1.49,2.14-1.78,1.68-.11-.18-.41-.25-.67-.15-.33.13-.38.27-.19.51.15.18.36.91.47,1.62.17,1.18.14,1.28-.36,1.28-.31,0-.63-.12-.71-.26-.09-.14-.49-.25-.89-.24-1,.03-4.12-1.15-3.92-1.48.09-.15.04-.19-.1-.1-.15.09-.8,0-1.46-.19-2-.59-3.49-.71-3.49-.27,0,.21.24.38.54.38s.54.09.54.2.36.37.81.56c.45.2.81.44.81.54s-1.85.17-4.12.15c-2.26-.02-4.33.08-4.59.21-.29.15-.47.14-.47-.02,0-.14-.21-.26-.47-.27-1.02,0-4.36-.32-6.41-.59-2.5-.33-8.79-.05-9.26.42-.08.08-.31,0-.52-.17-.24-.2-1.81-.32-4.48-.34-3.53-.02-4.26.05-5.19.49-.59.29-1.29.51-1.55.51-.26,0-.41.08-.35.18.07.11-.88.76-2.1,1.45-2.19,1.24-3.98,1.64-4.38.98-.09-.15-.52-.27-.96-.27s-.79-.07-.79-.15.36-.88.81-1.78c.93-1.88,1.05-2.93.33-2.93-.46,0-2.06,1.42-2.89,2.57-.25.34-.4.4-.4.18,0-.2.23-.69.51-1.1.29-.4.6-1.06.7-1.46.28-1.13-.39-.91-1.9.62-1.44,1.46-1.78,1.64-1.57.83.09-.33-.05-.62-.39-.8-1.04-.56-1.5-5.57-.61-6.64.16-.19.21-.52.13-.75-.09-.22.04-.6.27-.83.23-.23.4-.52.38-.64-.05-.23.4-1.3.84-1.97.42-.66,1.9-4,1.9-4.31,0-.68-.83-.15-2.31,1.47m100.76-5.4c.09.22.2.41.26.41s.11-.18.11-.41-.12-.41-.26-.41-.19.18-.11.41m-81.01-.18c-.08.12.03.23.24.23s.32-.1.24-.23c-.08-.12-.19-.22-.24-.22s-.17.1-.24.22m-15.82-4.81c-.16.3-.23.54-.15.54s.26-.24.42-.54c.16-.3.23-.54.15-.54s-.26.24-.42.54m5.47-6.14c-.57.72-1.16,2.32-1.65,4.52-.97,4.32-.76,5.96,1.48,11.53,1.91,4.77,2.72,5.93,4.6,6.61.5.18.91.4.91.48,0,.14.78.22,2.9.29,1.68.05,2.79.28,2.63.53-.08.14.18.14.62.02.45-.13.97-.11,1.24.04.26.15.7.2.98.13.28-.07.54-.03.59.08.12.33,8.62,1.38,9.68,1.19,1.3-.23,2.44-.67,3.19-1.24.35-.27.77-.41.92-.31.15.1.2.05.1-.11-.17-.27.54-.74.97-.65.11.02.2-.06.2-.2,0-.5,1.52-1.2,4.45-2.06,3.18-.94,4.96-1.72,5.89-2.58.3-.28.64-.52.74-.52s.25-.26.34-.57c.08-.32.28-.49.44-.38.16.1.26.08.23-.04-.09-.28,1.7-3.97,1.98-4.09.11-.05.14-.26.06-.47-.08-.21-.04-.39.08-.39.13,0,.24-.35.26-.78.02-.43.13-1.01.25-1.28.12-.28.24-.59.28-.7.03-.11.08-.23.11-.27.13-.18.36-2.68.36-4.12,0-1.01-.16-1.95-.44-2.5-.25-.48-.49-.88-.53-.88s-.09.73-.11,1.62c-.02.89-.23,2-.46,2.47-.23.47-.43,1.02-.43,1.23s-.19.44-.41.53c-.23.09-.6.51-.82.95-.23.45-.53.71-.71.6-.17-.1-.23-.06-.13.09.09.15-.07.49-.35.75-.6.54-.89.5-3.78-.55-1.8-.65-2.29-.72-4.46-.6-1.4.08-3.46.43-4.86.83-2.02.57-3.16.71-6.75.8-3.52.09-4.9.25-7.43.86-1.71.41-3.25.86-3.43,1-.2.16-.52.15-.88-.04-.44-.23-.55-.22-.49.05.11.52-2.1.6-3.13.12-.47-.22-1.09-.44-1.39-.49-.65-.11-2.18-1.86-2.69-3.08-.65-1.55-.96-4.43-.68-6.33.32-2.2.32-2.43.03-2.43-.13,0-.36.15-.5.34m-11.56-19.21c-.1.16-.5.24-.88.16-.38-.07-.96-.03-1.29.09-.33.12-1.27.26-2.11.31s-1.51.17-1.51.28-.18.13-.4.04c-.22-.09-.4-.01-.4.16s-.11.25-.24.17c-.13-.08-.55.09-.92.39s-.81.54-.98.54c-.46,0-.34.46.17.66.39.15.4.22.08.42-.3.19-.23.31.34.57.4.18.68.4.62.49-.09.15,3.09.21,4.84.08.45-.03,1.17-.37,1.62-.75.47-.4.59-.59.27-.44-.3.14-.71.19-.92.11-.24-.08-.05-.27.5-.5.48-.2.99-.3,1.12-.22.13.08.24.02.24-.14s.18-.29.4-.29.4-.12.4-.27.18-.27.4-.27.4-.12.4-.27.18-.27.4-.27c.55,0,.51-.36-.09-.9-.56-.51-1.81-.6-2.09-.15m-43.86.16c-.29,3.05.26,10.2.86,11.16.26.42.14-6.8-.17-9.85-.18-1.77-.58-2.52-.69-1.31m61.51-.81c.19.08.43.07.52-.02s-.07-.15-.35-.14c-.31.01-.38.08-.16.16m-20.74-1.13c.33.4,2.97.5,2.97.11,0-.19-1.64-.51-2.67-.51-.54,0-.59.06-.31.4m-33.09-3.78c.11.45.29,1.39.4,2.1.2,1.22.57,2.07.55,1.25-.02-.74-.74-3.79-.94-3.97-.11-.1-.11.18,0,.62m106.66-.29c-1.04.36-2.42.84-3.07,1.09-.97.36-1.78.41-4.48.25-2.35-.13-3.35-.1-3.49.12-.11.18-.95.31-2.05.31-1.84,0-2.6.3-1.69.68.43.18.42.21-.07.4-.3.11-.69.09-.88-.06-.23-.18-.34-.17-.34.04,0,.17.17.38.38.46.21.08.43.35.5.6.15.57,4.79,2.56,7.68,3.29,3.62.92,6.23.96,10.88.18,1.49-.25,3.91-2.04,3.42-2.53-.08-.08-1.45-.18-3.06-.23-4.24-.14-6.31-.39-7.03-.86-.58-.38-.6-.45-.2-.89.24-.26.82-.54,1.29-.63,4.72-.82,6.68-1.24,7.51-1.59.92-.39,1.61-1.01,1.13-1.02-.12,0-1.19-.06-2.38-.13-1.79-.1-2.48-.02-4.05.52m-25.08-.43c-.08.12.03.23.24.23s.32-.1.24-.23c-.08-.12-.19-.22-.24-.22s-.17.1-.24.22m68.57-2.75c-.26.67.03.76.37.12.17-.31.19-.56.05-.56s-.33.2-.42.44m-116.12-6.22c-.3.08-1.75.44-3.23.81-1.48.37-2.76.77-2.83.89-.19.29-1.4.69-1.83.61-.19-.04-.34.04-.34.17s-.4.42-.88.65c-.48.23-1.61,1.03-2.5,1.77-.89.74-2.51,1.92-3.6,2.61-1.42.91-1.94,1.38-1.82,1.68.09.23.16.51.16.63s1,0,2.23-.29c3.35-.76,3.58-.72,5.22.83,1.37,1.29,2,1.64,2,1.1,0-.14-.17-.42-.37-.62-1.27-1.27-1.63-3.7-.72-4.86.6-.77,2.04-1.53,3.69-1.97l1.12-.3.18,1.35c.46,3.43,2.22,5.31,4.99,5.31,1.62,0,4.53-1.05,5.37-1.93.89-.94,1.07-1.52,1.1-3.67.01-.93.1-1.69.19-1.69s.63.37,1.19.81c.56.45,1.51.98,2.09,1.19,1.4.5,3.31,1.48,3.78,1.94.21.21.53.37.73.37s.43.18.51.4c.09.22.41.4.72.4.36,0,.49.11.37.32-.13.21-.05.26.23.15.25-.09.49,0,.58.22.08.21.46.39.85.39s.64.1.56.23c-.17.28,1.55,1.12,2.28,1.12.29,0,.53-.13.53-.28,0-.42-1.14-1.88-1.47-1.88-.46,0-2.3-1.81-2.09-2.06.1-.13.08-.14-.06-.03-.33.27-1.01-.32-.79-.68.1-.15.05-.21-.1-.11-.38.23-2.56-1.42-2.34-1.77.1-.16.05-.21-.1-.11-.15.1-1.42-.48-2.81-1.29-2.38-1.38-4.69-2.26-5.03-1.93-.08.08-.3.02-.49-.13-.36-.3-6.37-.6-7.27-.36m-44.39-19.18c.01.31.08.38.16.16.08-.19.07-.43-.02-.52-.09-.09-.15.07-.14.35m26.87-1.22c-.38.46-.7.96-.7,1.12s.26-.06.59-.49l.84-1.12c.53-.7-.06-.3-.73.49m100.18-6.69c.07,2.39.49,4.5.89,4.5.13,0,.16-.64.07-1.42-.09-.78-.17-1.93-.17-2.56s-.11-1.15-.24-1.15-.17-.17-.09-.38c.08-.21,0-.59-.19-.84-.28-.38-.33-.06-.27,1.85m-8.32-8.66c-.21.33-.78,1.4-1.25,2.36-1.21,2.44-1.72,3.27-3.49,5.6-.64.84-1.27,1.68-1.9,2.52-.31.42-.26.65.34,1.67,1.32,2.26,5.28,3.59,10.02,3.39,1.39-.06,2.61-.19,2.7-.28.09-.09.03-.42-.13-.73-.24-.44-.17-.98.28-2.49.45-1.47.55-2.32.43-3.58-.19-2.03-.81-3.59-1.52-3.81-.29-.09-.6-.38-.68-.63-.08-.25-.39-.61-.69-.8-.45-.28-.66-.27-1.22.1-.62.4-.67.4-.67,0,0-.24-.13-.44-.3-.44s-.23-.18-.15-.4c.08-.22.03-.47-.11-.56-.14-.09-.19-.27-.11-.41.08-.13-.03-.6-.25-1.03-.22-.43-.33-.86-.24-.95.09-.09-.02-.17-.25-.17s-.59.27-.8.61m12.61-10.6c.18,3.05,1.8,10.3,2.21,9.9.08-.08.07-1.4-.04-2.93-.15-2.17-.42-3.46-1.24-5.88l-1.05-3.11.12,2.03Zm8.93-2.62c.1.27.25.42.34.33.08-.08,0-.3-.18-.48-.27-.26-.3-.23-.15.15m11.34-3.68c-.1.26-.1.39,0,.28s.39-.04.62.14c.39.3.39.28.03-.2-.22-.3-.42-.58-.44-.62-.02-.04-.13.14-.23.4m-44.35-2.67c-.87,1.18-2.25,3.77-2.25,4.23,0,.23-.12.42-.27.42s-.27.16-.27.36-.21.78-.47,1.28c-.35.68-.47,1.54-.46,3.28.02,3.06.47,3.6.92,1.1.18-1.01.51-2.12.72-2.45.21-.33.32-.61.24-.61s.11-.43.4-.96c.3-.53.46-1.11.36-1.28-.1-.18-.08-.22.05-.11s.57-.64.98-1.69c1.28-3.22,1.3-5.29.04-3.58m5.04-1.86c0,.15-.27.57-.61.94-.98,1.07-1.28,1.48-1.28,1.77,0,.15-.15.36-.34.48-.5.32-2.72,4.39-2.76,5.08,0,.15-.12.43-.24.63-.3.49-.55,3.42-.34,3.98.15.39.24.4.62.09.66-.54,3.51-6.66,4.3-9.22.37-1.22.78-2.55.91-2.95.13-.43.13-.81-.02-.89-.14-.08-.25-.03-.25.12m-17.45-1.98c-2.66.45-7.21,1.87-7.64,2.39-.51.62.1.78,2.93.77,3,0,4.4-.4,7.11-2.02,2.69-1.6,2.08-1.89-2.4-1.14m33.88,1.41c.07,3.61-.03,5.93-.34,8.14-.58,4.13-.54,7.24.11,10.6.3,1.53.54,2.81.54,2.86,0,.05.09.03.2-.04.11-.07.21.3.22.82.01.52.18,1.04.37,1.16.19.12.29.38.23.58-.12.37.08,1.11,1.24,4.42.89,2.53.89,1.55.04-4.03-.79-5.13-1.38-11.68-1.3-14.33.25-8.04.16-10.53-.42-12.68-.32-1.18-.68-2.24-.79-2.35-.11-.11-.16,2.07-.1,4.85m-8.68-12.2c-.11.1-.19,1.05-.19,2.1,0,2.24-.61,6.56-1.23,8.67-.24.81-.34,1.62-.23,1.79.13.21.08.24-.16.1-.26-.16-.32-.07-.2.36.08.32.05.52-.07.45-.29-.18-.86,1.46-.63,1.83.11.18.04.2-.18.06-.25-.16-.31-.1-.2.19.09.23-.07.57-.36.78-.28.2-.52.49-.52.63s-.19.47-.42.72c-.23.26-.44.71-.46,1.02-.02.31-.1.51-.16.44-.17-.17-3.55,4.77-3.55,5.19,0,.19-.11.35-.24.35-.27,0-.65.82-.47,1,.18.18,1.85-.75,2.5-1.38.32-.31.91-.8,1.31-1.08.41-.28.98-.92,1.27-1.42.3-.5.66-.84.8-.75.15.09.05.41-.24.74-.28.32-.8,1.03-1.17,1.59-.36.56-.76,1.01-.89,1.01-.13,0-.16.18-.08.4.08.22.05.37-.07.34-.31-.09-2.67,2.84-3.01,3.73-.37.98-.2,1.07,1.15.67,2.69-.79,5.42-2.73,7.22-5.11.37-.49.8-1.03.95-1.21.61-.7,2.02-4.21,2.39-5.98.52-2.48.72-5,.43-5.67-.19-.46-.32-.29-.24.31.01.09-.08.25-.2.34-.12.09-.46.65-.75,1.25l-.52,1.08-.16-.94c-.09-.52-.05-1.25.08-1.62.32-.88.39-7,.09-7.7-.13-.3-.28-1-.34-1.57-.12-1.17-.97-3.01-1.26-2.72m-31.51-1.2c-2.12,1.12-6.35,2.54-8.19,2.75-1.52.17-7.05,1.81-8.15,2.42-.3.16-.6.31-.68.32-.07.01-1.43.64-3.01,1.4-3.08,1.47-11.12,6.65-10.81,6.96.1.1.07.16-.08.13-.6-.12-.97.03-.78.32.11.17.08.24-.07.15-.26-.16-.56-.03-3.19,1.47-.74.42-2.08,1.12-2.98,1.56-1.24.61-2.11,1.34-3.61,3.04-2.48,2.81-3.54,4.89-3.54,6.93v1.49l.78-1.2c.43-.66,1.33-1.74,2.01-2.39.68-.66,1.18-1.28,1.12-1.39-.07-.11.09-.18.35-.16.26.02.44-.12.4-.3-.04-.19.08-.31.27-.27.19.04.31-.08.27-.27-.04-.19.02-.32.13-.31.37.05,1.42-.36,1.42-.56,0-.11.46-.43,1.01-.71.56-.28,1.07-.58,1.15-.66s.65-.37,1.28-.65c.63-.28,1.15-.62,1.15-.75s.12-.17.27-.08c.15.09.27.04.27-.12s.09-.27.2-.24c.56.12,1.69-.42,1.69-.82,0-.39.04-.39.27-.04.2.31.26.32.27.04,0-.2.17-.3.38-.22.2.08.48.04.61-.08.3-.29,4.25-1.48,6.72-2.03,3.04-.68,6.61-1.82,6.46-2.06-.08-.12.03-.16.24-.08.21.08.56-.03.78-.24.22-.22,1.58-.95,3.02-1.63,1.75-.83,2.57-1.34,2.44-1.56-.12-.19-.08-.25.09-.14.41.25,1.18-.09.97-.43-.1-.16-.05-.2.12-.1.16.1,1.49-.42,2.94-1.15,2.62-1.32,4.94-2.1,9.67-3.26,3.07-.75,3.65-1.07,2-1.08-.68,0-1.31.07-1.41.16-.09.09-.65.21-1.23.27s-1.41.24-1.83.41c-.42.17-.86.34-.97.37-.12.03-.23.07-.34.12-.07.04-.26.1-.4.14-.15.04-.33.1-.4.14-.11.05-.22.09-.34.12-.11.03-.51.18-.88.33-2,.82-5.67,1.94-6.59,2.02-1.83.16-1.4-.48,1.16-1.71,1.34-.64,2.44-1.25,2.45-1.35.02-.22-.55-.15-1,.13-.19.12-.46.14-.61.04-.15-.09-.27-.03-.27.13s-.15.27-.34.24c-.19-.03-.52.02-.74.11-.67.28-6.76,2.08-7.04,2.08-.14,0-.25-.11-.25-.24,0-.22.9-.62,4.59-2,2.67-1,9.85-4.03,10.28-4.34.89-.63,2.2-1.81,2.1-1.9-.06-.05-.77.27-1.59.7m33.59-1.28c.28,1.1.71,2.12.84,1.99.15-.15-.67-2.65-.87-2.65-.08,0-.06.3.03.66m-48.71-2.03c-1.36.41-6.75,2.77-6.75,2.96,0,.1-.26.21-.58.23-.32.02-.66.15-.74.28-.14.2-.98.64-1.37.71-.66.12-4.82,1.89-4.74,2.02.06.09-.18.18-.52.2-1.38.08-5.05,3.3-4.79,4.2.04.14-.04.19-.17.11-.38-.23-6.79,5.54-6.79,6.11,0,.34.47.24.91-.2.22-.22.54-.41.69-.41s.29-.09.29-.2c0-.11.46-.51,1.01-.88.56-.37,1.16-.81,1.34-.99.18-.17.79-.59,1.35-.93.56-.34,1.31-.9,1.66-1.24.35-.34.74-.56.86-.48s.32-.02.44-.21c.27-.43,1.83-1.34,4.13-2.42.97-.45,1.84-.96,1.95-1.13.11-.17.2-.21.2-.1,0,.22,1.92-.51,2.16-.82.24-.32,2.38-1.41,2.76-1.41.62,0,4.73-2.54,6.28-3.87,1.87-1.62,1.98-2.02.41-1.55m-55.62-4.29c0,.16.12.21.27.12s.27-.22.27-.29-.12-.12-.27-.12-.27.13-.27.29m8.22-.07c-.75.55-1.54,1.16-1.76,1.35-.21.19-1.45,1.13-2.75,2.08s-2.87,2.16-3.49,2.69c-.62.53-1.24.96-1.39.96-.28,0-3.16,2.12-3.47,2.56-.1.14-.25.2-.33.12-.08-.08.06-.39.32-.68.49-.55,3.63-6.69,4.11-8,.15-.41.18-.74.07-.73s-1.29.71-2.63,1.57c-2.24,1.43-2.51,1.7-3.51,3.51-.59,1.08-1.51,2.46-2.03,3.07-1.36,1.59-4.86,6.75-4.86,7.15,0,.19-.09.34-.2.34s-.43.55-.7,1.21c-.29.7-.62,1.14-.78,1.04-.16-.1-.21-.05-.1.13.1.17-.15.82-.56,1.46s-.71,1.31-.67,1.5c.04.19-.12.41-.35.5-.23.09-.35.27-.27.4.08.13.03.24-.11.24s-.31-.15-.37-.32c-.07-.2-.18-.14-.29.15-.11.28-.07.41.09.31.5-.31.27.24-1.21,2.82-1.62,2.85-2.85,5.48-2.85,6.12,0,.24-.13.33-.31.22-.19-.12-.24-.07-.12.12.23.38-.9,3.6-1.2,3.41-.12-.07-.14.12-.06.43.09.34-.08.87-.44,1.36-.32.44-.52.91-.44,1.04.08.13.06.28-.06.33-.11.05-1.32,2.7-2.69,5.9l-2.49,5.81.15,2.83c.09,1.64.33,3.22.57,3.76.23.51.59,1.78.81,2.83.22,1.05.45,1.97.52,2.04.27.27.6-.71.78-2.27.34-3.1,1.16-6.79,2.01-9.07,1.11-2.97,1.72-4.3,1.96-4.31.11,0,.13-.17.05-.37-.08-.2.04-.55.27-.78.22-.22.33-.48.24-.57-.09-.09-.02-.17.16-.17s.26-.12.16-.27c-.09-.15-.06-.27.06-.27.22,0,.95-1.48,1-2.02.01-.15.09-.33.17-.41.08-.07.49-.99.92-2.03,1.22-2.98,5.53-11.58,5.96-11.91.22-.16.31-.38.22-.47-.1-.1,0-.39.23-.65.22-.26.58-.87.78-1.35.21-.48.47-.88.58-.88s.2-.15.2-.34c0-.38,2.15-3.69,3.21-4.94.39-.45.94-1.14,1.22-1.54.29-.39.63-.65.75-.57s.19.03.15-.09c-.04-.13.23-.53.61-.9,2.05-2,4.73-4.41,6.88-6.19,3.47-2.88,5.92-5.24,6.02-5.78.05-.26.52-.91,1.04-1.46.97-1,1.98-2.44,1.98-2.82,0-.37-.4-.19-1.77.82m78.29-1.56c.39,2.9.71,6.63.88,10.46.1,2.3.3,4.12.44,4.12s.19-.18.11-.4c-.08-.22-.02-.48.13-.57.16-.1.21-.53.12-.99-.09-.45-.03-.98.14-1.18.36-.43.11-5.48-.41-8.34-.08-.45-.19-1.08-.24-1.41-.05-.33-.17-.69-.27-.79-.1-.1-.19-.38-.19-.61,0-.24-.2-.67-.43-.97-.4-.51-.42-.47-.26.68m-75.86-3.51c0,.35.09.44.27.27.17-.17.17-.36,0-.53-.17-.17-.27-.08-.27.27m.62-1.73c-.41.22-.9.32-1.08.22-.18-.1-.25-.1-.14.02.1.11-.37.59-1.06,1.06-1.09.74-1.3,1.05-1.7,2.47-.25.89-.55,1.83-.66,2.09-.38.9.34.47,1.63-.94,1.32-1.46,2.15-3,1.87-3.45-.09-.14-.06-.26.06-.27.12,0,.64-.37,1.15-.81,1.04-.89,1.03-.97-.06-.37m23.7-3.86c-1.35.6-4.47,2.31-4.72,2.6-.07.08-.33.27-.58.42-.4.25-1.94,1.51-5.09,4.18-4.43,3.75-5.39,4.66-5.22,4.95.1.17.08.22-.05.11-.22-.2-2.56,1.87-2.56,2.27,0,.11-.37.6-.82,1.09-1.04,1.14-.53,1.35.6.25.47-.46.99-.83,1.16-.83s.57-.36.9-.81c.33-.45.73-.81.9-.81.35,0,1.31-1.04,1.31-1.42,0-.14.18-.19.4-.1.22.09.4.04.4-.09,0-.31,4.66-4.17,8.24-6.82,2.43-1.8,2.5-1.86,3.25-2.54.35-.32.67-.54.72-.49.05.05.76-.5,1.57-1.23,1.64-1.47,1.57-1.6-.41-.73m17.01-6.84c-4.37.35-16.83,2.74-17.17,3.29-.09.14-.27.22-.4.18-.13-.04-.85.18-1.6.5-.74.32-1.46.58-1.59.58-.13,0-.31.1-.4.23-.09.13-1.16.88-2.38,1.67-3.89,2.53-8.1,7.23-7.08,7.9.32.21.31.3-.05.58-.24.18-.42.39-.41.47.04.28-3.53,3.86-4.73,4.75-.69.51-1.94,1.23-2.77,1.6l-1.52.67.18-.7c.16-.64.12-.69-.47-.5-.35.11-1.54.95-2.63,1.85-1.09.91-2.18,1.77-2.42,1.92-.24.15-.56.41-.72.57-.15.17-1.01.83-1.9,1.47-.89.64-1.77,1.3-1.95,1.45-.18.16-.89.71-1.59,1.23-2.76,2.06-5.55,4.71-6.98,6.61-.83,1.1-1.5,2.12-1.5,2.28,0,.08-.03.15-.08.2-.06.06-.12.09-.2.09-.16,0-.22.11-.13.25.08.14,0,.41-.19.61-.19.2-.37.53-.42.73-.04.2-.26.54-.49.77-.23.23-.35.58-.27.78.08.2.04.37-.09.37s-.44.52-.68,1.15c-.58,1.47-3.09,5.93-4.93,8.74-1.23,1.89-3.16,5.67-4.82,9.45-.48,1.09-.53,1.25-.83,2.8-.17.89-.15.92.31.54.6-.5,3.37-4.2,3.37-4.51,0-.12.36-.62.79-1.09.44-.48.73-.87.66-.87-.31,0,3.56-5.17,4.91-6.54.4-.41.83-.67.95-.59.13.08.17-.02.09-.22-.15-.38,1.07-1.62,1.33-1.36.26.26-.38,1.19-3.12,4.59-1.46,1.81-2.66,3.42-2.66,3.58s-.09.28-.2.29c-.3,0-1.23,2.06-1.1,2.44.07.21.54-.06,1.26-.72,2.44-2.23,4.9-4.79,4.9-5.1,0-.24,2.56-3.31,3.35-4.02.31-.28.56-.58.57-.68,0-.09.52-.93,1.15-1.85,1.15-1.69,1.96-2.38,2.36-2.02.12.11.13.04.02-.15-.11-.19,0-.53.23-.76.23-.23.42-.35.42-.25,0,.18,2.83-3.2,6.08-7.26,3.37-4.21,8.98-10.25,8.62-9.28-.1.26-.27.47-.38.47s-.79.88-1.5,1.96c-.71,1.08-2.31,3.38-3.55,5.11-1.24,1.73-2.25,3.23-2.25,3.33,0,.23-9.04,13.81-9.44,14.17-.08.07-.44.68-.81,1.35-1.57,2.9-2.04,3.97-2.47,5.72-.19.79-.54,1.67-.77,1.95-.23.29-.27.43-.08.32.23-.13.34,0,.34.37,0,.31-.11.5-.24.42-.13-.08-.18.08-.11.36.14.55-.38,3.49-.71,3.94-.11.15-.22.68-.25,1.18-.03.5-.18,1.15-.34,1.44-.36.67-.12.94.43.49.35-.29.41-.24.41.32,0,.36-.09.75-.19.86-.26.26-.31,1.52-.06,1.52.11,0,.41-.52.66-1.15.25-.61.49-1.22.75-1.82.28-.67.4-1.04.54-1.69.04-.19.17-.49.29-.68.12-.19.14-.45.06-.59-.09-.14-.03-.33.13-.43.16-.1.26-.38.23-.63-.03-.25.02-.63.1-.85.09-.22.42-1.68.74-3.24.32-1.56.77-3.44,1-4.18.56-1.81,2.68-6.24,3.26-6.84.25-.26.5-.71.55-1,.05-.29.28-.68.52-.87.24-.19.35-.34.25-.34s.24-.61.76-1.35c.52-.74.95-1.44.95-1.55.01-.5,1.8-3.03,2.01-2.84.13.12.14.05.03-.14-.19-.32,1-2.22,1.52-2.44.12-.05.21-.31.21-.59s.24-.57.53-.67c.29-.09.47-.31.4-.5-.14-.38,3.84-4.94,4.22-4.84.14.04.22-.03.18-.15s.75-1.12,1.75-2.21c1-1.1,1.82-2.15,1.82-2.34s.13-.35.29-.35.2.14.09.31c-.12.19-.07.24.12.12.17-.11.25-.31.16-.44-.18-.29.11-.68,1.81-2.43.69-.71,1.35-1.21,1.46-1.11.11.1.11.02,0-.17-.23-.41.33-1.2.69-.98.14.08.21,0,.17-.21-.04-.2.09-.32.28-.28.2.04.29-.03.21-.16-.08-.13.28-.64.79-1.14.51-.5.93-.81.93-.68s.18.07.4-.11c.22-.18.35-.42.28-.53-.07-.11.3-.6.81-1.1.51-.5.93-.8.93-.68s.25-.09.55-.48c.3-.39,1.71-1.25,3.12-1.93,1.41-.67,3.38-1.75,4.37-2.39.99-.64,2.84-1.75,4.1-2.46l2.5-1.42c.11-.06.2-.05.2.02s-.82.71-1.82,1.42c-1,.7-2.03,1.47-2.28,1.7-.92.84-1.28,1.1-1.55,1.1-.15,0-.28.12-.28.27s-.18.27-.4.27-.4.12-.4.27-.18.27-.41.27-.4.12-.4.27-.18.27-.4.27-.4.12-.4.27-.18.27-.4.27-.4.11-.4.24-.36.39-.81.57c-.45.18-.81.44-.81.57s-.18.24-.4.24-.4.11-.4.24-.21.31-.47.4c-.67.23-3.17,2.09-3.83,2.85-.3.35-.55.57-.55.5,0-.41-3.24,3.11-3.77,4.09-.44.83.09.72,1.72-.34.76-.5,2.59-1.55,4.08-2.34,1.49-.79,3.14-1.71,3.68-2.05.54-.34,1.06-.55,1.15-.45.09.09.16.02.16-.15s.26-.32.59-.32.5-.08.41-.18c-.26-.26,1.42-1.21,1.77-1,.17.1.22.06.12-.1-.28-.45,5.87-4.1,6.25-3.72.26.26-.3,1.25-.63,1.12-.25-.1-.31,0-.2.29.12.31.07.37-.19.21-.23-.14-.29-.12-.17.08.25.41,1.71-.13,4.83-1.78,3.39-1.8,4.25-2.31,4.25-2.55,0-.11.16-.2.35-.2s1.74-.8,3.44-1.78c4.14-2.39,5.91-3.03,5.83-2.1-.03.3.4.58,1.39.89l1.43.45-2.92,2.81c-1.6,1.55-2.99,2.79-3.09,2.76-.1-.03-.11.2-.03.51.13.48.3.54,1.19.42.65-.09,1.04-.03,1.04.15,0,.16-.06.23-.14.15-.08-.08-.65.33-1.27.91s-1.3.98-1.5.91c-.2-.08-.3-.03-.22.1.13.21-3.57,2.72-4,2.72-.09,0-.41.25-.72.55-.3.3-.65.49-.78.41-.13-.08-.29,0-.36.19-.07.18-.84.7-1.72,1.15-.87.45-1.64.89-1.72.99-.25.33-5.6,2.98-6.71,3.32-.54.17-.61.12-.47-.32.14-.45.03-.52-.76-.5-.51.01-.87.11-.8.22.07.11,0,.22-.16.24-.16.02-.38.05-.49.07-.76.14-6.42,3.43-8.4,4.88-2.97,2.18-5.81,5.13-5.62,5.85.07.28.02.44-.11.36-.13-.08-.25.31-.25.88,0,.8-.07.94-.29.62-.23-.33-.26-.31-.15.14.35,1.4.48,4.45.2,4.45-.16,0-.3.4-.3.89,0,1.1,1.03,4.24,1.39,4.24.14,0,.19.12.09.27-.09.15-.03.27.13.27s.23.11.15.25c-.09.14-.03.33.12.42.15.09.22.27.14.39-.07.12.11.53.4.9.33.42.47.87.36,1.16-.12.31-.08.41.11.29.26-.16,1,1.38,1.01,2.12,0,.15.08.33.17.4.09.07.24.68.35,1.35l.18,1.22-.72-1.35c-.4-.74-1.6-2.88-2.67-4.74s-2.03-3.65-2.13-3.96c-.1-.31-.36-.71-.57-.89-.34-.28-.39-.14-.39.95s-.06,1.23-.4.95c-.32-.26-.48-.24-.83.1-1.06,1.06-1.86.03-2.46-3.23-.33-1.78-.5-2.23-.77-2.02-.19.15-.4.75-.48,1.32-.15,1.12-1.3,3.84-1.55,3.68-.09-.05-.18.16-.2.47-.02.31-.14.64-.26.72-.12.09-.88,1.56-1.7,3.26-.82,1.71-1.64,3.27-1.82,3.46-.19.2-.29.44-.23.54.06.1-.07.34-.29.55-.34.31-.42.28-.54-.2-.16-.61-1.05-.79-1.11-.23-.05.5-2.42,7.52-2.81,8.3-.47.96-1.34,1.9-1.61,1.73-.13-.08-.17.02-.09.22.21.54-1.5,2.74-1.85,2.39-.33-.33-1.26-.39-1.26-.07,0,.12-.72,1.02-1.6,2.01-.88.99-1.81,2.16-2.07,2.61-.26.44-.57.75-.68.68-.11-.07-.29.02-.4.19-.12.2-.08.24.12.12.17-.11.31-.06.31.1s-.18.36-.4.45c-.22.09-.34.26-.25.4.08.13-.04.32-.27.4-.23.09-.35.27-.27.4.08.13-.05.24-.29.24s-.37.11-.28.25-.02.42-.23.64c-.21.21-.72,1.16-1.13,2.11-1.03,2.4-1.08,5.61-.12,7.87.36.85.76,1.55.89,1.55s.17.11.08.25c-.08.14-.05.29.08.34.13.05.4.41.61.8.21.39.9,1.57,1.54,2.61.64,1.04,1.41,2.54,1.71,3.34l.54,1.44-.82-.95c-1.18-1.36-1.14-1.29-2.5-3.51-2.17-3.52-3.72-7.21-3.31-7.86.08-.13.03-.24-.12-.24s-.34-.36-.44-.81c-.24-1.09-.62-1.26-.84-.39-.51,2.04.53,6.62,2.42,10.63.38.81.63,1.57.55,1.69s-.02.22.12.22c.33,0,.59.79,1.01,3.11.11.59.29,1.21.41,1.36.12.15.21,1.49.21,2.96,0,2.3-.1,2.89-.69,4.13-.39.82-.63,1.72-.56,2.09.07.36.04.6-.07.53-.1-.06-.27-1.68-.37-3.59-.1-1.91-.31-4.25-.46-5.21-.31-1.94-1.85-6.81-2.19-6.95-.12-.05-.15-.2-.07-.34.08-.14.05-.25-.08-.25s-.25-.24-.27-.54c-.02-.3-.24-.74-.48-.98-.24-.24-.37-.6-.3-.81.08-.2.02-.37-.14-.37s-.21-.11-.13-.25c.08-.14.03-.29-.11-.34-.15-.05-.31-.46-.36-.91-.05-.45-.17-.96-.27-1.12-.43-.69-.78-4.72-.63-7.24.17-2.92,1.09-7.5,1.52-7.65.15-.05.2-.2.12-.34-.08-.14-.01-.25.16-.25s.24-.18.16-.41c-.09-.22-.06-.4.07-.4s.41-.49.64-1.08c.3-.76.33-1.08.11-1.08-.21,0-.2-.08.03-.23.3-.19,1.34-2.92,3.31-8.74.29-.85.83-2.23,1.2-3.07.37-.84.67-1.69.67-1.89s.11-.37.24-.37.18-.25.1-.55c-.12-.45-.34-.26-1.35,1.15-1.34,1.88-3.51,6.06-4.27,8.23-.27.77-.61,1.33-.76,1.24-.14-.09-.19-.04-.1.1.17.28-1.59,5.59-2.34,7.04-.25.48-.45.93-.44,1.01,0,.15-.02.38-.11.81-.06.31-.37,1.12-.72,1.89-.14.3-.66,2-1.17,3.78-.92,3.22-.93,3.23-.94,1.76-.03-3.37,1.14-10.14,1.69-9.8.16.1.2-.02.09-.3-.22-.57.96-2.98,2.95-6.05.8-1.23,1.45-2.41,1.45-2.62s.15-.48.34-.6c.38-.24,3.45-6.51,3.44-7.03,0-.56-.41-.39-1.28.54-2.44,2.58-4.1,4.03-4.41,3.84-.19-.12-.27-.1-.17.05.21.34-.99,1.85-1.47,1.85-.2,0-.38.15-.4.34-.02.19-.05.47-.07.62-.02.16-.19.2-.37.09-.19-.11-.25-.1-.15.02.1.12-.27.9-.84,1.73-1.37,2.02-2.25,3.82-2.99,6.11-.34,1.04-.71,2-.83,2.13-.12.13-.15.4-.07.61.08.2.02.37-.14.37s-.23.25-.17.56c.06.31-.07,1.1-.3,1.76-.22.66-.33,1.32-.24,1.46.09.15.05.26-.1.26s-.23.36-.2.8c.03.44-.02.84-.11.88-.15.07-.48,1.53-2.18,9.52-.67,3.14-.66,6.73.02,10.67.37,2.13.54,4.38.55,7.16,0,2.23.13,4.95.27,6.04.33,2.54,1.61,7.95,1.93,8.15.13.09.27.51.3.95.03.43.14.85.24.93.1.08.8,2.39,1.55,5.13,1.35,4.95,1.68,5.95,2.54,7.88.25.55.45,1.1.45,1.21s.42.7.94,1.29c.78.9.98,1.01,1.21.67.45-.66.33-1.86-.66-6.79-1.13-5.6-1.16-5.98-.4-5.02.3.38.54.87.54,1.09s.12.45.27.5c.15.05.29.42.33.82.03.4.11.68.17.62.06-.06.78,1.01,1.6,2.38.82,1.37,1.59,2.52,1.71,2.57.12.05.48.62.79,1.28.32.66.67,1.2.77,1.2s.35.46.55,1.01c.2.56.54,1.23.77,1.48.23.26.33.47.23.47s-.04.27.15.61c.18.33.3.83.26,1.1-.04.27.06.65.22.84.36.43.2,2.94-.25,4.07-.18.45-.52,1.44-.76,2.21-.24.77-.52,1.35-.63,1.28-.11-.07-.13.14-.04.46.1.37.05.52-.13.41-.18-.11-.24.02-.15.35.1.36-.14.78-.74,1.33-.69.63-1.13.8-2.04.8-.64,0-1.3.08-1.45.17-.15.1-.28.02-.28-.17,0-.25-.08-.26-.3-.04-.19.19-.24.79-.13,1.61.09.72.2,1.63.23,2.02s.14.67.24.6c.1-.06.27.15.37.47.1.32.57.97,1.03,1.44.89.9,2.46,3.4,2.73,4.32.13.43.09.42-.16-.07-.18-.33-.43-.61-.56-.61-.26,0-.08.42.48,1.08.74.88,3.03,5.41,3.2,6.33.15.8.51,1.21,1.99,2.32.99.74,2.79,1.82,3.98,2.4,2.01.97,3.17,1.99,3.72,3.27.1.22.13-.38.06-1.35-.12-1.97-.23-2.6-.51-2.87-.1-.1-.19-.48-.19-.83s-.5-1.82-1.11-3.26c-2.04-4.79-2.82-8.23-4-17.6-.94-7.49-1.1-10.26-1.09-19.44,0-9.64.28-14.26.88-15.12.2-.29.42-.48.48-.42.06.06.14-.24.17-.67.03-.43.35-1.43.72-2.22.76-1.65,1.75-4.74,1.97-6.13.32-2.01,1.69-6.84,2-7.03.18-.11.24-.33.14-.5-.1-.16-.03-.57.16-.91.19-.34.31-.7.28-.82-.03-.11.08-.2.24-.2.18,0,.25-.28.17-.67-.07-.37-.04-.68.07-.68.2,0,.42-1.36.67-4.18l.29-3.38c.2-2.28,1.19-5.97,1.55-5.75.15.09.19.04.1-.11-.23-.37,1.12-2.21,2.39-3.25,1.37-1.13,4.16-1.99,6.21-1.92.89.03,1.74.12,1.89.21.15.08.63.17,1.08.2,1.15.07,6.14,1.43,6.58,1.8.21.17,1.06.62,1.89,1.01,1.83.84,3.27,1.68,3.27,1.92,0,.1-.86.38-1.91.64-2.91.71-8.31,3.11-6.99,3.1.22,0,1.58-.36,3.02-.79,3.46-1.04,6.56-1.48,9.1-1.27,2.09.17,4.79.78,5.18,1.17.12.12-1.72.18-4.1.14-3.95-.07-6.03.12-9.38.86-2.24.5-5.78,2.21-7.71,3.72-1.33,1.04-4.21,4.36-4.21,4.85,0,.7.65.22,4.01-2.96,2.48-2.35,5.09-3.73,8.96-4.73,3.59-.93,6.12-1.1,8.87-.61,2.33.42,6.09,2.01,7.77,3.29.47.36,1.17.77,1.55.92.38.14.69.39.69.54s.12.28.27.28c.24,0,.9.47,1.72,1.23.51.48,3.49,2.44,4.42,2.92.48.25,1.3.82,1.82,1.28l.95.83v-.98c0-1.02.92-4.09,1.41-4.68.15-.19.19-.34.09-.34s.07-.36.39-.81c.32-.44.51-.92.42-1.06-.08-.14,0-.3.18-.36.48-.16.48-7.33,0-7.8-.19-.19-.34-.55-.34-.81,0-.46-.32-1.32-1.27-3.4-.26-.56-.45-1.16-.44-1.35.02-.18-.08-.27-.21-.19-.13.08-.24.03-.24-.11,0-.7-2.6-3.06-4.32-3.92-1.02-.51-1.77-1.02-1.67-1.13.1-.11.03-.11-.16,0-.19.11-.5.07-.69-.08s-1.79-.67-3.57-1.15c-2.96-.79-3.57-.87-7.54-.89-3.73-.02-4.65.07-6.75.62-1.34.35-2.73.77-3.1.92-.37.15-.82.26-.99.23-.17-.03-.39.06-.47.2-.09.14-.42.18-.74.1-.36-.09-.52-.05-.41.12.16.26-3.67,1.13-6.84,1.56-3.51.48-5.76,1.44-7.34,3.14-1.28,1.37-1.33.85-.15-1.47,1.48-2.92,2.87-4.02,5.85-4.64,3.63-.76,5.7-1.31,5.7-1.52,0-.12.18-.14.4-.05.22.09.4.01.4-.16s.12-.24.27-.15c.15.09.27.03.27-.13s.12-.23.27-.14c.15.09.27.05.27-.1s.24-.35.54-.44c1.34-.42,4.94-2.68,6.83-4.28,1.04-.88,2.84-2.06,3.14-2.06.16,0,.29-.09.29-.2s.49-.43,1.08-.72c.59-.28,1.08-.62,1.08-.74s.18-.23.4-.23.4-.13.4-.29.12-.21.27-.12c.15.09.27.04.27-.11,0-.4,2.12-1.43,2.48-1.2.17.1.23.07.14-.08-.09-.14.26-.41.77-.6.51-.19.93-.45.93-.59s.13-.25.28-.25c.34,0,.79-.35,2.24-1.77.62-.6,1.85-1.69,2.74-2.42.89-.72,2.14-1.8,2.77-2.4.63-.6,1.15-1.01,1.15-.93s.44-.26.98-.76c1.21-1.15,4.14-3.15,4.6-3.15.19,0,.27-.12.17-.27-.1-.17.03-.2.34-.08.28.11.43.11.33.01-.1-.1-.03-.34.16-.53.49-.49,3.14-1.8,3.14-1.55,0,.11.09.07.2-.09.39-.58,2.94-1.22,6-1.51,1.71-.16,3.43-.46,3.83-.66.4-.2,1.32-.37,2.05-.37s1.38-.06,1.46-.14c.08-.08,2.63-.17,5.67-.2,3.73-.04,5.65-.16,5.91-.37.21-.17.45-.29.54-.27.09.02.72-.31,1.41-.75,1.4-.88,2.55-2.2,3.28-3.73.26-.56.59-1.01.73-1.01s.19-.11.11-.24c-.08-.13.06-.65.32-1.15.44-.86.47-.87.56-.27.05.35-.04.77-.2.93-.16.16-.29.57-.29.92s-.15.89-.34,1.22c-.57,1.01-3.09,4.37-3.69,4.91-.31.28-.56.67-.56.87s-.18.36-.39.36-.55.21-.74.47c-.19.26-.47.48-.62.48-.15,0-.94.15-1.76.31-.82.17-2.15.32-2.97.34-.82.02-1.71.1-1.98.18-.47.14-.47.17-.02.67.26.29.63.47.82.39.19-.07.41-.03.48.09.08.12.64.3,1.25.4,1.66.26,2.85.84,3.36,1.63.92,1.41,1.49,4.5,1.81,9.88.48,8.07.45,9.05-.39,10.8-.94,1.94-1.59,2.64-5.54,5.92-1.82,1.51-3.43,2.98-3.59,3.28-.16.3-.42.46-.59.36-.17-.11-.22-.06-.12.1.1.16-.11.63-.45,1.05-.35.42-.86,1.19-1.15,1.71-.28.52-.58,1.01-.65,1.08-.15.15-.6.96-2.2,3.99-.95,1.78-1.05,2.17-1.09,4.18-.05,2.33.55,4.71,1.3,5.14.21.12.37.37.37.56s.43.58.94.86c1.03.55,1.2,1.09.5,1.6-.69.5-.18.95,1.07.94,1.32,0,1.92-.39,2.16-1.37.16-.65,2.34-2.43,2.34-1.91,0,.4-1.25,1.41-1.48,1.2-.12-.11-.13-.03,0,.17.14.24.05.5-.25.72-.44.32-.44.39-.04.96.24.34.43.5.43.35s.46-.4,1.01-.58c5.18-1.59,5.72-1.8,6.71-2.66.58-.5,1.13-.83,1.23-.72.09.1.39.86.65,1.67.65,2.01,1.54,2.84,3.49,3.24,5.37,1.12,7.56-.19,7.94-4.74l.17-2.02,2.16,1.09c2.17,1.1,3.37,2.17,3.37,3.02,0,.25.13.54.29.63.16.1.23.33.16.52-.08.2.06.33.32.31.27-.02.44.15.42.42-.02.3.1.4.38.29.3-.12.35-.06.18.22-.18.3-.15.32.16.09.39-.29,3.65-.31,3.94-.03.08.08.43.04.77-.09.34-.13.68-.18.75-.11.07.07.34-.2.6-.6.47-.71.46-.73-.37-1.51-.47-.43-.77-.91-.69-1.05.09-.14.06-.23-.06-.19-.39.12-3.31-2.07-3.2-2.4.07-.19-.1-.28-.41-.22-.29.06-.52-.01-.52-.15,0-.48-2.71-1.79-4.72-2.29-1.12-.28-2.03-.61-2.03-.74s-.12-.16-.26-.07c-.15.09-2.18-.03-4.51-.28-3.8-.39-5.71-.38-7.17.04-.82.24-.52-.46.68-1.56,2.46-2.27,7.52-2.76,12.21-1.19,2.69.9,3.7,1.57,6.43,4.25,2.4,2.35,3.44,3.27,3.44,3.04,0-.08.24-.01.54.15.47.25.54.21.54-.4,0-.38-.12-.68-.27-.68s-.27-.17-.27-.38-.19-.45-.43-.54c-.26-.1-.37-.34-.27-.58.09-.23.05-.35-.08-.27-.13.08-.65-.25-1.15-.73-1.34-1.29-2.35-2.09-2.64-2.09-.14,0-.35-.17-.47-.39-.12-.21-.31-.39-.42-.4-.11,0-.81-.32-1.56-.7-2.45-1.24-6-2.03-9.92-2.21-3.25-.15-4.01-.27-2.99-.46.2-.04.91-.23,1.58-.42,1.6-.46,5.7-.2,8.32.53,2.11.59,4.43,1.71,7.47,3.63,2.46,1.55,2.87,1.37,1.22-.56-1.42-1.65-4.32-3.27-8.91-4.97-1.26-.47-2.41-.96-2.54-1.09-.64-.62,2.03-2.23,4.95-2.98,2.43-.63,3.99-.65,5.38-.1,1.12.45,2.28,1.56,1.98,1.9-.1.11-.03.12.15,0,.21-.12.53.14.86.7.29.49.66,1.04.82,1.23.16.19.23.34.15.34s.1.24.39.54c.3.3.54.7.54.9s.35,1.02.79,1.82c.43.81,1.49,3.11,2.35,5.11.86,2,1.66,3.69,1.78,3.74.12.05.15.21.06.35-.09.14.06.59.33.99s.52,1.02.55,1.38c.03.36.18.73.34.82.15.09.33.47.4.83.07.36.15.69.18.73.03.04.08.16.11.27.03.11.13.38.22.61.78,1.92,1.71,8.14,2.1,14.04.37,5.48.2,18.78-.31,24.33-.29,3.23-.28,4.07.13,6.88.53,3.71.82,4.42,1.88,4.78.87.29,3.68-.21,3.68-.65,0-.14-.27-.19-.61-.1-.58.14-.65-.02-1.37-3.17-1.2-5.2-1.23-5.39-1.25-6.97-.01-1.8.61-4.35,1.38-5.59.54-.88,2.37-2.34,2.62-2.1.07.07.22.75.34,1.53.32,2.03.71,2.31,1.91,1.38.53-.41,1.1-1.11,1.28-1.56l.32-.81.38.67c.21.37.39,1,.39,1.4.02,1.19.47,1.11.63-.12.08-.62.31-1.26.51-1.41.53-.42,1.63-1.97,2.72-3.84.91-1.57,3.08-4.53,4.41-6.03.45-.5.67-1.26.89-2.97.51-4.08.68-10.23.32-12.32-.29-1.71-.26-2.25.26-4.86.32-1.62.58-3.16.57-3.43,0-.27.1-.8.24-1.16.17-.44.16-.61-.02-.5-.15.09-.27.37-.28.62-.02.92-.54-.41-1.07-2.71-.28-1.23-.87-3.63-1.31-5.34s-.88-3.96-.97-4.99l-.18-1.88,1.09,2.13c1.2,2.34,1.23,2.44.79,2.16-.17-.1-.03.18.3.63.36.48.52.96.4,1.16-.13.21-.1.27.08.16.16-.1.37.06.46.36.25.78,1.48,1.67,2.07,1.48.44-.14.5,0,.49,1.28,0,.79-.18,1.74-.4,2.11-.62,1.09-.46,1.26.26.29.65-.88.66-.99.71-6.87.08-10.68.07-10.83-1-12.89-.51-.99-1-2.15-1.07-2.56s-.25-.89-.39-1.06c-.14-.17-.17-.38-.08-.47.09-.09.05-.33-.1-.52-.15-.19-.34-.62-.42-.95q-.15-.6,1.11.11c.69.39,1.78,1,2.41,1.36.63.36,1.08.76,1,.9-.09.14.02.18.24.1.22-.08.47-.02.57.14.34.54.94.29,1.4-.59.52-1.01.32-2.41-.89-6.24-.66-2.1-2.04-8.52-2.03-9.41,0-.25-.16-.6-.38-.78-.47-.39-.52.04-.06.5.25.25.25.32,0,.32-.18,0-.34-.15-.36-.34-.03-.25-.06-.5-.1-.74-.03-.22-.07-.55-.1-.72-.02-.18-.31-.36-.64-.4-.35-.05-.64-.31-.7-.63l-.09-.54.42.54c.23.3.42.4.43.24,0-.17-.17-.46-.4-.64-.22-.18-.4-.26-.4-.16s-.3-.02-.67-.27c-.37-.24-.61-.54-.54-.66.07-.12.04-.26-.07-.31-.4-.18-3.58-3.95-3.58-4.24,0-.17-.13-.3-.3-.3s-.23-.18-.15-.39c.09-.24.02-.34-.18-.27-.45.17-2.16-2.76-1.99-3.41.07-.29.04-.46-.07-.4-.17.1-1.27-2.06-1.85-3.64-.08-.22-.43-.78-.78-1.24-.75-1-.83-1.59-.1-.71.28.34.58.5.67.36.08-.14-.24-.6-.72-1.02-.48-.43-1.47-1.47-2.19-2.32-.72-.85-2.06-2.09-2.97-2.75-.91-.66-2.24-1.76-2.95-2.43s-1.36-1.23-1.45-1.23-.6-.41-1.14-.92c-.54-.5-2.01-1.82-3.27-2.93-1.26-1.11-2.54-2.35-2.84-2.77-.3-.41-.75-.95-1.01-1.18-.26-.23-.47-.58-.47-.77s-.12-.35-.27-.35-1.4-1.13-2.77-2.51c-2.3-2.32-3.87-3.76-5.18-4.78-.46-.36-.5-.36-.29,0,.12.22.44.65.69.94.25.3.61,1.13.78,1.86.18.72.67,2.1,1.11,3.05.81,1.8,4.2,7.17,4.62,7.33.13.05.24.2.24.34s.67,1.15,1.49,2.26c1.45,1.96,1.76,2.51,1.22,2.17-.16-.1-.2.02-.1.28.11.3.23.34.36.13.12-.2.44.03.9.62.39.51.66.98.6,1.04-.06.06.14.27.45.46.53.33.55.31.39-.35-.1-.41-.06-.7.1-.7.41,0,4.66,3.86,5.54,5.04.43.57,1.1,1.37,1.48,1.78.73.76,2.21,3.37,2.56,4.48.19.61.18.62-.47.19l-.67-.44.24,1.16c.85,4.14,1.58,8.16,1.58,8.65,0,.54-.04.53-.78-.17-.56-.54-.82-.65-.91-.39-.09.24-.44.03-1.08-.66-.85-.9-1.03-.99-1.66-.75-.64.24-.76.18-1.25-.6-.52-.85-2.15-5.63-2.15-6.33,0-.19-.1-.35-.22-.35s-.2-.27-.17-.61-.14-.84-.38-1.13c-.24-.29-.28-.43-.1-.32.49.29.41-.02-.23-.9-.31-.43-.51-.88-.43-1,.08-.13-.04-.47-.27-.77-.38-.49-.39-.33-.21,1.76.29,3.19.34,3.6.81,6.32.23,1.32.36,2.46.29,2.52-.17.17-1.1-1.94-1.8-4.07-.56-1.7-1.26-2.28-.93-.76.09.39.2,1.38.26,2.19.3,4.28-1.56-4.3-2.02-9.31-.16-1.78-.46-3.92-.65-4.75-.42-1.81-1.73-4.85-2.27-5.26-.24-.18-.3-.44-.17-.67.12-.21.12-.29,0-.18-.3.27-2.61-3.06-2.44-3.51.08-.2.03-.29-.1-.21-.13.08-.58-.55-1.01-1.4-.43-.85-.9-1.64-1.04-1.75-.18-.13-.18-.2,0-.21.18,0,.18-.07,0-.21-.15-.11-.63-.99-1.08-1.95-.45-.97-.9-1.8-1.01-1.85-.11-.05-.14-.2-.05-.34.08-.14.02-.25-.13-.25s-.29-.14-.29-.3c0-.71-2.61-4.13-4.48-5.88-2.47-2.3-4.62-3.75-8.88-5.97-1.84-.96-3.68-1.92-5.51-2.89-2.11-1.12-7.43-2.74-7.8-2.37-.08.08-.3,0-.5-.16-.24-.2-.36-.2-.36-.02,0,.15.33.4.74.55.41.15.58.28.39.29-.19.01-.28.14-.19.29.24.39.13.36-1.92-.58-2.06-.94-3.68-1.37-8.07-2.16-3.39-.61-12.48-.88-17.01-.52m11.71-5.8c-.07.07-.73.18-1.47.24-.73.06-3.7.44-6.6.85-3.83.54-5.6.91-6.5,1.36-.72.36-2.03.7-3.17.81-1.19.12-2.43.44-3.22.84-.75.38-1.32.53-1.38.37-.11-.32-.61-.39-.56-.08.08.53-.07.64-.45.32-.35-.29-.41-.28-.34.02.09.39-2.59,1.17-3.22.94-.19-.07-.34,0-.34.14s-.21.26-.47.26c-.72,0-3.04.94-6.09,2.47-1.52.76-2.79,1.36-2.83,1.33-.04-.03-.65.23-1.35.57-1.48.72-5.87,4.9-5.6,5.34.12.19.45.1.97-.27.44-.31.79-.51.79-.44s.45-.29,1-.79c.55-.5,1.14-.91,1.31-.91s.63-.3,1.03-.66c1.28-1.19,3.14-2.34,3.46-2.15.18.11.24.07.14-.08-.2-.33,1.18-.95,3.73-1.67,2.12-.6,6.8-1.63,8.23-1.82.51-.07,1.01-.25,1.1-.4.09-.15.28-.25.41-.22.13.03.56-.03.94-.14.38-.11.87-.23,1.08-.27.21-.04.73-.22,1.15-.39.42-.17.87-.31,1-.31s.19-.23.14-.51c-.11-.56,1.13-.89,7.23-1.92,1.75-.3,3.41-.66,3.68-.8.27-.14.55-.2.62-.13.07.07.48,0,.91-.17.43-.17,1.17-.3,1.66-.3.48,0,.88-.1.88-.21s.36-.16.81-.11c.45.05.81-.02.81-.15s.25-.28.55-.33c.3-.05.55-.2.56-.35.01-.3-.4-.49-.6-.29M108.3.16c-.22.08-.6.32-.84.53-.24.21-.55.35-.67.31-.13-.04-.48.07-.78.23-.3.17-.63.31-.75.32-.41.04-1.82.86-1.82,1.05,0,.11-.89,1.11-1.97,2.22-1.76,1.81-5.32,6.83-5.32,7.51,0,.14-.2.88-.45,1.64s-.37,1.47-.26,1.57c.22.22,2.33-1.79,2.33-2.22s1.22-1.52,1.45-1.29c.11.11.12,0,.04-.22-.11-.28.25-.79,1.07-1.52.68-.6,1.23-1.18,1.23-1.29,0-.75,5.77-7.31,6.38-7.25.2.02.3-.07.22-.2-.08-.13.04-.24.27-.24s.42-.18.42-.4.13-.41.29-.41.21-.12.12-.27c-.18-.29-.33-.31-.95-.08"/>
  </g>
</svg>