<?xml version="1.0" encoding="UTF-8"?>
<svg id="Layer_2" data-name="Layer 2" xmlns="http://www.w3.org/2000/svg" viewBox="0 0 324 324">
  <defs>
    <style>
      .cls-1, .cls-2 {
        stroke-width: 0px;
      }

      .cls-2 {
        fill: #fff;
      }
    </style>
  </defs>
  <g id="Layer_1-2" data-name="Layer 1">
    <g>
      <path class="cls-2" d="m324,324c-108,0-216,0-324,0C0,216,0,108,0,0c108,0,216,0,324,0,0,108,0,216,0,324Zm-188.07-153.69c0,.11,0,.22,0,.33-.69,0-1.38-.03-2.07,0-3.23.17-6.5.11-9.69.6-5.36.82-9.73,3.5-12.93,7.96-.19.27-.35.56-.53.85.06.06.12.13.19.19.3-.2.62-.36.89-.6,1.2-1.06,2.34-2.21,3.59-3.22,4.99-4.02,10.74-5.59,17.03-4.72,4.57.64,8.26,3.29,11.89,5.96,2.39,1.75,4.87,3.36,7.1,4.89.55-1.72,1.05-3.46,1.67-5.15.61-1.66,1.53-3.2,1.46-5.09-.08-2.17.12-4.35-.71-6.44-.93-2.33-1.56-4.81-3.57-6.55-1.62-1.42-3.38-2.65-5.44-3.29-2.26-.7-4.54-1.45-6.87-1.81-5.67-.88-11.14.27-16.55,1.91-2.1.64-4.26,1.16-6.43,1.53-3.05.52-6.02,1.13-8.19,3.6-.13.14-.35.2-.54.31-.05-.14-.11-.21-.09-.25,1.12-3.2,2.76-5.84,6.44-6.59,2.94-.6,5.93-1.08,8.53-2.78,2.06-1.35,4.2-2.58,6.27-3.92,2.12-1.37,4.17-2.83,6.28-4.22.89-.59,1.84-1.09,2.77-1.63,1.28-.74,2.68-1.32,3.81-2.24,2.96-2.41,5.74-5.04,8.72-7.43,2.19-1.77,4.5-3.42,6.9-4.89,1.84-1.13,3.88-1.98,6.09-2.22,1.18-.13,2.36-.29,3.53-.46,2.69-.38,5.37-.88,8.08-1.11,2.52-.22,5.07-.13,7.61-.22,2.8-.1,4.84-1.58,6.37-3.78.7-1,1.16-2.17,1.73-3.26.17-.32.34-.63.51-.94.22.3.33.58.25.78-.52,1.32-.94,2.72-1.68,3.92-.95,1.52-2.11,2.91-3.3,4.25-.6.68-1.38,1.41-2.2,1.62-1.6.41-3.29.46-4.95.67-.54.07-1.09.16-1.78.27.82,1.1,1.93,1.19,2.86,1.32,2.72.38,4.17,1.91,4.42,4.53.44,4.56.8,9.14,1.15,13.71.24,3.09-1.03,5.56-3.31,7.55-1.4,1.23-2.84,2.41-4.24,3.64-1.01.88-2.19,1.67-2.92,2.75-1.53,2.28-2.75,4.77-4.23,7.09-1.38,2.18-1.53,4.51-1.25,6.95.19,1.69.9,3.15,2.24,4.18,1.3,1,1.34.94.47,2.24,1.18.87,2.76.5,3.37-.78.48-1.02,1.3-1.64,2.36-2-.23.46-.56.81-.94,1.1-.92.7-1.09,1.54-.41,2.12,2.97-1.32,6.4-1.53,8.98-4.04.35.92.63,1.6.86,2.29.51,1.54,1.54,2.5,3.14,2.78,1.07.18,2.16.38,3.24.42,2.64.09,4.06-1.06,4.59-3.68.22-1.08.3-2.19.46-3.42,2.47,1.35,5.22,2.09,6.09,5.24.17.63.94,1.39,2.07,1.23,1.03-.14,2.1.07,3.16.06.56,0,1.16-.05,1.67-.27.77-.33.71-1.07.24-1.79-.83-1.29-2.22-1.87-3.27-2.86-1.06-.99-2.2-1.87-3.52-2.43-2.41-1.02-4.83-2.06-7.53-1.98-.29,0-.57-.06-.86-.08-2.87-.2-5.74-.78-8.63-.09-.1.02-.22-.06-.46-.14.24-.36.41-.66.63-.91.98-1.13,2.22-1.89,3.66-2.21,5.27-1.16,10.08-.24,14.22,3.38,1.31,1.14,2.49,2.41,3.79,3.56.52.46,1.2.75,1.8,1.11l.27-.23c-.11-.33-.19-.68-.34-.99-.61-1.24-1.68-2.07-2.68-2.97-1.78-1.6-3.75-2.85-6-3.7-3.33-1.26-6.82-1.5-10.32-1.7-.45-.02-.9-.09-1.35-.14.12-.24.23-.3.34-.33,3.69-1.12,7.37-.75,10.87.56,2.44.92,4.68,2.37,7.01,3.59.44.23.9.44,1.35.66.08-.11.16-.22.23-.33-.77-.79-1.47-1.69-2.35-2.34-1.1-.81-2.32-1.51-3.56-2.09-1.95-.9-3.97-1.65-5.95-2.49-.88-.37-.97-.76-.24-1.27,2.6-1.82,5.5-2.75,8.7-2.51,1.48.12,2.62.91,3.47,2.15.86,1.25,2.03,2.34,2.65,3.7,2.12,4.61,4.13,9.28,6.04,13.99.86,2.12,1.61,4.33,2.02,6.57,1.95,10.67,1.58,21.43,1.06,32.18-.2,3.99-.51,7.94.45,11.88.54,2.21,2.98,2.98,4.93,1.36-1.1.33-1.24-.39-1.39-1.01-.55-2.31-1.1-4.62-1.57-6.95-.5-2.44-.11-4.8.85-7.06.57-1.34,1.59-2.25,3.05-2.88.22,1.01.38,1.88.6,2.74.17.69.63.91,1.22.46.48-.36.92-.8,1.31-1.26.29-.34.46-.78.83-1.46.35,1.14.61,1.99.88,2.87.34-.81.58-1.61,1-2.3.58-.96,1.31-1.82,1.96-2.73,1.62-2.27,3.25-4.54,4.84-6.83.34-.49.69-1.05.77-1.62.74-4.81,1.1-9.63.5-14.49-.08-.63-.12-1.29-.02-1.92.37-2.37.81-4.72,1.24-7.18-.17.26-.3.44-.44.66-1.19-2.3-3.57-13.38-3.12-15.05.85,2.01,1.55,3.83,2.38,5.58.52,1.1,1.07,2.27,2.59,2.38.18.01.49.42.48.63-.04,1.04-.17,2.08-.27,3.08.74-.64.7-1.61.71-2.51.06-3.53.02-7.07.09-10.6.06-2.83-.23-5.53-1.64-8.09-.74-1.35-1.02-2.96-1.51-4.45l.26-.24c1.45.91,2.89,1.84,4.35,2.73.45.27,1.08.69,1.44.55.42-.17.7-.84.91-1.34.14-.33.1-.77.03-1.14-.18-1.01-.42-2.01-.65-3.01-.82-3.59-1.6-7.2-2.5-10.77-.19-.75-.82-1.39-1.28-2.06-.07-.11-.3-.1-.44-.18-.16-.1-.39-.2-.44-.35-.36-1.07-1.37-1.62-2-2.48-1.43-1.94-3.1-3.7-4.52-5.65-.61-.84-.79-1.99-1.28-2.94-.96-1.88-2-3.72-3.01-5.58-.05-.09-.03-.21-.05-.42.36.27.62.47.88.67-.05-.32-.2-.55-.38-.74-2.22-2.32-4.4-4.66-7.01-6.59-1.65-1.22-3.21-2.58-4.69-4-2.88-2.77-5.65-5.64-8.5-8.44-1.69-1.67-3.43-3.3-5.15-4.93-.39-.37-.82-.69-1.26-1.05.43.94.82,1.77,1.19,2.62.76,1.73,1.31,3.58,2.28,5.17,1.87,3.06,3.97,5.98,5.96,8.97.28.42.44.91.71,1.46,1.24,0,1.06,1.84,2.21,2.25.02-.4.03-.74.05-1.11,2.76,1.26,9.85,8.92,9.69,11.76-.32-.16-.62-.31-.97-.49.61,3.33,1.22,6.58,1.82,9.87-.31,0-.4.03-.42,0-.92-.94-2.46-.9-3.24-2.1-.1-.16-.62-.18-.89-.09-.63.22-1.01-.04-1.25-.56-.41-.9-.82-1.82-1.14-2.75-.65-1.9-1.23-3.82-1.85-5.72-.32-.99-.66-1.98-.99-2.98-.13.03-.25.06-.38.09.43,3.42.86,6.84,1.29,10.26-.1.03-.2.06-.3.09-.74-1.82-1.49-3.64-2.23-5.47-.07.03-.14.05-.21.08.12,1.26.23,2.52.35,3.78-.1.02-.2.03-.3.05-.12-.41-.29-.82-.35-1.24-.59-3.7-1.28-7.4-1.72-11.12-.38-3.19-1.48-6.07-3.07-8.79-1.23-2.11-2.63-4.13-3.95-6.19-.17-.27-.33-.54-.48-.82-1.24-2.33-2.33-4.76-3.76-6.97-1.92-2.97-4.53-5.36-7.57-7.17-2.92-1.74-5.9-3.41-8.96-4.88-2.36-1.13-4.88-1.92-7.35-2.81-.54-.2-1.17-.17-1.66-.23.12.44.22.76.33,1.17-2.03-.72-3.81-1.46-5.66-1.97-4.3-1.18-8.73-1.4-13.17-1.59-6.8-.3-13.45.68-20.08,2.05-4.35.9-8.59,2.03-12.2,4.83-2.27,1.76-4.47,3.56-6.15,5.93-.43.61-.83,1.23-.25,1.93-4.46,5.55-7.36,7.01-9.65,7.65.02-.35.03-.68.06-1.26-.65.39-1.19.65-1.65,1.01-2.5,1.91-4.96,3.88-7.47,5.77-5.26,3.97-10.28,8.06-12.86,14.5-1.25,3.13-3.29,5.94-4.9,8.93-1.91,3.56-3.77,7.14-5.58,10.76-.45.91-.59,1.98-.88,2.97.09.04.17.08.26.13.29-.32.62-.62.88-.96,1.31-1.78,2.58-3.6,3.92-5.35,2.16-2.84,4.36-5.64,6.57-8.44.19-.24.51-.39.77-.58.09.07.17.14.26.21-.24.42-.43.87-.72,1.26-1.84,2.43-3.72,4.83-5.52,7.28-.44.59-.66,1.35-.98,2.03.1.06.2.12.3.17.35-.27.73-.51,1.03-.83,1.81-1.94,3.62-3.89,5.4-5.86,1.1-1.21,2.35-2.34,3.19-3.72,1.11-1.83,2.52-3.36,3.94-4.92,1.64-1.8,3.23-3.64,4.83-5.47,3.09-3.52,6.18-7.05,9.28-10.57.25-.28.57-.49.85-.73-.15.51-.48.81-.73,1.17-2.2,3.16-4.43,6.31-6.58,9.5-3.14,4.66-6.2,9.37-9.33,14.04-2.23,3.33-3.71,6.95-4.43,10.9-.42,2.32-.94,4.63-1.4,6.94,0,.05.05.11.08.16.26-.06.51-.13.92-.23-.17.95-.32,1.76-.47,2.57l.27.06c.16-.34.33-.68.49-1.02,1.24-2.65,2.01-5.45,2.46-8.31.93-5.96,3.52-11.2,6.76-16.19.96-1.47,2.05-2.87,2.84-4.43,1.21-2.39,2.81-4.5,4.48-6.55,1.58-1.93,3.31-3.73,5.04-5.53.64-.66.85-1.73,1.88-2.02.49-2.05,2.57-2.83,3.6-4.52,1-1.64,2.83-2.72,4.14-4.23.86-.99,2.03-1.76,3.18-2.43,3.99-2.33,8.03-4.58,12.05-6.86.16-.09.35-.12.52-.18-1.82,1.57-3.71,3-5.64,4.36-2.08,1.47-4.17,2.93-6.31,4.3-2.91,1.87-5.53,4.05-7.65,6.81-.22.28-.37.61-.55.92.54-.03.9-.2,1.25-.4,3.14-1.74,6.29-3.47,9.43-5.23,1.06-.59,2.09-1.22,3.12-1.86,1.8-1.11,3.58-2.24,5.38-3.34.24-.14.56-.14.84-.21.05.07.11.15.16.22-.19.31-.38.61-.58.91-.1.15-.21.3-.31.44.2.03.42.12.59.07.52-.17,1.03-.36,1.51-.62,3.01-1.63,6-3.3,9.01-4.92,1.83-.99,3.68-1.97,5.55-2.9.64-.32,1.37-.7,1.8.39.09.22.53.33.82.45.55.22,1.12.4,1.86.66-1.98,1.85-3.83,3.57-5.66,5.31-.2.19-.26.51-.38.78.26.12.52.31.79.35.42.06.85.02,1.27.02.02.09.05.19.07.28-6.17,4.35-12.43,8.56-19.56,11.52-.06-.48-.09-.71-.15-1.2-1.05.38-2.04.6-2.89,1.08-2.52,1.42-5.06,2.81-7.42,4.46-1.75,1.22-3.27,2.78-4.81,4.28-1.18,1.15-1.46,2.76-1.55,4.3-.08,1.41.45,2.85-.23,4.25-.12.25-.07.66.03.94.74,2.02,1.52,4.03,2.28,6.04.2.52.32,1.1.64,1.55,1.01,1.43,1.22,3.07,1.35,4.78-1.98-3.54-3.97-7.08-5.95-10.63-.08.03-.16.06-.25.08-.04.62-.09,1.24-.13,1.78-.44.06-.84,0-1.12.17-1.01.56-1.42.52-1.81-.56-.41-1.14-.64-2.35-.95-3.52-.1-.37-.23-.73-.35-1.1-1.61,5.14-4.61,9.47-6.8,14.2-.53-.45-.86-.72-1.18-.99-.19.38-.43.74-.57,1.14-.64,1.85-1.23,3.72-1.88,5.56-.49,1.38-.86,2.85-2.26,3.69-.1.06-.09.29-.17.42-.33.55-.64,1.1-1.01,1.62-.3.41-.66.62-1.24.37-.25-.1-.81.12-1,.37-1.46,1.9-3.25,3.54-4.39,5.7-.51.98-1.36,1.77-1.92,2.73-2.14,3.67-2.56,7.4-.26,11.2,1.12,1.86,2.21,3.74,3.25,5.64.5.91.86,1.89,1.29,2.83-.08.04-.16.07-.24.11-3.57-4.04-5.89-8.76-7.32-13.98-.7,1-.65,2.05-.41,3.02.56,2.3,1.15,4.6,1.93,6.83.8,2.28,2.02,4.4,2.33,6.85.02.16.1.31.13.46.52,2.32.57,4.64-.14,6.93-.29.94-.62,1.87-.93,2.8-.05-.16-.15-.39-.17-.62-.09-.96-.18-1.92-.21-2.88-.15-4.18-.87-8.22-2.66-12.04-.67-1.43-1.32-2.88-1.8-4.37-1.22-3.8-1.13-7.69-.71-11.62.36-3.34,1.98-6.22,3.01-9.31,1.43-4.26,3.08-8.43,4.64-12.65.14-.39.28-.77.41-1.16-.33.05-.51.17-.64.33-2.55,3.27-4.14,7.08-5.75,10.83-1.26,2.93-2.1,6.04-3.1,9.08-.73,2.19-1.43,4.39-2.15,6.58-.1.3-.22.59-.34.89-.08-.03-.16-.06-.23-.08.03-4.67.62-9.24,2.77-13.46,1.1-2.17,2.42-4.22,3.58-6.36,1.15-2.11,2.22-4.26,3.31-6.4.14-.28.17-.61.31-1.12-.36.2-.53.24-.62.35-1.74,2.05-4.03,3.51-5.75,5.58-.32.38-.89.55-1.17.95-.69,1-1.24,2.09-1.92,3.1-1.85,2.78-2.83,5.93-3.8,9.07-.51,1.65-.57,3.44-.93,5.15-.5,2.32-1.08,4.62-1.64,6.92-.89,3.68-1.3,7.37-.88,11.17.39,3.57.59,7.16.87,10.74.16,1.98.09,4.02.52,5.94.83,3.68,1.87,7.31,2.95,10.93,1.17,3.93,2.42,7.84,3.76,11.72.32.93,1.14,1.69,1.81,2.64.75-1.01.57-1.86.43-2.65-.48-2.78-1.04-5.55-1.54-8.33-.09-.47-.09-.96-.14-1.45.09-.03.19-.06.28-.09.26.42.56.81.76,1.25.33.72.5,1.52.91,2.18,1.94,3.2,4,6.33,5.88,9.57,1.02,1.75,1.61,3.76,1.17,5.78-.45,2.07-1.32,4.04-1.88,6.09-.29,1.05-.83,1.88-1.79,2.18-.99.31-2.09.31-3.38.47.13,1.12.12,2.45.49,3.67.25.84,1.04,1.51,1.57,2.27.92,1.33,1.83,2.67,2.75,4.01-.08.06-.16.12-.24.18-.18-.15-.37-.31-.42-.35,1.05,2.06,2.32,4.16,3.21,6.41.57,1.45,1.44,2.45,2.67,3.26.64.42,1.29.84,1.95,1.23,1.87,1.12,4.05,1.8,5.37,4.07.06-2.84-.69-5.18-1.55-7.49-.55-1.47-1.2-2.91-1.67-4.41-1.99-6.42-2.76-13.08-3.2-19.73-.46-7.07-.3-14.18-.42-21.28-.06-3.58.54-6.99,1.95-10.32,1-2.38,1.58-4.93,2.36-7.41.92-2.94,1.94-5.85,2.74-8.82.45-1.68.55-3.46.81-5.19.38-2.57.55-5.19,1.2-7.68.88-3.34,3.06-5.62,6.56-6.49,1.93-.48,3.79-.27,5.72.01,4.12.6,7.81,2.22,11.35,4.32.18.11.32.29.6.56-3.16.98-6.25,1.8-8.98,3.56,5.65-1.62,11.28-3.17,17.1-.93Zm12.61,153.42c1.64,0,3.11,0,4.59,0,12.18.01,24.36.03,36.54.04,3.97,0,4.05.07,6.54-2.98,2.22-2.73,4.22-5.63,6.33-8.45,1.19-1.59,2.44-3.13,3.55-4.77,1-1.48,1.86-3.07,2.77-4.61.09-.16.13-.37.12-.56-.04-1.22-.05-2.44-.15-3.65-.21-2.87-.52-5.74-.68-8.62-.11-1.98,1.11-3.3,2.53-4.55.1.22.15.35.21.48.09,0,.17-.02.26-.03,0-2.73-.02-5.46,0-8.18.02-2.27.41-4.47,1.25-6.59,1.32-3.34,2.7-6.66,3.96-10.03,1.21-3.24,2.26-6.54,3.44-9.79.38-1.05.78-2.15,1.45-3.02,1.19-1.57,1.35-2.45.32-4.1-.32.2-.61.48-.95.57-1.98.51-3.49,1.74-4.7,3.29-1.43,1.83-2.72,3.78-4.01,5.72-1.06,1.6-2.06,3.21-4.27,3.33-.49-.72-4.1-.31-5.8.71-.59.36-2.23,3.64-1.99,4.1.21-.03.43-.06.77-.11-.1.49-.16.9-.27,1.29-.11.4-.25.78-.3.93.28.41.54.62.56.85.07.73,0,1.48.06,2.21.51,5.54-2.22,9.95-5.09,14.27-.79,1.18-1.97,2.11-2.98,3.14-1.11,1.13-2.43,1.71-4.04,1.76-.78.02-1.54.34-2.46.56-.24-.28-.64-.79-1.07-1.27-1.15-1.29-3.45-1.51-4.84-.43-1.11.85-2.34,1.35-3.73,1.4-3.21.13-6.42.28-9.5,1.34-.39.13-.81.19-1.23.24-5.7.68-11.39,1.36-17.09,2-.25.03-.55-.34-1-.64-.69-.27-1.58-.64-2.48-.97-.16-.06-.4.07-.59.13-1.25.36-2.46.4-3.61-.35-.94-.62-1.88-1.22-2.84-1.81-.75-.46-1.54-.87-2.3-1.32-1.44-.85-2.61-2.18-4.4-2.43-.73-.1-1.45-.28-2.16-.5-.85-.27-1.77-.48-2.48-.96-1.27-.85-2.53-1.74-3.27-3.19-.35-.67-.96-1.21-1.44-1.81-.06-.07-.16-.19-.14-.24.41-.87-.49-.73-.71-1.06,0-.45-.12-.87-.24-1.28-.06-.2-.24-.49-.16-.6.44-.6.18-1.05-.17-1.56-.37-.56-.46-1.05.4-1.32.17-.05.34-.79.24-.87-1.07-.83-.39-1.4.23-2.01.17-.17.3-.38.47-.59-.51-.17-3.16.53-3.41.86.14.07.28.13.46.21-.48.78-.98,1.34-1.06,2.38-.12,1.63-.22,3.23.24,4.75.81,2.66,1.81,5.26,2.79,7.87.75,2.01,1.62,3.98,2.4,5.98.62,1.58,1.09,3.23,1.8,4.77.98,2.12,2.59,3.82,4.53,5.01,1.3.8,2.31,1.78,3.29,2.86.47.52.81,1.15,1.21,1.73,1.01,1.48,1.98,2.99,3.05,4.42.39.52,1.03.89,1.59,1.27.55.37,1.44.51,1.69,1,.6,1.18,1.56,1.79,2.7,2.32-.15.11-.29.21-.46.33.33.13.73.16.89.37.59.79,1.14,1.63,1.65,2.48.77,1.28,1.49,2.58,2.23,3.87.06.11.17.19.27.27.79.56.83,1.62,1.48,2.28.03.03-.08.2-.13.31-.66-.03-1.27-1.35-1.89,0,.71.16,1.45.27,1.26,1.56Zm-63.62-28.82c-.07-.05-.14-.1-.21-.14-.44.36-.88.71-1.3,1.09-.94.83-1.86,1.68-2.82,2.49-1.12.93-2.53.85-3.52.17-.82-.55-1.36-.4-2.04-.15-3.91,1.45-7.85,2.84-11.7,4.43-1.45.6-2.74,1.63-4.04,2.54-1.98,1.38-3.92,2.84-5.88,4.25-.13.09-.29.12-.44.19-.92.43-1.88.8-2.76,1.3-1.39.79-2.67,1.81-4.11,2.5-3.97,1.9-8,3.65-11.99,5.51-3.11,1.45-6.35,2.42-9.78,2.69-.26.02-.6.4-.69.69-.12.37-.03.8-.03,1.15h82.78c-.02-.22,0-.29-.03-.34-.2-.36-.41-.73-.62-1.09-2.92-4.85-4.95-10.05-6.17-15.59-.99-4.52-.5-8.73,2.14-12.61.43-.63.8-1.32,1.12-2.02.58-1.28.86-2.61.55-4.03-.12-.53-.29-.8-.9-.66-3,.7-6.01,1.36-9.01,2.06-.9.21-1.76.48-1.92,1.65-.05.36-.46.68-.73.99-.98,1.15-1.99,2.27-2.94,3.44-2.83,3.48-5.19,7.19-5.83,11.76-.36,2.57-.68,5.15-1.04,7.73-.07.48-.22.94-.33,1.41-.09,0-.19,0-.28,0-.13-.51-.37-1.02-.38-1.54-.04-1.92-.09-3.85.03-5.77.25-4.14,1.49-7.98,3.64-11.54.49-.81.83-1.7,1.24-2.55Zm135.79,28.66c21.11.34,42.35.14,63.61-.04-.25-.14-.52-.21-.78-.31-2.18-.82-4.37-1.59-6.52-2.48-1.18-.49-2.33-1.12-3.41-1.82-2.01-1.3-4.14-2.51-5.86-4.14-1.07-1.01-2.11-1.52-3.47-1.75-.93-.16-1.9-.35-2.75-.76-5.41-2.6-10.77-5.28-16.17-7.91-3.57-1.74-7.2-3.35-10.73-5.16-1.68-.86-3.22-2-4.76-3.09-3.49-2.46-6.94-5-10.91-6.66-1.88-.79-3.85-1.41-5.82-1.96-1.21-.34-2.83,1.52-2.34,2.65.6,1.36,1.19,2.73,2.51,3.67,1.93,1.38,3.78,2.88,5.6,4.41,1.94,1.63,3.48,3.58,4.38,6,1.18,3.16,1.06,6.41.3,9.58-.78,3.23-1.87,6.38-2.89,9.76Zm-89.35-83.5c-.44-.72-.92-1.3-1.17-1.98-.63-1.68-.89-3.47-.37-5.2.54-1.78,1.34-3.48,2.06-5.2.57-1.36,1.21-2.7,1.81-4.05-.1-.07-.2-.14-.29-.21-.37.27-.77.51-1.1.82-1.44,1.37-2.89,2.73-4.27,4.17-1.04,1.09-2.11,2.19-2.9,3.45-2.36,3.8-1.9,8.02-1.07,12.05.58,2.81,1.93,5.5,3.16,8.14.62,1.34,1.68,2.49,2.62,3.66.54.67.88.57,1.19-.22.18-.47.28-.98.51-1.43.34-.67.71-1.34,1.18-1.92.19-.24.73-.42,1.01-.34.86.27,1.77.55,2.48,1.07,1.29.94,2.69,1.13,4.18.94,3.12-.4,6.23-.38,9.31.19,3.67.68,7.34.65,11.04.39,1.42-.1,2.88-.24,4.27-.02,3.22.52,6.45.78,9.67.32,2.5-.36,4.94-1.12,7.42-1.63,2.76-.57,5.49-1.17,8.04-2.49.99-.51,2.18-.64,3.3-.87.24-.05.64.13.79.33.27.36.42.82.62,1.26q-.88.48.12,1.66c.11-.13.22-.27.28-.34.54.68,1.06,1.34,1.54,1.96.95-1.28,1.64-2.48,2.59-3.43,2.73-2.72,3.56-6.1,3.57-9.76,0-2.71-1.37-5-3.55-5.5-1.71-.4-3.55-.23-5.33-.31-.43-.02-.9.08-1.3-.05-.69-.24-1.02-.13-1.27.61-.43,1.27-.95,1.54-2.21,1.45-.11,0-.23.08-.33.12.18.85.39,1.65.52,2.46.11.69-.24.95-.91.72-.36-.12-.71-.27-1.07-.38-1.04-.31-2.09-.58-3.13-.9-1.43-.43-2.84-.92-4.27-1.32-.47-.13-1-.02-1.5-.02,0,.06,0,.12,0,.19.82.49,1.64.98,2.71,1.62-.64.08-.97.16-1.3.16-3.56.02-7.12.23-10.69-.14-3.28-.34-6.59-.52-9.89-.5-2.22,0-4.42.25-6.65,0-1.65-.18-3.34-.1-5.01-.02-1.65.08-3.14.66-4.53,1.58-2.33,1.54-4.67,3.18-7.7,1.39.1-.25.24-.59.39-.93.36-.86.74-1.7,1.05-2.58.09-.26-.05-.6-.08-.9-.29.07-.62.07-.85.22-.4.26-.76.59-1.1.93-.49.48-.94,1-1.55,1.66.07-1.38,1.41-2.13,1.03-3.63-1.14,1.01-2.15,1.91-3.07,2.73Zm10.02-31.6c-.08-.03-.16-.06-.24-.1-.22.24-.52.45-.64.74-1.39,3.19-2.49,6.54-1.66,9.99.72,3,2.01,5.87,3.15,8.76,1.13,2.87,3.42,4.09,6.42,4.16.86.02,1.73.11,2.59.22.39.05.76.3,1.15.34.91.1,1.83.08,2.74.2,2.76.38,5.52.78,8.27,1.2,2.13.33,4.01-.5,5.58-1.67,1.77-1.32,3.64-2.23,5.73-2.86,1.53-.46,3.04-1.03,4.51-1.66,1.39-.6,2.59-1.58,3.25-2.91,1.02-2.07,2.07-4.11,2.6-6.43.45-2,.71-3.97.62-5.99-.03-.73-.38-1.44-.59-2.16-.12.01-.23.02-.35.03.41,3.23-1.16,5.61-3.24,7.74-.27.27-.79.44-1.19.42-.53-.03-1.07-.22-1.56-.44-2.67-1.22-5.43-1.27-8.21-.61-3.23.77-6.48,1.34-9.81,1.32-3.02-.02-5.93.58-8.82,1.38-.74.2-1.39.66-2.3.38-.54-.17-1.3.51-1.92.44-3.08-.34-4.93-1.58-5.9-4.8-.59-1.96-.62-3.99-.32-6.02.08-.55.1-1.11.14-1.67Zm19,67.35v-.14c1.83,0,3.68.18,5.48-.04,3.72-.45,7.43-1.08,11.13-1.69.67-.11,1.39-.36,1.91-.76.92-.73,1.72-1.62,2.56-2.46,2.1-2.12,4.75-3.63,6.62-6.01.31-.4.51-.89.87-1.24.73-.72,1.05-2.46.3-3-.5-.36-.75-.8-1.09-1.22-.43-.54-.78-.57-1.12.11-.14.28-.34.58-.59.73-1.15.67-2.32,1.32-3.51,1.91-1.63.82-3.37,1.45-4.92,2.4-4.16,2.53-8.71,3.25-13.47,3.34-3.89.07-7.38-1.34-10.99-2.5-2.91-.93-5.99-1.37-9-1.96-.82-.16-1.97.8-1.78,1.39.28.83.55,1.71,1.05,2.4,1.05,1.46,2.2,2.84,3.38,4.19,2.64,3,5.95,4.61,10,4.55,1.06-.01,2.12,0,3.18,0Zm-60.31-179.6c-.11-.06-.21-.11-.32-.17-2.9,1.25-4.67,2.8-6.23,5.44-.38.63-.75,1.28-1.21,1.85-2.94,3.69-5.47,7.64-7.6,11.84-.32.63-.53,1.31-.88,1.91-.97,1.66-2.07,3.25-2.98,4.94-.96,1.79-1.86,3.62-2.62,5.5-.87,2.13-1.47,4.37-2.36,6.5-1.49,3.58-3.14,7.1-4.66,10.67-.25.59-.32,1.29-.34,1.94-.11,3.06.82,5.95,1.59,8.86.12.45.24.9.36,1.34.09,0,.17.01.26.02.13-.57.29-1.13.39-1.7.37-2.02.66-4.05,1.08-6.06.95-4.54,3.29-8.53,5.13-12.72,2.62-5.98,5.55-11.79,8.79-17.47,1.76-3.09,3.82-5.91,6.36-8.37,1.98-1.92,4.03-3.78,6.16-5.54,3.2-2.65,6.22-5.45,8.55-8.93.3-.45.57-.92.85-1.38-.09-.07-.17-.14-.26-.21-4.85,3.59-9.69,7.18-14.75,10.92,1.66-3.24,3.18-6.23,4.71-9.22Zm35.01,81.14c.18,0,.25-.01.3.02,2.37,1.33,4.74,2.66,7.11,3.99.57.32,1.13.65,1.7.98.97.57,1.94,1.15,2.92,1.7.72.4,1.43.92,2.65.5-.65-.71-1.13-1.29-1.67-1.8-.55-.52-1.19-.96-1.76-1.47-.5-.45-.9-1.05-1.46-1.4-1.75-1.07-3.29-2.44-5.19-3.32-1.92-.89-3.76-1.81-5.91-2.11-5.58-.79-10.86.13-15.71,2.91-2.63,1.51-5.01,3.47-7.46,5.28-.31.23-.4.77-.59,1.16.09.08.19.16.28.24.65-.12,1.33-.16,1.95-.36,2.37-.78,4.47-.61,6.14,1.5.24.3.67.44,1.01.66.05-.08.11-.15.16-.23-.26-.35-.53-.7-.78-1.06-1.07-1.55-1.13-3.62-.06-4.63,1.28-1.21,2.9-1.65,4.62-2.02.48,3.04.83,6.12,4.66,6.56,1.85.22,3.55-.47,5.14-1.35,2.34-1.31,1.52-3.77,1.94-5.75Zm71.01,6.25c-.03-.09-.07-.18-.1-.27-2.46-.36-4.9-.43-7.23.65-2.35,1.1-4.82,1.08-7.35,1.04-2.18-.03-4.37.37-6.56.58-.06,0-.11.05-.2.1.16.2.31.4.58.75h-1.67c.65.6,1.13,1.26,1.78,1.6,4.46,2.3,9.14,3.79,14.25,3.3,2.13-.2,4.34-.24,6.08-1.78.3-.27.55-.61,1.02-1.14-1.01-.05-1.67-.08-2.34-.13-2.24-.17-4.49-.28-6.72-.55-.6-.07-1.15-.62-1.72-.95.58-.35,1.11-.87,1.74-1.02,2.12-.51,4.28-.85,6.41-1.34.71-.16,1.36-.55,2.04-.84Zm-41.42-110.94c-.03-.15-.05-.31-.08-.46-.67.09-1.33.18-2,.28-3.56.51-7.13.94-10.67,1.55-1.88.33-3.71.95-5.56,1.46-1.2.33-2.39.7-3.59,1.02-.42.11-.87.12-1.31.17-.35.17-.71.26-1.05.38-.72.26-1.41.58-2.14.8-1.45.44-2.96.71-4.35,1.28-2.05.83-3.96,1.99-6.03,2.78-2.89,1.09-4.9,3.21-6.92,5.38-.14.15-.23.36-.44.71.37-.12.6-.13.76-.25,1.53-1.04,3.09-2.04,4.57-3.16,2-1.51,4.09-2.83,6.54-3.5.99-.27,1.99-.52,2.98-.77,3.62-.92,7.24-1.84,10.87-2.76.21-.05.57-.14.59-.26.24-1.24,1.33-1.19,2.17-1.37,4.11-.84,8.24-1.58,12.35-2.4,1.12-.22,2.2-.58,3.31-.88Zm-32-1.58c-.07-.12-.13-.23-.2-.35-.41.17-.83.33-1.24.52-.26.12-.47.4-.73.45-2.16.43-3.76,1.66-5.06,3.39-1.7,2.25-3.55,4.4-5.1,6.75-.79,1.2-1.06,2.75-1.56,4.14.14.08.27.16.41.24.6-.6,1.23-1.17,1.78-1.8,1.07-1.23,2.1-2.51,3.15-3.76.25-.29.57-.53.77-.85,1.82-2.87,4.02-5.38,6.65-7.53.42-.34.76-.78,1.13-1.18Zm79.57,165.97c2.4-3.24,3.75-8.67,2.5-10.55-.67,1.64-2.53,2.16-3.17,3.84-.26.69-1.18,1.11-1.54,1.78-.73,1.39-1.29,2.87-1.91,4.31,1.42-.03,2.92-.69,4.12.62Zm-91.59-44.15c1.98,1.29,6.95,1.23,7.48-.05-.24-.06-.48-.13-.82-.22,1.55-.8,2.97-1.53,4.43-2.28-.52-.97-1.24-1.22-2.1-1.08-1.43.23-2.85.63-4.29.73-1.9.13-3.56.75-5.14,1.84.25.2.46.38.67.56-.08.18-.16.34-.23.49Zm-8.73-104.13c-2.91.79-4.48,2.82-4.76,6.17,1.33-1.11,2.51-2.23,3.07-3.73.37-1.01.77-1.87,1.7-2.44Zm16.81,99.22c0-.13.02-.27.02-.4-.87-.09-1.73-.19-2.6-.28-.02.15-.03.29-.05.44.87.08,1.75.16,2.62.25Z"/>
      <path class="cls-1" d="m135.93,170.31c-5.82-2.25-11.45-.7-17.1.93,2.73-1.77,5.82-2.59,8.98-3.56-.28-.27-.42-.45-.6-.56-3.53-2.09-7.23-3.72-11.35-4.32-1.93-.28-3.79-.5-5.72-.01-3.5.88-5.68,3.15-6.56,6.49-.66,2.49-.82,5.12-1.2,7.68-.26,1.73-.35,3.51-.81,5.19-.8,2.97-1.82,5.88-2.74,8.82-.78,2.47-1.36,5.03-2.36,7.41-1.41,3.33-2.01,6.75-1.95,10.32.12,7.09-.04,14.21.42,21.28.43,6.65,1.21,13.31,3.2,19.73.46,1.5,1.12,2.94,1.67,4.41.86,2.31,1.62,4.65,1.55,7.49-1.32-2.27-3.49-2.95-5.37-4.07-.66-.4-1.31-.81-1.95-1.23-1.23-.8-2.1-1.8-2.67-3.26-.88-2.25-2.15-4.35-3.21-6.41.06.05.24.2.42.35.08-.06.16-.12.24-.18-.92-1.34-1.82-2.68-2.75-4.01-.53-.76-1.32-1.43-1.57-2.27-.37-1.22-.36-2.55-.49-3.67,1.29-.16,2.38-.16,3.38-.47.97-.3,1.51-1.13,1.79-2.18.56-2.05,1.43-4.02,1.88-6.09.44-2.02-.15-4.03-1.17-5.78-1.88-3.23-3.94-6.37-5.88-9.57-.4-.67-.58-1.47-.91-2.18-.2-.44-.5-.84-.76-1.25-.09.03-.19.06-.28.09.04.48.05.97.14,1.45.51,2.78,1.06,5.55,1.54,8.33.14.79.32,1.64-.43,2.65-.67-.96-1.48-1.71-1.81-2.64-1.34-3.88-2.59-7.79-3.76-11.72-1.07-3.62-2.12-7.25-2.95-10.93-.43-1.92-.37-3.95-.52-5.94-.28-3.58-.47-7.17-.87-10.74-.42-3.8-.01-7.49.88-11.17.56-2.31,1.15-4.6,1.64-6.92.36-1.71.42-3.49.93-5.15.97-3.14,1.95-6.29,3.8-9.07.67-1.01,1.22-2.11,1.92-3.1.27-.4.85-.57,1.17-.95,1.72-2.06,4.02-3.53,5.75-5.58.09-.11.26-.15.62-.35-.14.51-.17.85-.31,1.12-1.09,2.14-2.17,4.29-3.31,6.4-1.16,2.14-2.48,4.2-3.58,6.36-2.16,4.23-2.74,8.8-2.77,13.46.08.03.16.06.23.08.11-.3.24-.59.34-.89.72-2.19,1.42-4.39,2.15-6.58,1.01-3.04,1.85-6.15,3.1-9.08,1.61-3.76,3.2-7.56,5.75-10.83.13-.16.31-.29.64-.33-.14.39-.27.78-.41,1.16-1.56,4.21-3.22,8.39-4.64,12.65-1.03,3.09-2.65,5.97-3.01,9.31-.42,3.94-.51,7.82.71,11.62.48,1.5,1.13,2.95,1.8,4.37,1.79,3.82,2.51,7.86,2.66,12.04.03.96.13,1.92.21,2.88.02.23.13.46.17.62.31-.94.64-1.86.93-2.8.7-2.29.66-4.61.14-6.93-.04-.16-.11-.31-.13-.46-.31-2.45-1.54-4.57-2.33-6.85-.78-2.23-1.37-4.53-1.93-6.83-.24-.97-.29-2.02.41-3.02,1.43,5.22,3.74,9.94,7.32,13.98.08-.04.16-.07.24-.11-.43-.95-.79-1.92-1.29-2.83-1.04-1.9-2.13-3.78-3.25-5.64-2.3-3.8-1.87-7.53.26-11.2.56-.96,1.41-1.75,1.92-2.73,1.14-2.16,2.93-3.8,4.39-5.7.19-.25.75-.47,1-.37.59.25.95.04,1.24-.37.37-.52.68-1.07,1.01-1.62.08-.13.07-.35.17-.42,1.41-.83,1.77-2.31,2.26-3.69.65-1.85,1.24-3.71,1.88-5.56.14-.4.38-.76.57-1.14.33.27.65.54,1.18.99,2.19-4.73,5.18-9.06,6.8-14.2.12.37.25.73.35,1.1.32,1.17.54,2.38.95,3.52.39,1.08.8,1.12,1.81.56.28-.16.68-.11,1.12-.17.04-.54.08-1.16.13-1.78.08-.03.16-.06.25-.08,1.98,3.54,3.97,7.08,5.95,10.63-.13-1.71-.34-3.35-1.35-4.78-.31-.44-.44-1.03-.64-1.55-.77-2.01-1.54-4.02-2.28-6.04-.1-.29-.16-.69-.03-.94.68-1.4.14-2.84.23-4.25.09-1.54.37-3.15,1.55-4.3,1.54-1.5,3.06-3.06,4.81-4.28,2.36-1.65,4.91-3.04,7.42-4.46.85-.48,1.84-.7,2.89-1.08.06.49.09.72.15,1.2,7.12-2.96,13.38-7.17,19.56-11.52-.02-.09-.05-.19-.07-.28-.42,0-.86.04-1.27-.02-.27-.04-.53-.23-.79-.35.12-.26.19-.59.38-.78,1.83-1.75,3.69-3.47,5.66-5.31-.74-.26-1.3-.44-1.86-.66-.29-.12-.73-.22-.82-.45-.43-1.09-1.16-.71-1.8-.39-1.87.93-3.71,1.91-5.55,2.9-3.01,1.63-6,3.29-9.01,4.92-.48.26-1,.45-1.51.62-.17.06-.39-.04-.59-.07.11-.15.22-.29.31-.44.2-.3.38-.61.58-.91-.05-.07-.11-.15-.16-.22-.28.07-.61.06-.84.21-1.8,1.1-3.58,2.23-5.38,3.34-1.03.64-2.06,1.27-3.12,1.86-3.14,1.75-6.28,3.49-9.43,5.23-.35.2-.72.37-1.25.4.18-.31.34-.63.55-.92,2.11-2.76,4.73-4.94,7.65-6.81,2.14-1.37,4.23-2.84,6.31-4.3,1.93-1.36,3.83-2.78,5.64-4.36-.18.06-.37.09-.52.18-4.02,2.28-8.06,4.52-12.05,6.86-1.15.67-2.32,1.44-3.18,2.43-1.31,1.5-3.14,2.59-4.14,4.23-1.03,1.69-3.11,2.47-3.6,4.52-1.03.29-1.24,1.36-1.88,2.02-1.73,1.79-3.46,3.6-5.04,5.53-1.67,2.05-3.27,4.16-4.48,6.55-.79,1.56-1.88,2.96-2.84,4.43-3.24,4.98-5.83,10.22-6.76,16.19-.45,2.86-1.22,5.67-2.46,8.31-.16.34-.33.68-.49,1.02l-.27-.06c.15-.81.3-1.63.47-2.57-.41.1-.66.17-.92.23-.03-.06-.09-.12-.08-.16.47-2.31.98-4.62,1.4-6.94.71-3.95,2.2-7.57,4.43-10.9,3.13-4.67,6.19-9.38,9.33-14.04,2.15-3.2,4.38-6.34,6.58-9.5.25-.36.58-.66.73-1.17-.29.24-.61.45-.85.73-3.1,3.52-6.18,7.05-9.28,10.57-1.6,1.83-3.2,3.67-4.83,5.47-1.42,1.56-2.82,3.09-3.94,4.92-.84,1.38-2.09,2.51-3.19,3.72-1.78,1.97-3.59,3.92-5.4,5.86-.3.32-.69.55-1.03.83-.1-.06-.2-.12-.3-.17.32-.68.54-1.44.98-2.03,1.81-2.45,3.69-4.85,5.52-7.28.29-.38.48-.84.72-1.26-.09-.07-.17-.14-.26-.21-.26.19-.58.33-.77.58-2.2,2.8-4.4,5.61-6.57,8.44-1.34,1.76-2.6,3.58-3.92,5.35-.26.35-.58.64-.88.96-.09-.04-.17-.08-.26-.13.28-1,.42-2.06.88-2.97,1.8-3.61,3.67-7.2,5.58-10.76,1.61-2.99,3.64-5.8,4.9-8.93,2.57-6.44,7.6-10.53,12.86-14.5,2.51-1.9,4.97-3.86,7.47-5.77.46-.35,1-.61,1.65-1.01-.03.57-.05.91-.06,1.26,2.28-.64,5.18-2.1,9.65-7.65-.59-.7-.18-1.32.25-1.93,1.68-2.36,3.88-4.17,6.15-5.93,3.61-2.8,7.85-3.93,12.2-4.83,6.62-1.37,13.28-2.35,20.08-2.05,4.44.19,8.87.41,13.17,1.59,1.85.51,3.63,1.25,5.66,1.97-.11-.4-.21-.73-.33-1.17.5.06,1.12.03,1.66.23,2.47.89,4.99,1.68,7.35,2.81,3.06,1.47,6.04,3.15,8.96,4.88,3.05,1.81,5.65,4.2,7.57,7.17,1.43,2.21,2.52,4.64,3.76,6.97.15.28.31.55.48.82,1.32,2.06,2.72,4.08,3.95,6.19,1.59,2.72,2.69,5.6,3.07,8.79.44,3.72,1.12,7.42,1.72,11.12.07.42.23.83.35,1.24.1-.02.2-.03.3-.05-.12-1.26-.23-2.52-.35-3.78.07-.03.14-.05.21-.08.74,1.82,1.49,3.64,2.23,5.47.1-.03.2-.06.3-.09-.43-3.42-.86-6.84-1.29-10.26.13-.03.25-.06.38-.09.33.99.67,1.98.99,2.98.62,1.91,1.2,3.83,1.85,5.72.32.94.73,1.85,1.14,2.75.23.52.61.78,1.25.56.26-.09.78-.07.89.09.77,1.2,2.32,1.16,3.24,2.1.03.03.12,0,.42,0-.61-3.29-1.21-6.54-1.82-9.87.35.18.65.33.97.49.16-2.83-6.92-10.5-9.69-11.76-.02.37-.03.71-.05,1.11-1.15-.42-.97-2.26-2.21-2.25-.26-.55-.43-1.04-.71-1.46-1.99-2.99-4.09-5.9-5.96-8.97-.97-1.6-1.53-3.44-2.28-5.17-.37-.84-.76-1.68-1.19-2.62.44.36.88.68,1.26,1.05,1.73,1.63,3.46,3.26,5.15,4.93,2.84,2.8,5.62,5.67,8.5,8.44,1.48,1.42,3.04,2.78,4.69,4,2.6,1.92,4.79,4.27,7.01,6.59.19.19.33.42.38.74-.26-.2-.53-.4-.88-.67.02.21,0,.33.05.42,1,1.86,2.04,3.7,3.01,5.58.49.95.66,2.1,1.28,2.94,1.42,1.95,3.09,3.71,4.52,5.65.63.86,1.64,1.41,2,2.48.05.15.27.26.44.35.14.08.36.07.44.18.46.67,1.09,1.31,1.28,2.06.9,3.57,1.68,7.18,2.5,10.77.23,1,.46,2,.65,3.01.07.37.11.81-.03,1.14-.21.51-.49,1.18-.91,1.34-.35.14-.99-.28-1.44-.55-1.47-.88-2.9-1.81-4.35-2.73l-.26.24c.49,1.49.77,3.1,1.51,4.45,1.41,2.57,1.7,5.26,1.64,8.09-.08,3.53-.04,7.07-.09,10.6-.01.9.03,1.87-.71,2.51.1-1,.23-2.04.27-3.08,0-.21-.3-.62-.48-.63-1.51-.12-2.07-1.28-2.59-2.38-.83-1.76-1.53-3.57-2.38-5.58-.45,1.67,1.93,12.75,3.12,15.05.14-.21.27-.4.44-.66-.43,2.46-.87,4.81-1.24,7.18-.1.62-.05,1.29.02,1.92.6,4.86.24,9.68-.5,14.49-.09.57-.43,1.13-.77,1.62-1.59,2.29-3.22,4.56-4.84,6.83-.65.91-1.38,1.78-1.96,2.73-.42.69-.65,1.49-1,2.3-.27-.87-.53-1.72-.88-2.87-.38.67-.55,1.11-.83,1.46-.39.46-.83.9-1.31,1.26-.59.45-1.04.23-1.22-.46-.22-.86-.38-1.74-.6-2.74-1.46.63-2.48,1.54-3.05,2.88-.96,2.26-1.35,4.63-.85,7.06.48,2.33,1.03,4.64,1.57,6.95.15.61.29,1.33,1.39,1.01-1.95,1.62-4.39.85-4.93-1.36-.96-3.93-.65-7.89-.45-11.88.53-10.75.89-21.52-1.06-32.18-.41-2.24-1.16-4.46-2.02-6.57-1.91-4.71-3.92-9.37-6.04-13.99-.62-1.35-1.79-2.45-2.65-3.7-.85-1.24-1.99-2.03-3.47-2.15-3.2-.25-6.09.69-8.7,2.51-.74.51-.64.9.24,1.27,1.98.84,4,1.59,5.95,2.49,1.24.58,2.46,1.28,3.56,2.09.88.65,1.57,1.55,2.35,2.34-.08.11-.16.22-.23.33-.45-.22-.91-.43-1.35-.66-2.33-1.21-4.57-2.67-7.01-3.59-3.5-1.31-7.18-1.68-10.87-.56-.11.03-.22.09-.34.33.45.05.9.12,1.35.14,3.5.19,6.99.44,10.32,1.7,2.24.85,4.22,2.1,6,3.7,1,.9,2.06,1.74,2.68,2.97.15.31.23.66.34.99l-.27.23c-.61-.36-1.28-.65-1.8-1.11-1.3-1.15-2.49-2.42-3.79-3.56-4.14-3.62-8.95-4.54-14.22-3.38-1.44.32-2.68,1.08-3.66,2.21-.22.25-.39.55-.63.91.24.08.36.16.46.14,2.89-.69,5.76-.11,8.63.09.29.02.58.09.86.08,2.71-.08,5.13.96,7.53,1.98,1.32.56,2.46,1.43,3.52,2.43,1.05.99,2.45,1.56,3.27,2.86.46.72.52,1.47-.24,1.79-.51.22-1.11.26-1.67.27-1.05.01-2.13-.2-3.16-.06-1.13.16-1.9-.6-2.07-1.23-.86-3.15-3.62-3.89-6.09-5.24-.16,1.23-.24,2.34-.46,3.42-.54,2.62-1.95,3.77-4.59,3.68-1.08-.04-2.17-.23-3.24-.42-1.61-.28-2.63-1.24-3.14-2.78-.23-.69-.51-1.37-.86-2.29-2.58,2.52-6.01,2.73-8.98,4.04-.68-.59-.51-1.42.41-2.12.38-.29.71-.65.94-1.1-1.06.36-1.88.98-2.36,2-.6,1.28-2.19,1.65-3.37.78.87-1.3.82-1.24-.47-2.24-1.35-1.04-2.05-2.49-2.24-4.18-.28-2.44-.13-4.77,1.25-6.95,1.48-2.32,2.69-4.81,4.23-7.09.73-1.08,1.91-1.86,2.92-2.75,1.4-1.23,2.84-2.42,4.24-3.64,2.29-1.99,3.55-4.46,3.31-7.55-.35-4.57-.7-9.15-1.15-13.71-.26-2.62-1.7-4.15-4.42-4.53-.93-.13-2.04-.22-2.86-1.32.7-.1,1.24-.2,1.78-.27,1.65-.21,3.35-.26,4.95-.67.82-.21,1.6-.94,2.2-1.62,1.19-1.34,2.35-2.74,3.3-4.25.74-1.19,1.16-2.59,1.68-3.92.08-.2-.03-.48-.25-.78-.17.31-.35.63-.51.94-.57,1.09-1.03,2.26-1.73,3.26-1.53,2.2-3.58,3.67-6.37,3.78-2.54.09-5.09,0-7.61.22-2.7.23-5.39.74-8.08,1.11-1.18.16-2.35.33-3.53.46-2.21.24-4.25,1.08-6.09,2.22-2.4,1.48-4.71,3.13-6.9,4.89-2.97,2.39-5.75,5.02-8.72,7.43-1.13.92-2.54,1.5-3.81,2.24-.93.54-1.87,1.04-2.77,1.63-2.11,1.39-4.17,2.85-6.28,4.22-2.07,1.34-4.21,2.57-6.27,3.92-2.6,1.71-5.59,2.18-8.53,2.78-3.68.75-5.32,3.39-6.44,6.59-.02.04.04.11.09.25.19-.11.41-.17.54-.31,2.17-2.48,5.14-3.08,8.19-3.6,2.17-.37,4.33-.89,6.43-1.53,5.41-1.64,10.89-2.79,16.55-1.91,2.33.36,4.61,1.11,6.87,1.81,2.07.64,3.82,1.87,5.44,3.29,2,1.75,2.64,4.22,3.57,6.55.83,2.09.63,4.27.71,6.44.07,1.89-.84,3.43-1.46,5.09-.62,1.7-1.12,3.44-1.67,5.15-2.22-1.52-4.71-3.14-7.1-4.89-3.63-2.67-7.32-5.32-11.89-5.96-6.29-.88-12.04.7-17.03,4.72-1.25,1.01-2.38,2.15-3.59,3.22-.26.23-.59.4-.89.6-.06-.06-.12-.13-.19-.19.17-.28.33-.58.53-.85,3.2-4.45,7.57-7.14,12.93-7.96,3.19-.49,6.46-.43,9.69-.6.69-.04,1.38,0,2.07,0,0-.11,0-.22,0-.33Zm36.77-67.49c-.06-.11-.12-.21-.18-.32-.14.04-.3.07-.43.13-3.28,1.68-6.75,2.74-10.36,3.47-6.39,1.3-12.04,4.34-17.44,7.9-1.71,1.13-3.33,2.41-5.1,3.45-1.96,1.15-4.08,2.02-6.05,3.16-3.18,1.86-5.39,4.64-6.75,8.02-.38.93-.28,2.06-.41,3.09,2.19-2.35,3.94-4.81,6.72-6.4,2.79-1.6,5.46-3.39,8.56-4.33,2.82-.86,5.65-1.67,8.49-2.47,2.43-.69,4.84-1.4,7.04-2.71,1.84-1.1,3.68-2.22,5.61-3.12,2.38-1.12,4.81-2.13,7.29-2.98,2.27-.78,4.63-1.29,6.95-1.94.33-.09.64-.27.95-.4-.03-.08-.06-.17-.09-.25-1.86-.07-3.66.36-5.41.92-3.02.96-6.02,2.01-9.04,2.99-.49.16-1.04.12-1.56.17-.05-.12-.1-.25-.15-.37,1.55-.86,3.09-1.71,4.64-2.57-.04-.09-.07-.18-.11-.27-3.29.97-6.59,1.95-9.88,2.92-.04-.11-.07-.21-.11-.32.45-.22.89-.45,1.34-.64,4.21-1.73,8.45-3.42,12.63-5.21,1.02-.44,1.89-1.26,2.82-1.9Zm29.53,34.74c-.5.61-.97.99-1.2,1.48-1.64,3.47-3.73,6.65-6.14,9.62-.43.53-.42,1.01-.12,1.59.83,1.59,2.24,2.43,3.85,3,2.25.8,4.58.93,6.93.8.75-.04,1.5-.14,2.43-.23-.76-1.44-.09-2.62.15-3.86.17-.87.37-1.79.29-2.65-.16-1.7-.36-3.33-1.97-4.57-1.51-1.16-1.35-1.36-2.81-.66-.44-1.41-.87-2.8-1.39-4.5Zm.76-33.28c-.09.02-.19.04-.28.06-.05.11-.13.22-.15.34-.04.25-.07.51-.08.76-.2,4.48-.55,8.94-2.46,13.09-.76,1.67-1.53,3.35-2.49,4.91-1.24,2.01-2.67,3.89-4.01,5.84-.12.17-.1.44-.18.89,2.5-1.12,4.24-2.77,5.85-4.63-.85,1.41-1.74,2.77-2.7,4.07-.72.98-1.57,1.86-2.27,2.86-.29.41-.33.98-.49,1.48.49-.04,1.01.02,1.45-.14,4.1-1.4,7.03-4.14,8.93-7.99,1.21-2.44,1.81-5.07,2.02-7.78.06-.77,0-1.54,0-2.31-.09,0-.17,0-.26.01-.51.9-1.01,1.8-1.66,2.95,0-.97-.07-1.66.01-2.34.43-3.4.47-6.78-.42-10.12-.18-.69-.55-1.32-.84-1.98Zm-73.46,12.36c.08.09.17.18.25.27.58-.35,1.18-.66,1.74-1.05,2.91-2.01,5.72-4.19,8.74-6.03,2.58-1.58,5.38-2.78,8.09-4.15.2-.1.41-.18.62-.26,2.84-1.05,5.27-2.76,7.51-4.76.28-.25.47-.59.71-.89-.06-.08-.12-.17-.18-.25-.78.25-1.58.45-2.33.77-3.38,1.45-6.74,2.93-10.1,4.41-1.05.46-2.05,1.09-3.14,1.43-1.98.61-3.36,1.93-4.62,3.46-.23.28-.34.69-.61.93-1.92,1.7-3.88,3.35-5.8,5.05-.34.3-.59.71-.88,1.07Zm84.89,29.6c.1-.03.2-.05.3-.08-.17-1.34-.32-2.68-.51-4.02-.95-6.39-1.69-12.78-1.41-19.26.09-2.14.02-4.3-.08-6.44-.07-1.57-.48-3.1-1.26-4.51-.13,1.16-.1,2.3-.14,3.44-.12,3.3-.14,6.61-.43,9.89-.27,3.12-.44,6.2.08,9.3.34,2,.87,3.93,1.63,5.83.63,1.59.95,3.3,1.43,4.96.09.31.26.6.4.9Zm-77.44-61.73c-4.04.29-20.77,13.91-21.05,16.96,7.05-5.68,14.05-11.32,21.05-16.96Zm52.59,46.02c.45-.56.78-.88,1-1.26,2-3.6,3.58-7.38,4.66-11.36.08-.29.01-.61.01-.92-.94.98-1.61,2.07-2.39,3.06-1.42,1.78-2.46,3.75-3.14,5.9-.44,1.39-.7,2.83-.13,4.58Zm-19.85-12.68c2.24,1.59,10.23-.38,11.74-2.9-1.57-.88-10.93,1.44-11.74,2.9Zm16.72,13.27c.09.01.18.03.27.04.13-.43.26-.87.41-1.3.66-1.93,1.32-3.85,2-5.77.56-1.59,1.17-3.17,1.71-4.77.1-.29-.02-.65-.03-.98-.16-.12-.33-.24-.49-.36-.17.35-.32.71-.51,1.04-.5.86-1.11,1.67-1.5,2.57-.76,1.74-1.56,3.48-2.04,5.3-.36,1.36-.2,2.84.2,4.22Zm.85-38.08c-.12.01-.24.02-.35.03.4,5.1.79,10.19,1.19,15.29.1,0,.19-.02.29-.03.94-5.21.7-10.32-1.13-15.3Zm26.71,33.27c-.34,2.39,1.29,10.53,2.24,11.32.29-3.95-.73-7.6-2.24-11.32Zm-127.85,74.24c.57-1.48.1-10.33-.61-11.43-.67,1.27-.22,9.58.61,11.43Zm124.39-48.98c.5-1.05-.07-5.69-.76-6.28-.39,1.63.06,5.3.76,6.28Zm-117.32,31.88c-.11.02-.22.05-.32.07.27,1.3.53,2.59.8,3.89.13-.03.26-.06.39-.08-.29-1.29-.58-2.59-.86-3.88Zm112.13-79.73c.13-.03.25-.07.38-.1l-.8-2.3c-.11.04-.21.07-.32.11.25.76.49,1.53.74,2.29Z"/>
      <path class="cls-1" d="m148.54,323.73c.2-1.29-.55-1.4-1.26-1.56.62-1.36,1.24-.03,1.89,0,.05-.11.16-.28.13-.31-.65-.66-.69-1.72-1.48-2.28-.1-.07-.21-.16-.27-.27-.75-1.29-1.47-2.59-2.23-3.87-.51-.85-1.06-1.69-1.65-2.48-.16-.21-.55-.24-.89-.37.17-.12.3-.22.46-.33-1.14-.53-2.1-1.13-2.7-2.32-.25-.49-1.14-.63-1.69-1-.57-.37-1.2-.74-1.59-1.27-1.08-1.43-2.04-2.94-3.05-4.42-.4-.58-.74-1.21-1.21-1.73-.98-1.08-1.99-2.06-3.29-2.86-1.93-1.19-3.55-2.9-4.53-5.01-.71-1.54-1.18-3.19-1.8-4.77-.78-2-1.64-3.97-2.4-5.98-.98-2.61-1.97-5.21-2.79-7.87-.47-1.52-.37-3.12-.24-4.75.08-1.04.58-1.6,1.06-2.38-.18-.08-.32-.14-.46-.21.25-.33,2.9-1.03,3.41-.86-.17.21-.3.42-.47.59-.61.61-1.3,1.18-.23,2.01.1.08-.07.82-.24.87-.86.27-.77.77-.4,1.32.34.51.61.96.17,1.56-.08.1.1.39.16.6.12.41.23.82.24,1.28.22.33,1.11.19.71,1.06-.02.05.08.17.14.24.49.6,1.1,1.14,1.44,1.81.74,1.45,2.01,2.34,3.27,3.19.72.48,1.63.69,2.48.96.7.22,1.43.4,2.16.5,1.79.24,2.96,1.58,4.4,2.43.76.45,1.54.86,2.3,1.32.96.58,1.9,1.19,2.84,1.81,1.15.76,2.36.71,3.61.35.2-.06.43-.19.59-.13.9.32,1.79.69,2.48.97.45.3.75.67,1,.64,5.7-.64,11.4-1.32,17.09-2,.41-.05.84-.1,1.23-.24,3.08-1.06,6.29-1.21,9.5-1.34,1.39-.05,2.62-.55,3.73-1.4,1.39-1.07,3.69-.86,4.84.43.43.48.83.99,1.07,1.27.92-.22,1.69-.54,2.46-.56,1.61-.05,2.93-.63,4.04-1.76,1.01-1.03,2.19-1.96,2.98-3.14,2.87-4.32,5.6-8.73,5.09-14.27-.07-.73,0-1.48-.06-2.21-.02-.23-.28-.44-.56-.85.05-.15.19-.54.3-.93.1-.4.17-.8.27-1.29-.33.05-.56.08-.77.11-.23-.45,1.4-3.74,1.99-4.1,1.71-1.02,5.32-1.43,5.8-.71,2.21-.13,3.21-1.73,4.27-3.33,1.29-1.94,2.58-3.89,4.01-5.72,1.21-1.55,2.71-2.78,4.7-3.29.34-.09.64-.38.95-.57,1.03,1.65.87,2.53-.32,4.1-.66.87-1.07,1.97-1.45,3.02-1.18,3.25-2.23,6.55-3.44,9.79-1.25,3.37-2.64,6.68-3.96,10.03-.83,2.11-1.23,4.32-1.25,6.59-.03,2.73,0,5.46,0,8.18-.09,0-.17.02-.26.03-.05-.13-.11-.25-.21-.48-1.42,1.25-2.64,2.57-2.53,4.55.16,2.88.47,5.74.68,8.62.09,1.21.11,2.43.15,3.65,0,.19-.03.4-.12.56-.91,1.55-1.77,3.13-2.77,4.61-1.11,1.64-2.37,3.18-3.55,4.77-2.1,2.82-4.11,5.73-6.33,8.45-2.49,3.05-2.57,2.99-6.54,2.98-12.18-.01-24.36-.03-36.54-.04-1.47,0-2.95,0-4.59,0Z"/>
      <path class="cls-1" d="m84.93,294.92c-.41.85-.75,1.74-1.24,2.55-2.15,3.56-3.39,7.4-3.64,11.54-.11,1.92-.06,3.85-.03,5.77,0,.52.25,1.03.38,1.54.09,0,.19,0,.28,0,.11-.47.26-.94.33-1.41.36-2.57.68-5.15,1.04-7.73.64-4.56,3-8.28,5.83-11.76.95-1.17,1.97-2.29,2.94-3.44.27-.32.68-.63.73-.99.16-1.17,1.02-1.44,1.92-1.65,3-.7,6.01-1.36,9.01-2.06.61-.14.78.13.9.66.31,1.42.04,2.75-.55,4.03-.32.7-.69,1.38-1.12,2.02-2.64,3.88-3.14,8.09-2.14,12.61,1.22,5.54,3.25,10.74,6.17,15.59.22.36.42.72.62,1.09.03.05.01.12.03.34H23.61c0-.34-.09-.78.03-1.15.09-.28.43-.67.69-.69,3.44-.27,6.67-1.24,9.78-2.69,3.99-1.86,8.02-3.61,11.99-5.51,1.44-.69,2.72-1.71,4.11-2.5.88-.5,1.84-.87,2.76-1.3.14-.07.31-.1.44-.19,1.96-1.42,3.89-2.87,5.88-4.25,1.31-.91,2.59-1.94,4.04-2.54,3.85-1.59,7.79-2.98,11.7-4.43.67-.25,1.22-.4,2.04.15,1,.67,2.41.76,3.52-.17.96-.8,1.88-1.66,2.82-2.49.43-.37.87-.72,1.3-1.09.07.05.14.1.21.14Z"/>
      <path class="cls-1" d="m220.72,323.57c1.01-3.38,2.11-6.53,2.89-9.76.76-3.18.88-6.42-.3-9.58-.9-2.41-2.44-4.37-4.38-6-1.82-1.53-3.67-3.03-5.6-4.41-1.32-.94-1.91-2.31-2.51-3.67-.5-1.13,1.12-2.99,2.34-2.65,1.97.55,3.94,1.17,5.82,1.96,3.97,1.66,7.42,4.2,10.91,6.66,1.55,1.09,3.09,2.23,4.76,3.09,3.53,1.81,7.16,3.42,10.73,5.16,5.4,2.62,10.76,5.3,16.17,7.91.84.41,1.81.6,2.75.76,1.36.23,2.39.73,3.47,1.75,1.72,1.63,3.85,2.84,5.86,4.14,1.08.7,2.22,1.32,3.41,1.82,2.14.89,4.34,1.67,6.52,2.48.26.1.53.16.78.31-21.26.18-42.5.38-63.61.04Z"/>
      <path class="cls-1" d="m131.37,240.07c.92-.81,1.93-1.71,3.07-2.73.38,1.51-.97,2.26-1.03,3.63.61-.66,1.07-1.18,1.55-1.66.34-.34.7-.67,1.1-.93.24-.15.57-.15.85-.22.03.3.17.64.08.9-.31.88-.69,1.72-1.05,2.58-.14.34-.28.69-.39.93,3.03,1.79,5.37.15,7.7-1.39,1.39-.92,2.89-1.5,4.53-1.58,1.67-.08,3.36-.16,5.01.02,2.23.24,4.43,0,6.65,0,3.3-.01,6.61.16,9.89.5,3.57.37,7.13.16,10.69.14.33,0,.67-.08,1.3-.16-1.07-.64-1.89-1.13-2.71-1.62,0-.06,0-.12,0-.19.5,0,1.03-.11,1.5.02,1.44.39,2.85.88,4.27,1.32,1.04.32,2.09.59,3.13.9.36.11.71.26,1.07.38.67.22,1.02-.03.91-.72-.13-.81-.34-1.61-.52-2.46.1-.04.22-.12.33-.12,1.27.09,1.78-.18,2.21-1.45.25-.74.58-.86,1.27-.61.39.14.86.03,1.3.05,1.78.08,3.62-.08,5.33.31,2.18.51,3.55,2.79,3.55,5.5,0,3.66-.84,7.04-3.57,9.76-.95.95-1.64,2.15-2.59,3.43-.48-.61-1-1.27-1.54-1.96-.06.07-.17.2-.28.34q-1-1.19-.12-1.66c-.21-.43-.35-.9-.62-1.26-.15-.2-.55-.38-.79-.33-1.12.23-2.31.36-3.3.87-2.55,1.32-5.27,1.92-8.04,2.49-2.48.51-4.92,1.27-7.42,1.63-3.22.46-6.45.2-9.67-.32-1.39-.22-2.85-.08-4.27.02-3.7.26-7.37.28-11.04-.39-3.08-.57-6.19-.59-9.31-.19-1.49.19-2.89,0-4.18-.94-.71-.52-1.62-.8-2.48-1.07-.29-.09-.82.09-1.01.34-.47.58-.84,1.25-1.18,1.92-.23.45-.33.96-.51,1.43-.3.79-.65.89-1.19.22-.94-1.17-2-2.32-2.62-3.66-1.22-2.64-2.58-5.32-3.16-8.14-.83-4.03-1.29-8.25,1.07-12.05.79-1.26,1.86-2.37,2.9-3.45,1.37-1.44,2.83-2.8,4.27-4.17.33-.31.73-.55,1.1-.82.1.07.2.14.29.21-.61,1.35-1.24,2.69-1.81,4.05-.72,1.72-1.52,3.42-2.06,5.2-.52,1.73-.26,3.52.37,5.2.25.67.74,1.26,1.17,1.98Zm34.9,6.98c-.18.02-.37.03-.55.05-.42-.56-.78-1.2-1.28-1.68-1.28-1.22-2.86-1.75-4.61-1.41-1.55.3-2.87,1-3.4,2.61-.7-.57-1.37-1.11-2.05-1.66-.77-.62-1.61-.62-2.43-.14-1.03.6-1.67,1.5-1.72,2.73-.03.77-.09,1.55.01,2.31.07.51.29,1.07.63,1.44,1.05,1.18,2.42,1.78,4.02,1.77,4.53-.02,9.06,0,13.59-.1,2.5-.05,5.01-.18,7.49-.51,1.26-.16,2.56-.66,3.66-1.31,1.34-.8,1.49-2.61.51-3.47-1.03-.91-2.22-1.52-3.59-1.19-1.31.32-2.13-.43-2.96-1.08-1.93-1.52-4.75-1.41-6.43.39-.35.37-.6.83-.9,1.25Zm-17.39-.21c-2.11-.83-2.97-.38-3.23,1.47-.18,1.31.54,2.34,1.18,3.34.18.28.8.37,1.21.36.16,0,.41-.53.44-.83.17-1.47.28-2.94.4-4.35Z"/>
      <path class="cls-1" d="m141.39,208.47c-.05.56-.06,1.12-.14,1.67-.3,2.03-.28,4.06.32,6.02.97,3.22,2.82,4.45,5.9,4.8.62.07,1.38-.6,1.92-.44.91.28,1.57-.18,2.3-.38,2.89-.8,5.8-1.4,8.82-1.38,3.33.02,6.57-.55,9.81-1.32,2.78-.66,5.54-.61,8.21.61.49.22,1.04.42,1.56.44.4.02.92-.14,1.19-.42,2.08-2.13,3.65-4.51,3.24-7.74.12-.01.23-.02.35-.03.2.72.55,1.43.59,2.16.09,2.02-.17,3.98-.62,5.99-.52,2.33-1.58,4.37-2.6,6.43-.65,1.32-1.86,2.31-3.25,2.91-1.47.63-2.98,1.2-4.51,1.66-2.08.63-3.96,1.54-5.73,2.86-1.57,1.17-3.45,2-5.58,1.67-2.75-.42-5.51-.83-8.27-1.2-.9-.12-1.83-.1-2.74-.2-.39-.04-.76-.29-1.15-.34-.86-.11-1.72-.2-2.59-.22-3-.07-5.29-1.29-6.42-4.16-1.14-2.89-2.43-5.76-3.15-8.76-.83-3.45.27-6.8,1.66-9.99.12-.28.42-.49.64-.74.08.03.16.06.24.1Z"/>
      <path class="cls-1" d="m160.39,275.81c-1.06,0-2.12-.01-3.18,0-4.05.06-7.36-1.55-10-4.55-1.19-1.35-2.34-2.74-3.38-4.19-.5-.7-.77-1.57-1.05-2.4-.19-.59.95-1.55,1.78-1.39,3.02.59,6.09,1.03,9,1.96,3.61,1.15,7.1,2.57,10.99,2.5,4.76-.09,9.31-.82,13.47-3.34,1.55-.94,3.29-1.58,4.92-2.4,1.19-.6,2.36-1.24,3.51-1.91.26-.15.46-.45.59-.73.33-.67.69-.65,1.12-.11.34.43.59.87,1.09,1.22.75.54.43,2.28-.3,3-.35.35-.56.84-.87,1.24-1.87,2.37-4.52,3.89-6.62,6.01-.83.84-1.63,1.73-2.56,2.46-.52.41-1.24.65-1.91.76-3.7.61-7.4,1.25-11.13,1.69-1.8.22-3.65.04-5.48.04v.14Z"/>
      <path class="cls-1" d="m100.08,96.21c-1.53,2.99-3.05,5.97-4.71,9.22,5.06-3.75,9.91-7.34,14.75-10.92.09.07.17.14.26.21-.28.46-.55.93-.85,1.38-2.33,3.48-5.35,6.27-8.55,8.93-2.12,1.76-4.17,3.62-6.16,5.54-2.54,2.46-4.6,5.28-6.36,8.37-3.24,5.67-6.16,11.49-8.79,17.47-1.84,4.19-4.18,8.18-5.13,12.72-.42,2.01-.72,4.04-1.08,6.06-.1.57-.26,1.13-.39,1.7-.09,0-.17-.01-.26-.02-.12-.45-.24-.9-.36-1.34-.77-2.91-1.7-5.8-1.59-8.86.02-.65.09-1.35.34-1.94,1.53-3.57,3.17-7.09,4.66-10.67.88-2.12,1.49-4.37,2.36-6.5.77-1.88,1.66-3.72,2.62-5.5.91-1.69,2.01-3.28,2.98-4.94.35-.6.56-1.28.88-1.91,2.13-4.21,4.66-8.16,7.6-11.84.46-.57.84-1.22,1.21-1.85,1.57-2.64,3.33-4.19,6.23-5.44.11.06.21.11.32.17Z"/>
      <path class="cls-1" d="m135.09,177.35c-.42,1.98.4,4.44-1.94,5.75-1.59.89-3.29,1.57-5.14,1.35-3.83-.45-4.18-3.52-4.66-6.56-1.72.38-3.34.82-4.62,2.02-1.07,1.01-1.01,3.09.06,4.63.25.36.52.71.78,1.06-.05.08-.11.15-.16.23-.34-.21-.77-.36-1.01-.66-1.67-2.11-3.77-2.28-6.14-1.5-.62.2-1.3.25-1.95.36-.09-.08-.19-.16-.28-.24.19-.4.27-.93.59-1.16,2.45-1.81,4.83-3.77,7.46-5.28,4.85-2.79,10.13-3.7,15.71-2.91,2.14.3,3.99,1.22,5.91,2.11,1.9.88,3.44,2.24,5.19,3.32.56.34.96.95,1.46,1.4.57.51,1.2.95,1.76,1.47.54.51,1.01,1.09,1.67,1.8-1.22.41-1.93-.1-2.65-.5-.98-.55-1.95-1.13-2.92-1.7-.57-.33-1.13-.66-1.7-.98-2.37-1.33-4.74-2.66-7.11-3.99-.05-.03-.12,0-.3-.02Z"/>
      <path class="cls-1" d="m206.09,183.6c-.68.29-1.33.68-2.04.84-2.13.48-4.29.83-6.41,1.34-.62.15-1.16.67-1.74,1.02.57.33,1.12.88,1.72.95,2.23.27,4.48.38,6.72.55.66.05,1.33.07,2.34.13-.47.53-.71.87-1.02,1.14-1.74,1.54-3.95,1.58-6.08,1.78-5.11.49-9.78-1-14.25-3.3-.65-.34-1.13-1-1.78-1.6h1.67c-.27-.35-.42-.55-.58-.75.09-.04.14-.09.2-.1,2.19-.21,4.37-.61,6.56-.58,2.53.03,4.99.05,7.35-1.04,2.33-1.08,4.77-1.01,7.23-.65.03.09.07.18.1.27Z"/>
      <path class="cls-1" d="m164.67,72.66c-1.1.3-2.19.66-3.31.88-4.11.82-8.24,1.57-12.35,2.4-.84.17-1.93.12-2.17,1.37-.02.12-.38.2-.59.26-3.62.92-7.24,1.84-10.87,2.76-.99.25-1.99.5-2.98.77-2.44.67-4.53,1.98-6.54,3.5-1.48,1.12-3.04,2.12-4.57,3.16-.16.11-.39.13-.76.25.21-.35.3-.56.44-.71,2.01-2.17,4.03-4.28,6.92-5.38,2.06-.78,3.98-1.94,6.03-2.78,1.39-.57,2.91-.84,4.35-1.28.73-.22,1.42-.54,2.14-.8.34-.12.7-.21,1.05-.38.44-.05.89-.06,1.31-.17,1.2-.32,2.39-.69,3.59-1.02,1.85-.51,3.68-1.13,5.56-1.46,3.54-.61,7.11-1.04,10.67-1.55.66-.09,1.33-.18,2-.28.03.15.05.31.08.46Z"/>
      <path class="cls-1" d="m132.67,71.08c-.38.4-.71.84-1.13,1.18-2.63,2.15-4.83,4.67-6.65,7.53-.2.32-.53.56-.77.85-1.05,1.25-2.08,2.52-3.15,3.76-.55.64-1.18,1.2-1.78,1.8-.14-.08-.27-.16-.41-.24.5-1.39.77-2.94,1.56-4.14,1.55-2.35,3.4-4.5,5.1-6.75,1.3-1.72,2.9-2.96,5.06-3.39.26-.05.47-.32.73-.45.4-.19.82-.35,1.24-.52.07.12.13.23.2.35Z"/>
      <path class="cls-1" d="m212.24,237.05c-1.21-1.31-2.7-.65-4.12-.62.63-1.44,1.18-2.92,1.91-4.31.36-.68,1.27-1.1,1.54-1.78.64-1.68,2.5-2.2,3.17-3.84,1.25,1.88-.1,7.31-2.5,10.55Z"/>
      <path class="cls-1" d="m120.65,192.9c.07-.15.15-.31.23-.49-.21-.18-.43-.36-.67-.56,1.58-1.09,3.24-1.71,5.14-1.84,1.44-.1,2.86-.5,4.29-.73.86-.14,1.57.1,2.1,1.08-1.45.75-2.87,1.48-4.43,2.28.34.09.59.16.82.22-.53,1.28-5.51,1.33-7.48.05Z"/>
      <path class="cls-1" d="m111.92,88.78c-.93.57-1.32,1.43-1.7,2.44-.55,1.5-1.74,2.62-3.07,3.73.29-3.35,1.85-5.38,4.76-6.17Z"/>
      <path class="cls-1" d="m128.73,188c-.87-.08-1.75-.16-2.62-.25.02-.15.03-.29.05-.44.87.09,1.73.19,2.6.28,0,.13-.02.27-.02.4Z"/>
      <path class="cls-2" d="m172.7,102.82c-.94.64-1.8,1.46-2.82,1.9-4.19,1.8-8.42,3.48-12.63,5.21-.46.19-.9.43-1.34.64.04.11.07.21.11.32,3.29-.97,6.59-1.95,9.88-2.92.04.09.07.18.11.27-1.55.86-3.09,1.71-4.64,2.57.05.12.1.25.15.37.52-.05,1.07-.01,1.56-.17,3.02-.98,6.02-2.03,9.04-2.99,1.76-.56,3.55-.99,5.41-.92.03.08.06.17.09.25-.32.14-.62.31-.95.4-2.32.65-4.68,1.16-6.95,1.94-2.48.86-4.92,1.87-7.29,2.98-1.93.91-3.77,2.03-5.61,3.12-2.2,1.31-4.61,2.02-7.04,2.71-2.84.8-5.67,1.62-8.49,2.47-3.1.94-5.78,2.73-8.56,4.33-2.77,1.59-4.53,4.05-6.72,6.4.12-1.04.03-2.16.41-3.09,1.36-3.39,3.57-6.16,6.75-8.02,1.96-1.15,4.09-2.01,6.05-3.16,1.77-1.04,3.38-2.32,5.1-3.45,5.39-3.55,11.04-6.59,17.44-7.9,3.61-.74,7.09-1.79,10.36-3.47.13-.07.28-.09.43-.13.06.11.12.21.18.32Z"/>
      <path class="cls-2" d="m202.23,137.56c.53,1.71.96,3.09,1.39,4.5,1.46-.7,1.3-.5,2.81.66,1.61,1.24,1.82,2.87,1.97,4.57.08.87-.12,1.78-.29,2.65-.24,1.24-.91,2.42-.15,3.86-.92.09-1.67.19-2.43.23-2.36.14-4.69,0-6.93-.8-1.61-.57-3.02-1.41-3.85-3-.3-.58-.31-1.06.12-1.59,2.41-2.98,4.5-6.16,6.14-9.62.23-.49.7-.87,1.2-1.48Z"/>
      <path class="cls-2" d="m202.99,104.28c.28.66.66,1.29.84,1.98.89,3.34.85,6.72.42,10.12-.09.68-.01,1.37-.01,2.34.64-1.15,1.15-2.05,1.66-2.95.09,0,.17,0,.26-.01,0,.77.05,1.55,0,2.31-.21,2.71-.81,5.33-2.02,7.78-1.9,3.84-4.83,6.59-8.93,7.99-.45.15-.97.1-1.45.14.16-.5.2-1.07.49-1.48.7-.99,1.55-1.88,2.27-2.86.96-1.31,1.86-2.66,2.7-4.07-1.61,1.86-3.36,3.51-5.85,4.63.09-.45.07-.72.18-.89,1.33-1.95,2.77-3.84,4.01-5.84.96-1.56,1.73-3.24,2.49-4.91,1.9-4.15,2.26-8.61,2.46-13.09.01-.26.04-.51.08-.76.02-.12.1-.23.15-.34.09-.02.19-.04.28-.06Z"/>
      <path class="cls-2" d="m129.53,116.64c.29-.36.54-.77.88-1.07,1.92-1.69,3.88-3.35,5.8-5.05.27-.24.38-.64.61-.93,1.26-1.53,2.64-2.85,4.62-3.46,1.09-.34,2.08-.96,3.14-1.43,3.36-1.48,6.73-2.96,10.1-4.41.75-.32,1.55-.52,2.33-.77.06.08.12.17.18.25-.23.3-.43.64-.71.89-2.24,1.99-4.67,3.71-7.51,4.76-.21.08-.42.16-.62.26-2.71,1.37-5.51,2.57-8.09,4.15-3.01,1.84-5.83,4.02-8.74,6.03-.56.38-1.16.7-1.74,1.05-.08-.09-.17-.18-.25-.27Z"/>
      <path class="cls-2" d="m214.41,146.23c-.13-.3-.31-.59-.4-.9-.47-1.65-.79-3.37-1.43-4.96-.76-1.9-1.29-3.82-1.63-5.83-.52-3.1-.36-6.18-.08-9.3.29-3.28.31-6.59.43-9.89.04-1.14,0-2.28.14-3.44.79,1.42,1.19,2.94,1.26,4.51.1,2.14.17,4.3.08,6.44-.28,6.48.46,12.87,1.41,19.26.2,1.34.34,2.68.51,4.02-.1.03-.2.05-.3.08Z"/>
      <path class="cls-2" d="m136.97,84.51c-7,5.64-14,11.28-21.05,16.96.28-3.05,17.01-16.68,21.05-16.96Z"/>
      <path class="cls-2" d="m189.56,130.53c-.56-1.76-.31-3.19.13-4.58.68-2.15,1.72-4.12,3.14-5.9.79-.99,1.45-2.08,2.39-3.06,0,.31.07.64-.01.92-1.07,3.98-2.66,7.76-4.66,11.36-.22.39-.55.71-1,1.26Z"/>
      <path class="cls-2" d="m169.71,117.85c.82-1.47,10.17-3.78,11.74-2.9-1.51,2.52-9.51,4.5-11.74,2.9Z"/>
      <path class="cls-2" d="m186.43,131.12c-.4-1.38-.56-2.86-.2-4.22.48-1.82,1.28-3.56,2.04-5.3.4-.9,1.01-1.71,1.5-2.57.19-.33.34-.69.51-1.04.16.12.33.24.49.36.02.33.13.69.03.98-.54,1.6-1.15,3.18-1.71,4.77-.68,1.92-1.34,3.85-2,5.77-.15.43-.27.86-.41,1.3-.09-.01-.18-.03-.27-.04Z"/>
      <path class="cls-2" d="m187.27,93.04c1.83,4.97,2.06,10.08,1.13,15.3-.1,0-.19.02-.29.03-.4-5.1-.79-10.19-1.19-15.29.12-.01.24-.02.35-.03Z"/>
      <path class="cls-2" d="m213.98,126.31c1.5,3.72,2.53,7.38,2.24,11.32-.95-.8-2.58-8.94-2.24-11.32Z"/>
      <path class="cls-2" d="m86.13,200.55c-.83-1.85-1.28-10.16-.61-11.43.71,1.1,1.18,9.95.61,11.43Z"/>
      <path class="cls-2" d="m210.52,151.57c-.7-.97-1.15-4.65-.76-6.28.7.59,1.26,5.23.76,6.28Z"/>
      <path class="cls-2" d="m93.2,183.45c.29,1.29.58,2.59.86,3.88-.13.03-.26.06-.39.08-.27-1.3-.53-2.59-.8-3.89.11-.02.22-.05.32-.07Z"/>
      <path class="cls-2" d="m205.33,103.72c-.25-.76-.49-1.53-.74-2.29.11-.04.21-.07.32-.11l.8,2.3c-.13.03-.25.07-.38.1Z"/>
      <path class="cls-2" d="m166.27,247.05c.3-.42.55-.88.9-1.25,1.68-1.8,4.5-1.91,6.43-.39.83.65,1.65,1.4,2.96,1.08,1.36-.33,2.56.28,3.59,1.19.97.86.83,2.67-.51,3.47-1.1.65-2.4,1.15-3.66,1.31-2.48.32-4.99.45-7.49.51-4.53.09-9.06.08-13.59.1-1.6,0-2.96-.59-4.02-1.77-.34-.38-.56-.94-.63-1.44-.1-.76-.04-1.54-.01-2.31.05-1.23.69-2.12,1.72-2.73.81-.48,1.65-.48,2.43.14.67.54,1.34,1.08,2.05,1.66.53-1.6,1.86-2.31,3.4-2.61,1.75-.34,3.33.19,4.61,1.41.5.48.86,1.11,1.28,1.68.18-.02.37-.03.55-.05Z"/>
      <path class="cls-2" d="m148.88,246.85c-.12,1.4-.23,2.88-.4,4.35-.03.31-.28.82-.44.83-.41.01-1.03-.08-1.21-.36-.64-1.01-1.36-2.03-1.18-3.34.26-1.86,1.12-2.3,3.23-1.47Z"/>
    </g>
  </g>
</svg>